<?xml version="1.0" encoding="UTF-8" standalone="no"?>
<!-- Created with Inkscape (http://www.inkscape.org/) -->

<svg
   xmlns:dc="http://purl.org/dc/elements/1.1/"
   xmlns:cc="http://creativecommons.org/ns#"
   xmlns:rdf="http://www.w3.org/1999/02/22-rdf-syntax-ns#"
   xmlns:svg="http://www.w3.org/2000/svg"
   xmlns="http://www.w3.org/2000/svg"
   xmlns:sodipodi="http://sodipodi.sourceforge.net/DTD/sodipodi-0.dtd"
   xmlns:inkscape="http://www.inkscape.org/namespaces/inkscape"
   width="256"
   height="256"
   viewBox="0 0 67.733332 67.733335"
   version="1.1"
   id="svg1076"
   inkscape:version="0.92.2 5c3e80d, 2017-08-06"
   sodipodi:docname="iaea-logo.svg">
  <defs
     id="defs1070" />
  <sodipodi:namedview
     id="base"
     pagecolor="#ffffff"
     bordercolor="#666666"
     borderopacity="1.0"
     inkscape:pageopacity="0.0"
     inkscape:pageshadow="2"
     inkscape:zoom="0.98994949"
     inkscape:cx="170.56844"
     inkscape:cy="41.342699"
     inkscape:document-units="px"
     inkscape:current-layer="layer1"
     showgrid="false"
     units="px"
     inkscape:window-width="1366"
     inkscape:window-height="768"
     inkscape:window-x="0"
     inkscape:window-y="0"
     inkscape:window-maximized="0" />
  <metadata
     id="metadata1073">
    <rdf:RDF>
      <cc:Work
         rdf:about="">
        <dc:format>image/svg+xml</dc:format>
        <dc:type
           rdf:resource="http://purl.org/dc/dcmitype/StillImage" />
        <dc:title></dc:title>
      </cc:Work>
    </rdf:RDF>
  </metadata>
  <g
     inkscape:label="Layer 1"
     inkscape:groupmode="layer"
     id="layer1"
     transform="translate(0,-229.26666)">
    <g
       transform="matrix(0.29497814,0,0,0.29497814,-54.626893,204.78464)"
       id="g970"
       style="fill:#5b92e5;fill-opacity:1">
      <path
         style="fill:#5b92e5;fill-opacity:1;stroke:#ffffff;stroke-width:0.1"
         inkscape:connector-curvature="0"
         id="path892"
         d="M 237.21338,111.24365" />
      <path
         style="fill:#5b92e5;fill-opacity:1;stroke:#ffffff;stroke-width:0.1"
         inkscape:connector-curvature="0"
         id="path894"
         d="M 395.79102,213.61816" />
      <g
         id="g926"
         style="fill:#5b92e5;fill-opacity:1">
        <path
           style="fill:#5b92e5;fill-opacity:1;stroke:#ffffff;stroke-width:0.1"
           inkscape:connector-curvature="0"
           id="path896"
           d="M 221.37939,121.42871 C 214.13916,129.94141 213.81934,137.3418 213.81934,137.3418 213.81934,137.3418 218.98096,135.4458 225.03906,128.68848 231.70996,120.3208 237.21338,111.24365 237.21338,111.24365 237.21338,111.24365 230.33154,112.47656 221.37939,121.42871 Z" />
        <path
           style="fill:#5b92e5;fill-opacity:1;stroke:#ffffff;stroke-width:0.1"
           inkscape:connector-curvature="0"
           id="path898"
           d="M 222.66895,141.91895 C 222.63672,141.95996 222.60547,141.99756 222.57129,142.03613 218.47217,146.93359 213.46484,151.40332 209.54102,155.03516 206.6748,157.68457 204.55566,160.36572 204.55566,160.36572 204.55566,160.36572 201.76465,145.51807 204.9873,135.49219 208.20947,123.67627 216.68359,118.06592 216.68359,118.06592 216.68359,118.06592 214.53711,121.8457 213.24316,127.83008 212.35352,131.93848 211.5127,136.81445 210.79639,140.60303 210.04102,144.58154 209.2041,147.05127 209.2041,147.05127 209.2041,147.05127 210.64404,143.38574 215.01221,139.80957 218.18848,137.20898 222.15479,134.9375 225.33691,132.62695 228.9502,130.00293 231.4248,127.13672 231.4248,127.13672 231.4248,127.13672 230.41016,132.68652 222.66895,141.91895 Z" />
        <path
           style="fill:#5b92e5;fill-opacity:1;stroke:#ffffff;stroke-width:0.1"
           inkscape:connector-curvature="0"
           id="path900"
           d="M 214.53516,163.04492 C 211.19385,169.56836 206.65869,176.01367 203.31494,180.4707 200.64551,185.13477 200.24463,189.11816 200.24463,189.11816 200.24463,189.11816 199.78027,189.59375 199.49707,188.72559 198.85156,186.73926 197.77344,182.52197 196.39355,177.68457 194.69238,171.72217 192.70068,164.45996 192.89258,158.34863 193.34961,143.91211 201.88379,134 201.88379,134 201.88379,134 201.32617,136.70605 199.89307,143.86768 199.41602,151.3457 201.30029,155.89258 201.56445,160.25732 201.94727,166.5415 201.0874,171.31982 201.0874,171.31982 201.0874,171.31982 203.07764,165.99902 207.06787,161.43848 209.85645,158.25586 213.40283,154.96533 216.19531,152.41162 218.86914,149.96777 220.34473,148.40332 220.34473,148.40332 220.34473,148.40332 218.2417,156.56201 214.53516,163.04492 Z" />
        <path
           style="fill:#5b92e5;fill-opacity:1;stroke:#ffffff;stroke-width:0.1"
           inkscape:connector-curvature="0"
           id="path902"
           d="M 193.84766,199.09082 C 186.02051,188.94531 185.82471,179.59277 185.23975,175.41895 185.46826,168.64648 186.92529,163.44092 186.92529,163.44092 186.92529,163.44092 188.25439,168.15625 190.4248,173.30908 192.44727,178.11133 195.35889,182.69727 197.18945,188.50684 199.88135,195.89502 200.92871,201.875 200.92871,201.875 200.92871,201.875 200.51855,195.20801 203.31494,187.87109 206.39355,179.80469 212.70605,171.00049 212.70605,171.00049 212.70605,171.00049 213.80859,175.55811 212.4917,180.73486 211.6709,186.27783 210.87402,189.85547 208.80664,195.90723 208.19824,197.68457 205.85937,202.46582 204.03223,207.44531 203.49512,209.9707 204.50977,212.77539 204.50977,212.77539 L 203.47412,212.85645 C 203.47412,212.85645 201.24805,208.7998 193.84766,199.09082 Z" />
        <path
           style="fill:#5b92e5;fill-opacity:1;stroke:#ffffff;stroke-width:0.1"
           inkscape:connector-curvature="0"
           id="path904"
           d="M 193.02197,217.31543 C 194.25391,220.04883 195.44629,221.90527 197.41504,223.95996 201.62158,228.34863 207.04883,231.57031 210.59766,234.57031 214.52686,237.89355 216.81348,240.03516 216.81348,240.03516 L 217.77832,239.92871 C 217.77832,239.92871 216.03906,236.60645 215.95605,231.08691 216.54639,223.47754 217.30371,213.01563 216.43848,204.99023 215.50537,196.33447 212.58057,191.70068 212.58057,191.70068 212.58057,191.70068 209.24316,203.69531 209.2041,213.29688 209.04443,222.78125 210.97559,226.1084 211.93701,229.26563 212.43262,230.8916 212.41992,231.62305 212.41992,231.62305 212.41992,231.62305 209.41797,225.18652 204.43604,218.44043 200.88184,213.62891 195.91553,209.65234 192.64697,204.61523 189.13916,199.48975 187.44824,195.13086 187.44824,195.13086 187.44824,195.13086 186.59131,205.52539 193.02197,217.31543 Z" />
        <path
           style="fill:#5b92e5;fill-opacity:1;stroke:#ffffff;stroke-width:0.1"
           inkscape:connector-curvature="0"
           id="path906"
           d="M 231.60352,261.30957 C 226.83496,260.77344 220.61816,259.37988 216.81348,257.55859 210.54395,254.55664 208.24023,251.88086 207.22217,250.96777 197.68408,241.32227 194.27051,225.48535 194.27051,225.48535 194.27051,225.48535 194.98096,225.66016 196.71875,227.71094 198.05908,230.06934 200.375,232.78906 203.63135,235.69531 207.78613,239.40527 215.2998,244.30762 219.97559,248.12793 223.51563,251.01953 226.35254,253.54004 228.28076,255.84375 230.0791,257.5918 230.70508,258.00977 230.70508,258.00977 230.70508,258.00977 224.47656,251.39648 221.95801,242.01855 220.50977,236.82227 220.27246,230.11133 220.08154,225.56738 219.87305,220.55273 219.52441,217.90137 219.52441,217.90137 219.52441,217.90137 226.68066,227.8623 230.69238,237.99902 232.87402,243.5127 233.29932,249.66113 234.33691,254.12988 235.51514,260.29199 237.19434,262.54492 237.19434,262.54492 L 235.70898,262.62305 C 235.70898,262.62305 234.74561,262.02246 231.60352,261.30957 Z" />
        <path
           style="fill:#5b92e5;fill-opacity:1;stroke:#ffffff;stroke-width:0.1"
           inkscape:connector-curvature="0"
           id="path908"
           d="M 256.51221,275.23828 C 252.71143,276.06445 248.04932,276.97656 244.60742,277.31445 237.23145,278.03906 234.61865,276.45215 232.03223,275.6709 217.08691,271.16602 210.16846,257.66602 210.16846,257.66602 210.16846,257.66602 213.71924,260.05371 223.46387,263.03809 229.42773,264.86621 235.60449,266.59668 242.8208,267.66797 248.60205,269.12891 252.60889,270.66992 252.60889,270.66992 252.60889,270.66992 245.31787,267.75781 241.53516,261.23828 238.84082,256.59766 237.10547,251.08496 235.89062,246.51953 234.73291,242.1748 234.0332,238.66113 234.0332,238.66113 234.0332,238.66113 239.12695,243.05566 244.96436,249.80762 253.03809,258.30859 254.46631,263.59668 258.46728,269.3125 260.94727,272.46387 263.68408,272.95605 263.68408,272.95605 L 263.25586,273.66992 C 263.25586,273.66992 260.31445,274.41309 256.51221,275.23828 Z" />
        <path
           style="fill:#5b92e5;fill-opacity:1;stroke:#ffffff;stroke-width:0.1"
           inkscape:connector-curvature="0"
           id="path910"
           d="M 286.68994,281.0293 C 277.58057,284.88672 267.50635,289.28125 253.78809,289.60352 237.54687,289.80664 227.63818,280.92285 227.63818,280.92285 227.63818,280.92285 230.01709,282.1377 240.60645,282.38672 250.35937,282.38672 261.79053,275.74219 279.83057,275.02734 287.53857,274.76953 301.26465,278.63672 301.26465,278.63672 301.26465,278.63672 312.98242,275.38477 324.55859,275.90625 333.38086,276.56348 348.11523,281.1748 356.72656,283.0127 366.3125,284.38965 373.05469,281.62891 373.05469,281.62891 373.05469,281.62891 363.53223,290.08594 347.34961,290.35352 336.1377,290.22266 326.29004,287.1377 314.76855,282.04688 313.48242,281.29688 306.78418,280.2793 306.78418,280.2793 306.78418,280.2793 315.33984,284.03027 322.84277,289.63867 327.25977,292.7666 330.34473,296.96289 330.34473,296.96289 330.34473,296.96289 329.33496,297.66602 328.30859,298.21289 327.16699,298.82031 325.99512,299.27539 325.99512,299.27539 325.99512,299.27539 322.47559,293.32422 316.54102,289.02148 309.54004,283.94922 301.37305,281.24414 301.37305,281.24414 301.37305,281.24414 292.12061,284.10156 284.83252,289.31738 278.02246,294.14355 274.90088,300 274.90088,300 274.90088,300 273.80176,299.65625 272.80713,299.12109 271.62158,298.48633 270.48291,297.66797 270.48291,297.66797 270.48291,297.66797 274.11475,292.49609 282.01074,287.53223 288.15479,283.375 296.33545,280.09766 296.33545,280.09766 296.33545,280.09766 293.05322,279.09766 286.68994,281.0293 Z" />
        <path
           style="fill:#5b92e5;fill-opacity:1;stroke:#ffffff;stroke-width:0.1"
           inkscape:connector-curvature="0"
           id="path912"
           d="M 341.91211,269.79297 C 345.13184,265.69238 346.96094,259.85449 353.62012,252.54297 359.91113,245.28516 366.45703,239.25098 366.45703,239.25098 366.45703,239.25098 365.98047,242.21387 364.88672,246.30859 363.65723,250.91797 361.64453,256.96094 358.65332,261.81934 354.26953,269.39258 347.96289,271.20508 347.96289,271.20508 347.96289,271.20508 351.33691,270.07617 356.95801,268.71777 362.76953,267.31152 370.93262,265.64551 377.14844,263.74023 385.09277,261.30371 390.20996,258.25391 390.20996,258.25391 390.20996,258.25391 383.87793,271.88477 366.11914,277.20215 358.37109,279.05469 350.62695,277.6543 344.11914,275.95703 339.87012,275.07617 336.87891,274.59863 336.87891,274.59863 L 336.65234,273.6377 C 336.65234,273.6377 338.80273,273.75195 341.91211,269.79297 Z" />
        <path
           style="fill:#5b92e5;fill-opacity:1;stroke:#ffffff;stroke-width:0.1"
           inkscape:connector-curvature="0"
           id="path914"
           d="M 371.42773,237.51855 C 367.14062,247.23437 366.73535,253.04785 365.21191,258.09473 364.19141,261.47266 362.85352,263.23828 362.85352,263.23828 L 363.78223,263.52441 C 363.78223,263.52441 365.48633,262.65625 368.92676,261.95312 375.05273,260.69727 382.93066,260.23828 391.36133,253.23633 402.81738,243.07715 406.00879,226.08594 406.00879,226.08594 406.00879,226.08594 405.05566,226.72754 404.15137,227.94336 402.84082,229.70215 400.97754,232.62988 396.79199,236.23145 391.91797,240.42578 383.67773,246.05469 377.85742,250.80664 375.6416,252.61621 373.45117,255.16895 372.06934,256.52148 370.17969,258.37793 369.49805,258.7373 369.49805,258.7373 369.49805,258.7373 376.63379,250.87695 378.42969,242.16113 379.91797,236.14746 379.76465,231.80078 380.07129,227.22754 380.40332,222.33008 380.71582,218.65527 380.71582,218.65527 380.71582,218.65527 375.30371,227.83984 371.42773,237.51855 Z" />
        <path
           style="fill:#5b92e5;fill-opacity:1;stroke:#ffffff;stroke-width:0.1"
           inkscape:connector-curvature="0"
           id="path916"
           d="M 382.3584,240.59082 C 382.3584,240.59082 384.49414,236.8125 384.43164,231.6582 384.35547,225.53516 382.63281,217.38281 383.42969,210.08008 384.55859,197.86328 387.64648,192.21924 387.64648,192.21924 387.64648,192.21924 391.00391,203.33496 391.00391,213.72461 391.00391,226.01465 387.64648,232.44531 387.64648,232.44531 387.64648,232.44531 390.26367,227.20703 394.21973,221.44141 397.63965,216.45801 402.46875,212.12988 406.00879,207.29395 410.17285,201.60742 412.7959,195.7915 412.7959,195.7915 412.7959,195.7915 413.91309,208.11621 405.58008,220.87012 402.28516,225.91113 395.43457,230.68945 390.36133,234.65918 386.125,237.97559 383.28809,240.94727 383.28809,240.94727 Z" />
        <path
           style="fill:#5b92e5;fill-opacity:1;stroke:#ffffff;stroke-width:0.1"
           inkscape:connector-curvature="0"
           id="path918"
           d="M 395.86133,206.72363 C 394.09375,201.12451 389.93652,193.80029 388.53906,186.68164 386.3418,176.00928 387.64648,171.71387 387.64648,171.71387 387.64648,171.71387 393.93359,180.47949 397.18457,189.28955 399.5918,195.81445 399.22168,203.0791 399.22168,203.0791 399.22168,203.0791 400.08789,197.93115 402.22168,191.54004 404.83301,183.71973 409.28223,174.19971 411.43848,168.49756 412.50684,165.67187 412.43945,163.49707 412.43945,163.49707 412.43945,163.49707 412.7666,164.875 413.36816,167.26562 413.91895,169.4541 414.7832,172.53613 414.76074,176.37451 414.74023,179.77051 413.96875,183.75781 412.53223,188.24365 410.58984,194.40234 404.95313,201.53711 400.86426,207.22363 398.20508,210.91992 396.64941,213.58105 396.64941,213.58105 L 395.87793,213.61035 C 395.87793,213.61035 397.00293,210.33398 395.86133,206.72363 Z" />
        <path
           style="fill:#5b92e5;fill-opacity:1;stroke:#ffffff;stroke-width:0.1"
           inkscape:connector-curvature="0"
           id="path920"
           d="M 384.43164,161.10303 C 389.94922,171.7666 394.24121,175.96143 397.66699,181.73389 399.83301,185.38281 400.36426,189.00342 400.36426,189.00342 L 400.93457,188.43213 C 400.93457,188.43213 401.79883,185.271 403.0791,180.76953 404.95996,174.15869 407.45117,164.47412 407.04395,156.17383 406.82617,151.7334 405.55371,148.01562 404.20313,144.75977 401.62012,137.9541 398.29102,134.56055 398.29102,134.56055 398.29102,134.56055 399.33691,139.26904 400.02441,146.31348 399.69336,152.0127 398.7002,156.81641 398.41699,161.85352 398.16406,166.35937 399.07715,171.42773 399.07715,171.42773 399.07715,171.42773 397.53027,166.8457 393.1123,161.74561 390.54395,158.78174 387.26172,156.03906 384.5918,153.65479 381.92187,151.27148 379.86328,149.24707 379.86328,149.24707 379.86328,149.24707 381.26367,154.96045 384.43164,161.10303 Z" />
        <path
           style="fill:#5b92e5;fill-opacity:1;stroke:#ffffff;stroke-width:0.1"
           inkscape:connector-curvature="0"
           id="path922"
           d="M 378.28125,143.09473 C 382.36914,148.16064 387.46875,152.88867 391.18262,155.95898 394.15039,158.82812 395.52344,160.94238 395.52344,160.94238 H 395.89844 C 395.89844,160.94238 396.02539,158.57715 396.32617,155.2627 396.79687,150.10889 397.61328,143.84863 395.46973,136.0249 393.99121,130.87695 391.37988,126.55127 388.87891,123.59326 386.29199,120.53369 383.8418,119.04248 383.8418,119.04248 383.8418,119.04248 384.16113,119.77148 384.96875,121.98096 385.64355,123.8291 386.7373,126.78809 387.53809,130.50586 388.27637,133.94531 388.8584,137.52002 389.46875,140.68701 390.23535,144.67871 391.02148,147.81396 391.02148,147.81396 391.02148,147.81396 390.08789,145.08105 386.0918,141.49023 382.85449,138.58203 377.79395,135.6333 374.25,132.91748 370.70508,130.20166 368.83789,127.88037 368.83789,127.88037 368.83789,127.88037 369.4541,132.99756 378.28125,143.09473 Z" />
        <path
           style="fill:#5b92e5;fill-opacity:1;stroke:#ffffff;stroke-width:0.1"
           inkscape:connector-curvature="0"
           id="path924"
           d="M 378.42969,132.54248 C 371.99316,125.63428 369.45215,120.80176 366.37207,116.30469 364.53125,113.61816 363.0498,111.8042 363.0498,111.8042 363.0498,111.8042 372.50684,114.8457 377.78613,120.69971 387.3252,131.36328 386.68164,138.00781 386.68164,138.00781 386.68164,138.00781 381.38379,135.81787 378.42969,132.54248 Z" />
      </g>
      <g
         id="g936"
         style="fill:#5b92e5;fill-opacity:1">
        <g
           id="g930"
           style="fill:#5b92e5;fill-opacity:1">
          <path
             style="fill:#5b92e5;fill-opacity:1"
             inkscape:connector-curvature="0"
             id="path928"
             d="M 307.05273,103.51514 C 294.21338,111.89893 280.7959,140.3501 273.66553,174.31348 264.40283,218.42285 268.74805,255.41113 283.55713,258.52148 298.36523,261.63184 317.2207,229.5127 326.4834,185.40234 333.61523,151.44043 332.77344,119.99658 324.38965,107.15527 322.21777,103.83057 319.59375,101.82373 316.58984,101.19385 V 101.19385 C 313.58691,100.5625 310.37695,101.34326 307.05273,103.51514 Z M 284.08545,256.00586 C 271.13525,253.2832 267.51514,216.11621 276.18213,174.8418 279.66309,158.26318 284.66064,142.83496 290.63525,130.22461 296.34863,118.16357 302.67969,109.44238 308.45898,105.66943 311.19141,103.88428 313.75,103.22461 316.0625,103.71045 V 103.71045 C 318.37402,104.1958 320.45117,105.82861 322.23633,108.56152 326.00977,114.34229 328.29785,124.87207 328.67871,138.21338 329.07715,152.16162 327.44727,168.29687 323.9668,184.87402 315.29883,226.14941 297.03613,258.72266 284.08545,256.00586 Z" />
        </g>
        <path
           style="fill:#5b92e5;fill-opacity:1"
           inkscape:connector-curvature="0"
           id="path932"
           d="M 309.33887,100.97949 C 309.33887,100.97949 313.69336,99.478516 318.14453,100.97949 320.99121,101.93945 323.72461,104.14502 325.8877,108.69678 332.81836,123.2002 331.05859,145.77734 331.05859,145.77734 H 328.84375 C 328.84375,145.77734 328.91797,122.98584 323.7002,112.41162 318.89746,101.28418 310.89746,105.03857 310.89746,105.03857 Z" />
        <circle
           style="fill:#5b92e5;fill-opacity:1"
           id="circle934"
           r="3.777832"
           cy="103.64355"
           cx="308.6333" />
      </g>
      <g
         id="g946"
         style="fill:#5b92e5;fill-opacity:1">
        <g
           id="g940"
           style="fill:#5b92e5;fill-opacity:1">
          <path
             style="fill:#5b92e5;fill-opacity:1"
             inkscape:connector-curvature="0"
             id="path938"
             d="M 274.33447,134.62012 V 134.62012 C 272.21338,135.59668 270.6123,137.51611 269.57373,140.32471 265.63916,150.97412 270.2207,173.82422 280.9751,197.18408 287.54443,211.4541 295.52783,224.05566 303.45605,232.66895 311.70312,241.63086 319.06641,245.26953 324.1875,242.91309 329.30762,240.55371 331.33203,232.5957 329.8877,220.50195 328.49805,208.87695 324.11523,194.6167 317.5459,180.34717 310.97754,166.0791 302.99414,153.47656 295.06543,144.86279 286.81689,135.90088 279.45459,132.26367 274.33447,134.62012 Z M 315.20996,181.42383 C 329.47656,212.41406 330.81445,237.0293 323.11133,240.57715 315.40918,244.12109 297.57812,227.09961 283.31201,196.1084 275.34326,178.80078 270.75049,161.40527 270.75049,149.81836 270.75049,146.39258 271.15332,143.47363 271.98682,141.21582 272.77979,139.07031 273.93115,137.6377 275.40967,136.95703 283.11182,133.41113 300.94385,150.43262 315.20996,181.42383 Z" />
        </g>
        <path
           style="fill:#5b92e5;fill-opacity:1"
           inkscape:connector-curvature="0"
           id="path942"
           d="M 274.61621,133.73828 C 277.51514,132.63477 281.5459,134.0249 281.5459,134.0249 284.12842,134.97949 286.854,136.75195 288.94092,138.49023 296.22314,144.55469 301.98047,153.63721 301.98047,153.63721 L 300.01514,154.85205 C 300.01514,154.85205 294.69189,146.51172 288.58398,141.49023 285.94189,139.31982 283.03857,137.98438 281.01025,137.3833 281.01025,137.3833 278.25635,136.53223 276.10742,137.36426 274.44434,138.00928 273.25781,140.38379 273.25781,140.38379 271.6499,143.72949 271.75732,149.56445 271.75732,149.56445 L 267.86426,149.85059 C 267.86426,149.85059 267.81689,142.56543 270.24023,138.3291 270.24023,138.3291 271.86572,134.78516 274.61621,133.73828 Z" />
        <circle
           style="fill:#5b92e5;fill-opacity:1"
           id="circle944"
           r="3.3046875"
           cy="151.91357"
           cx="270.0249" />
      </g>
      <g
         id="g956"
         style="fill:#5b92e5;fill-opacity:1">
        <g
           id="g950"
           style="fill:#5b92e5;fill-opacity:1">
          <path
             style="fill:#5b92e5;fill-opacity:1"
             inkscape:connector-curvature="0"
             id="path948"
             d="M 296.25488,167.38672 C 279.81641,169.88379 264.6582,174.30811 253.57373,179.84521 242.06689,185.59424 236.2207,191.99072 237.11133,197.85742 V 197.85791 C 237.47949,200.28076 238.95313,202.45703 241.48877,204.3252 251.15674,211.44141 275.72998,213.47656 302.63574,209.38965 319.07422,206.8916 334.23242,202.46777 345.31641,196.93066 356.82324,191.18213 362.66992,184.78516 361.7793,178.91895 360.8877,173.05127 353.40527,168.68018 340.70996,166.6084 328.48145,164.6123 312.69336,164.88916 296.25488,167.38672 Z M 239.59619,196.69971 C 239.59619,187.81104 261.89453,175.20752 296.64111,169.92969 332.40527,164.49609 357.88086,170.39014 359.23633,179.3042 360.58984,188.21826 338.01367,201.41309 302.25,206.8457 276.38477,210.77637 252.02637,208.8877 243.01416,202.25293 241.04639,200.80566 239.91602,199.19629 239.6543,197.47168 239.61621,197.21777 239.59619,196.96045 239.59619,196.69971 Z" />
        </g>
        <path
           style="fill:#5b92e5;fill-opacity:1"
           inkscape:connector-curvature="0"
           id="path952"
           d="M 276.45459,208.41992 C 276.45459,208.41992 257.23096,208.54395 247.51807,204.34766 243.55762,202.63672 240.8125,200.57666 240.06982,198.18506 239.30273,195.71143 240.60645,192.93359 240.60645,192.93359 L 237.33691,195.13086 C 237.33691,195.13086 239.47168,203.69629 248.42969,207.45605 259.00391,211.89258 276.66943,211.63477 276.66943,211.63477 Z" />
        <circle
           style="fill:#5b92e5;fill-opacity:1"
           id="circle954"
           r="3.081543"
           cy="209.94629"
           cx="278.30371" />
      </g>
      <g
         id="g966"
         style="fill:#5b92e5;fill-opacity:1">
        <g
           id="g960"
           style="fill:#5b92e5;fill-opacity:1">
          <path
             style="fill:#5b92e5;fill-opacity:1"
             inkscape:connector-curvature="0"
             id="path958"
             d="M 259.11377,164.78223 V 164.78223 C 256.82617,168.66211 259.11084,174.79736 265.55029,182.06104 271.729,189.02979 281.05713,196.3623 291.81885,202.70801 302.5791,209.05566 313.51074,213.67383 322.59668,215.70996 332.06836,217.83008 338.54492,216.86328 340.83398,212.98242 343.12207,209.10254 340.83496,202.96582 334.39648,195.70312 328.21875,188.73535 318.88965,181.40234 308.12891,175.05518 297.36865,168.70752 286.43799,164.0918 277.35156,162.05566 267.87988,159.93311 261.40234,160.90234 259.11377,164.78223 Z M 307.04004,176.90137 C 330.37695,190.66602 342.39941,206.10742 338.9873,211.89258 335.57422,217.67969 316.24414,214.62793 292.90674,200.86279 272.18945,188.64355 260.38916,175.10254 260.38916,168.16797 260.38916,167.29199 260.57666,166.52051 260.96045,165.87061 264.37354,160.08496 283.7041,163.13672 307.04004,176.90137 Z" />
        </g>
        <path
           style="fill:#5b92e5;fill-opacity:1"
           inkscape:connector-curvature="0"
           id="path962"
           d="M 312.41113,210.61719 C 312.41113,210.61719 323.77539,214.04687 331.32715,214.04687 334.45605,214.04687 336.79004,212.69434 337.75781,211.68848 338.16602,211.2627 338.13281,210.61719 338.13281,210.61719 L 342.09766,210.72461 C 342.09766,210.72461 341.42578,216.72559 332.88086,216.72559 326.07617,216.99023 311.76758,211.90234 311.76758,211.90234 Z" />
        <circle
           style="fill:#5b92e5;fill-opacity:1"
           id="circle964"
           r="3.340332"
           cy="209.0625"
           cx="340.07959" />
      </g>
      <circle
         style="fill:#5b92e5;fill-opacity:1"
         id="circle968"
         r="4.1660156"
         cy="198.95996"
         cx="309.63477" />
    </g>
  </g>
</svg>
