<?xml version="1.0" encoding="UTF-8" standalone="no"?>
<!-- Created with Inkscape (http://www.inkscape.org/) -->

<svg
   xmlns:dc="http://purl.org/dc/elements/1.1/"
   xmlns:cc="http://creativecommons.org/ns#"
   xmlns:rdf="http://www.w3.org/1999/02/22-rdf-syntax-ns#"
   xmlns:svg="http://www.w3.org/2000/svg"
   xmlns="http://www.w3.org/2000/svg"
   xmlns:sodipodi="http://sodipodi.sourceforge.net/DTD/sodipodi-0.dtd"
   xmlns:inkscape="http://www.inkscape.org/namespaces/inkscape"
   width="256"
   height="256"
   viewBox="0 0 67.733331 67.733331"
   version="1.1"
   id="svg4667"
   inkscape:version="0.92.2 5c3e80d, 2017-08-06"
   sodipodi:docname="kth-logo.svg">
  <defs
     id="defs4661" />
  <sodipodi:namedview
     id="base"
     pagecolor="#ffffff"
     bordercolor="#666666"
     borderopacity="1.0"
     inkscape:pageopacity="0.0"
     inkscape:pageshadow="2"
     inkscape:zoom="1.979899"
     inkscape:cx="138.22449"
     inkscape:cy="124.1701"
     inkscape:document-units="px"
     inkscape:current-layer="layer1"
     showgrid="false"
     units="px"
     inkscape:window-width="1366"
     inkscape:window-height="768"
     inkscape:window-x="0"
     inkscape:window-y="0"
     inkscape:window-maximized="0" />
  <metadata
     id="metadata4664">
    <rdf:RDF>
      <cc:Work
         rdf:about="">
        <dc:format>image/svg+xml</dc:format>
        <dc:type
           rdf:resource="http://purl.org/dc/dcmitype/StillImage" />
        <dc:title></dc:title>
      </cc:Work>
    </rdf:RDF>
  </metadata>
  <g
     inkscape:label="Layer 1"
     inkscape:groupmode="layer"
     id="layer1"
     transform="translate(0,-229.2667)">
    <g
       transform="matrix(1.0658176,0,0,1.0658176,-3.3722729,226.51369)"
       id="g104"
       style="fill:#2258a5;fill-opacity:1">
      <path
         style="fill:#2258a5;fill-opacity:1"
         inkscape:connector-curvature="0"
         id="path4"
         d="M 36.33,63.646 C 36.939,62.954 37.594,62.218 38.048,61.764 38.949,60.863 39.881,60.871 39.881,60.871 39.881,60.871 38.817,60.349 37.695,61.47 37.394,61.772 36.718,62.532 36.027,63.308 35.777,63.027 35.53,62.749 35.301,62.496 35.554,62.217 35.792,61.963 35.991,61.765 36.892,60.864 37.824,60.872 37.824,60.872 37.824,60.872 36.76,60.35 35.64,61.471 35.498,61.614 35.27,61.86 34.999,62.16 34.728,61.859 34.5,61.613 34.358,61.471 33.237,60.35 32.173,60.872 32.173,60.872 32.173,60.872 33.104,60.863 34.006,61.765 34.205,61.963 34.442,62.217 34.696,62.496 34.467,62.75 34.22,63.027 33.97,63.308 33.278,62.533 32.602,61.772 32.301,61.47 31.18,60.349 30.117,60.871 30.117,60.871 30.117,60.871 31.047,60.862 31.95,61.764 32.405,62.22 33.058,62.953 33.668,63.646 33.092,64.29 32.543,64.899 32.23,65.211 31.48,65.962 30.606,66.019 30.606,66.019 30.606,66.019 31.546,66.569 32.828,65.259 33.065,65.017 33.491,64.534 33.97,63.988 34.231,64.284 34.477,64.563 34.683,64.794 34.529,64.96 34.392,65.105 34.286,65.21 33.536,65.961 32.661,66.019 32.661,66.019 32.661,66.019 33.601,66.568 34.885,65.258 34.919,65.223 34.957,65.183 34.999,65.14 35.04,65.183 35.079,65.224 35.113,65.258 36.394,66.568 37.335,66.019 37.335,66.019 37.335,66.019 36.46,65.961 35.711,65.21 35.604,65.104 35.467,64.96 35.313,64.794 35.52,64.564 35.765,64.284 36.026,63.988 36.506,64.534 36.93,65.016 37.169,65.259 38.45,66.569 39.391,66.019 39.391,66.019 39.391,66.019 38.517,65.962 37.767,65.211 37.455,64.899 36.905,64.29 36.33,63.646 Z M 35,64.452 C 34.774,64.205 34.527,63.93 34.274,63.646 34.514,63.373 34.761,63.094 35,62.828 35.239,63.095 35.486,63.373 35.726,63.646 35.472,63.93 35.225,64.205 35,64.452 Z" />
      <path
         style="fill:#2258a5;fill-opacity:1"
         inkscape:connector-curvature="0"
         id="path6"
         d="M 11.457,24.919 C 11.595,25.361 11.999,25.636 12.512,25.636 12.661,25.636 12.812,25.612 12.962,25.566 12.98,25.596 13.001,25.627 13.031,25.668 13.109,25.774 13.2,25.863 13.302,25.932 13.335,25.954 13.372,25.965 13.409,25.965 13.47,25.965 13.529,25.936 13.566,25.882 13.626,25.796 13.604,25.677 13.517,25.618 13.451,25.573 13.39,25.513 13.337,25.442 13.325,25.426 13.318,25.416 13.31,25.405 13.51,25.283 13.674,25.123 13.774,24.933 13.901,24.692 13.925,24.429 13.845,24.171 13.768,23.925 13.568,23.849 13.461,23.842 13.448,23.841 13.436,23.847 13.423,23.849 13.41,23.787 13.395,23.725 13.376,23.664 13.192,23.079 12.662,22.608 12.26,22.643 12.214,22.604 12.135,22.555 12.038,22.587 11.94,22.616 11.903,22.695 11.884,22.76 11.784,22.817 11.696,22.914 11.627,23.045 11.456,23.371 11.425,23.838 11.549,24.235 11.568,24.296 11.591,24.356 11.616,24.414 11.605,24.419 11.593,24.421 11.583,24.429 11.5,24.495 11.38,24.673 11.457,24.919 Z M 13.503,24.375 C 13.523,24.505 13.501,24.634 13.437,24.755 13.332,24.956 13.119,25.119 12.855,25.201 12.739,25.237 12.624,25.256 12.511,25.256 12.201,25.256 11.962,25.121 11.852,24.891 11.974,24.922 12.1,24.928 12.177,24.928 12.361,24.928 12.556,24.898 12.742,24.84 13.057,24.741 13.341,24.565 13.503,24.375 Z M 11.963,23.222 C 12.009,23.134 12.057,23.093 12.089,23.083 12.125,23.071 12.153,23.053 12.174,23.03 12.204,23.036 12.238,23.035 12.275,23.024 12.427,22.978 12.861,23.297 13.013,23.778 13.063,23.937 13.083,24.099 13.077,24.254 12.971,24.334 12.82,24.419 12.63,24.479 12.481,24.525 12.325,24.55 12.178,24.55 12.162,24.55 12.149,24.549 12.133,24.548 12.04,24.425 11.962,24.283 11.912,24.124 11.804,23.776 11.863,23.413 11.963,23.222 Z" />
      <path
         style="fill:#2258a5;fill-opacity:1"
         inkscape:connector-curvature="0"
         id="path8"
         d="M 15.84,28.062 C 16.097,28.057 16.228,27.886 16.265,27.786 16.269,27.774 16.267,27.762 16.269,27.75 16.317,27.754 16.366,27.756 16.416,27.756 16.43,27.756 16.444,27.756 16.458,27.756 16.874,27.747 17.307,27.569 17.561,27.303 17.664,27.196 17.728,27.081 17.749,26.968 17.798,26.935 17.866,26.875 17.864,26.774 17.864,26.671 17.798,26.612 17.741,26.576 17.644,26.181 17.039,25.832 16.416,25.845 16.352,25.846 16.288,25.851 16.226,25.86 16.224,25.847 16.226,25.834 16.221,25.821 16.181,25.725 16.05,25.564 15.787,25.564 V 25.564 C 15.478,25.571 15.202,25.713 15.01,25.964 14.902,26.106 14.828,26.278 14.786,26.465 14.774,26.461 14.762,26.457 14.744,26.452 14.661,26.425 14.585,26.387 14.517,26.337 14.432,26.275 14.314,26.293 14.251,26.378 14.189,26.462 14.207,26.582 14.292,26.644 14.393,26.718 14.506,26.776 14.628,26.815 14.676,26.831 14.712,26.84 14.746,26.848 14.765,27.555 15.212,28.067 15.815,28.067 15.815,28.062 15.838,28.062 15.84,28.062 Z M 16.424,26.222 C 16.924,26.204 17.37,26.522 17.374,26.675 17.374,26.715 17.384,26.748 17.399,26.776 17.384,26.804 17.376,26.838 17.378,26.877 17.378,26.908 17.355,26.967 17.286,27.04 17.137,27.196 16.811,27.368 16.45,27.376 16.285,27.38 16.123,27.355 15.978,27.307 15.93,27.182 15.889,27.013 15.884,26.81 15.88,26.613 15.912,26.445 15.952,26.319 16.095,26.262 16.255,26.226 16.424,26.222 Z M 15.125,26.827 C 15.119,26.581 15.185,26.356 15.311,26.192 15.385,26.096 15.508,25.984 15.701,25.95 15.576,26.164 15.498,26.494 15.505,26.819 15.512,27.135 15.6,27.465 15.743,27.678 15.39,27.636 15.134,27.291 15.125,26.827 Z" />
      <path
         style="fill:#2258a5;fill-opacity:1"
         inkscape:connector-curvature="0"
         id="path10"
         d="M 13.788,37.251 C 13.824,37.107 13.822,36.977 13.785,36.867 13.812,36.814 13.841,36.726 13.788,36.638 13.737,36.552 13.651,36.533 13.583,36.529 13.304,36.235 12.597,36.236 12.069,36.552 12.014,36.585 11.961,36.621 11.911,36.659 11.903,36.649 11.897,36.636 11.887,36.628 11.869,36.614 11.776,36.547 11.635,36.547 11.549,36.547 11.464,36.572 11.384,36.62 11.119,36.78 10.95,37.04 10.908,37.353 10.884,37.53 10.907,37.715 10.963,37.899 10.95,37.901 10.938,37.905 10.92,37.909 10.834,37.927 10.749,37.93 10.667,37.922 10.563,37.909 10.468,37.984 10.456,38.089 10.444,38.193 10.518,38.287 10.623,38.299 10.666,38.304 10.71,38.307 10.753,38.307 10.834,38.307 10.917,38.298 10.999,38.281 11.048,38.27 11.084,38.261 11.118,38.252 11.368,38.664 11.759,38.91 12.165,38.91 12.345,38.91 12.516,38.861 12.674,38.765 12.894,38.633 12.923,38.42 12.904,38.316 12.902,38.303 12.894,38.294 12.89,38.283 12.946,38.256 13.003,38.226 13.057,38.193 13.412,37.979 13.699,37.608 13.788,37.251 Z M 12.265,36.879 C 12.698,36.619 13.236,36.669 13.313,36.797 13.333,36.833 13.359,36.858 13.387,36.875 13.388,36.906 13.397,36.939 13.418,36.973 13.434,37 13.443,37.063 13.418,37.161 13.367,37.37 13.169,37.681 12.858,37.868 12.716,37.954 12.565,38.013 12.415,38.042 12.311,37.958 12.192,37.831 12.087,37.659 11.984,37.487 11.928,37.323 11.901,37.192 11.999,37.072 12.122,36.965 12.265,36.879 Z M 11.437,38.049 C 11.31,37.838 11.255,37.61 11.283,37.404 11.3,37.283 11.352,37.123 11.502,37 11.499,37.249 11.595,37.574 11.763,37.854 11.934,38.136 12.176,38.369 12.396,38.48 12.072,38.619 11.668,38.434 11.437,38.049 Z" />
      <path
         style="fill:#2258a5;fill-opacity:1"
         inkscape:connector-curvature="0"
         id="path12"
         d="M 7.156,37.648 C 7.202,37.692 7.251,37.734 7.301,37.771 7.295,37.781 7.285,37.789 7.28,37.8 7.24,37.899 7.223,38.113 7.41,38.289 7.598,38.466 7.832,38.56 8.09,38.56 V 38.56 C 8.426,38.56 8.772,38.397 9.039,38.114 9.07,38.132 9.103,38.148 9.148,38.168 9.264,38.221 9.386,38.254 9.512,38.266 9.518,38.266 9.525,38.267 9.531,38.267 9.628,38.267 9.711,38.194 9.72,38.096 9.73,37.991 9.653,37.899 9.549,37.888 9.465,37.88 9.382,37.858 9.304,37.823 9.289,37.815 9.278,37.81 9.267,37.805 9.381,37.6 9.442,37.379 9.435,37.164 9.427,36.893 9.318,36.65 9.122,36.467 9.005,36.354 8.882,36.33 8.8,36.33 8.71,36.33 8.646,36.357 8.629,36.366 8.617,36.372 8.609,36.383 8.598,36.392 8.556,36.344 8.513,36.297 8.466,36.253 8.02,35.836 7.336,35.685 6.994,35.912 6.934,35.901 6.841,35.896 6.771,35.973 6.701,36.046 6.708,36.134 6.723,36.198 6.664,36.298 6.635,36.425 6.64,36.574 6.65,36.943 6.854,37.365 7.156,37.648 Z M 9.057,37.176 C 9.064,37.403 8.959,37.649 8.769,37.849 8.572,38.059 8.325,38.18 8.091,38.18 V 38.18 C 7.963,38.18 7.844,38.143 7.743,38.072 7.983,38.009 8.269,37.829 8.493,37.591 8.718,37.351 8.878,37.058 8.927,36.814 9.008,36.915 9.052,37.039 9.057,37.176 Z M 7.059,36.381 C 7.085,36.354 7.101,36.323 7.109,36.293 7.139,36.284 7.168,36.267 7.193,36.237 7.301,36.124 7.838,36.187 8.205,36.531 8.327,36.646 8.425,36.777 8.495,36.914 8.441,37.036 8.352,37.185 8.216,37.33 8.08,37.475 7.935,37.572 7.81,37.635 7.672,37.574 7.538,37.487 7.417,37.373 7.152,37.125 7.025,36.781 7.019,36.564 7.016,36.465 7.037,36.405 7.059,36.381 Z" />
      <path
         style="fill:#2258a5;fill-opacity:1"
         inkscape:connector-curvature="0"
         id="path14"
         d="M 15.413,47.896 C 15.374,47.752 15.31,47.638 15.225,47.561 15.222,47.501 15.206,47.412 15.12,47.364 15.032,47.309 14.946,47.335 14.886,47.365 14.499,47.242 13.881,47.585 13.572,48.118 13.54,48.174 13.511,48.23 13.486,48.287 13.474,48.282 13.463,48.273 13.449,48.271 13.439,48.27 13.408,48.268 13.399,48.268 13.238,48.268 13.09,48.359 13.004,48.509 12.755,48.939 12.871,49.458 13.254,49.831 13.245,49.839 13.234,49.848 13.22,49.86 13.154,49.917 13.083,49.961 13.005,49.993 12.908,50.034 12.861,50.144 12.901,50.241 12.931,50.315 13.002,50.359 13.077,50.359 13.101,50.359 13.126,50.354 13.149,50.344 13.265,50.297 13.373,50.229 13.469,50.146 13.507,50.114 13.534,50.088 13.559,50.063 13.786,50.192 14.032,50.262 14.269,50.262 14.658,50.262 14.986,50.078 15.168,49.76 15.297,49.538 15.219,49.338 15.153,49.254 15.145,49.244 15.133,49.239 15.124,49.233 15.16,49.181 15.195,49.129 15.227,49.073 15.436,48.715 15.508,48.254 15.413,47.896 Z M 13.899,48.308 C 14.152,47.871 14.647,47.656 14.778,47.731 14.813,47.752 14.847,47.76 14.88,47.762 14.897,47.788 14.92,47.813 14.954,47.832 14.98,47.848 15.019,47.898 15.044,47.995 15.101,48.205 15.079,48.572 14.897,48.885 14.815,49.026 14.713,49.149 14.6,49.246 14.465,49.224 14.293,49.174 14.121,49.074 13.948,48.974 13.82,48.857 13.733,48.758 13.761,48.607 13.816,48.453 13.899,48.308 Z M 13.741,49.732 C 13.393,49.531 13.143,49.151 13.29,48.784 13.407,49.004 13.645,49.238 13.931,49.404 14.21,49.564 14.54,49.66 14.787,49.648 14.574,49.922 14.13,49.957 13.741,49.732 Z" />
      <path
         style="fill:#2258a5;fill-opacity:1"
         inkscape:connector-curvature="0"
         id="path16"
         d="M 12.25,50.555 C 12.207,50.459 12.094,50.416 11.999,50.459 11.924,50.493 11.841,50.514 11.754,50.521 11.735,50.523 11.723,50.524 11.71,50.525 11.71,50.334 11.678,50.149 11.603,49.986 11.471,49.701 11.233,49.501 10.934,49.425 10.715,49.37 10.523,49.482 10.454,49.581 10.446,49.592 10.445,49.604 10.44,49.616 10.38,49.595 10.319,49.576 10.257,49.56 9.664,49.413 8.993,49.616 8.806,49.979 8.748,50 8.663,50.041 8.641,50.143 8.616,50.241 8.663,50.313 8.708,50.363 8.704,50.479 8.741,50.604 8.817,50.732 9.006,51.047 9.389,51.317 9.792,51.418 9.854,51.435 9.917,51.444 9.979,51.454 9.978,51.467 9.973,51.479 9.974,51.491 9.988,51.596 10.078,51.792 10.327,51.854 10.409,51.875 10.492,51.885 10.573,51.885 V 51.885 C 11.078,51.885 11.515,51.492 11.664,50.906 11.665,50.906 11.666,50.907 11.668,50.907 11.702,50.907 11.739,50.904 11.787,50.9 11.916,50.888 12.04,50.857 12.154,50.806 12.25,50.764 12.293,50.65 12.25,50.555 Z M 9.144,50.536 C 9.093,50.451 9.082,50.389 9.09,50.359 9.099,50.321 9.098,50.287 9.09,50.256 9.111,50.232 9.128,50.203 9.136,50.165 9.175,50.013 9.676,49.808 10.163,49.929 10.327,49.97 10.475,50.041 10.603,50.128 10.615,50.26 10.608,50.431 10.561,50.622 10.512,50.818 10.434,50.976 10.361,51.086 10.208,51.101 10.046,51.09 9.884,51.048 9.534,50.961 9.255,50.722 9.144,50.536 Z M 11.299,50.807 C 11.195,51.225 10.904,51.504 10.575,51.504 10.554,51.504 10.532,51.504 10.51,51.5 10.698,51.32 10.857,51.01 10.931,50.715 11.009,50.401 11.007,50.061 10.931,49.823 11.11,49.896 11.207,50.035 11.259,50.145 11.345,50.334 11.359,50.568 11.299,50.807 Z" />
      <path
         style="fill:#2258a5;fill-opacity:1"
         inkscape:connector-curvature="0"
         id="path18"
         d="M 21.471,58.938 C 21.477,58.938 21.486,58.938 21.487,58.938 22.189,58.938 22.722,58.485 22.728,57.887 22.732,57.629 22.566,57.492 22.467,57.452 22.455,57.448 22.444,57.45 22.432,57.447 22.439,57.385 22.444,57.322 22.445,57.258 22.45,56.842 22.288,56.403 22.031,56.139 21.927,56.034 21.816,55.965 21.703,55.94 21.672,55.889 21.613,55.818 21.51,55.818 21.407,55.815 21.349,55.879 21.311,55.933 20.914,56.016 20.541,56.617 20.532,57.231 20.531,57.295 20.534,57.36 20.54,57.422 20.527,57.424 20.513,57.422 20.5,57.426 20.4,57.463 20.23,57.596 20.229,57.852 20.225,58.161 20.357,58.442 20.601,58.642 20.739,58.756 20.908,58.834 21.093,58.883 21.089,58.895 21.085,58.907 21.078,58.924 21.048,59.008 21.007,59.082 20.956,59.145 20.89,59.227 20.903,59.346 20.985,59.413 21.021,59.441 21.062,59.456 21.104,59.456 21.16,59.456 21.215,59.431 21.252,59.384 21.33,59.288 21.392,59.177 21.436,59.054 21.451,59.006 21.461,58.971 21.471,58.938 Z M 21.396,56.303 V 56.303 C 21.437,56.307 21.47,56.296 21.499,56.281 21.526,56.298 21.56,56.307 21.6,56.307 21.631,56.307 21.688,56.332 21.758,56.405 21.909,56.559 22.069,56.891 22.064,57.253 22.062,57.421 22.027,57.579 21.973,57.724 21.849,57.765 21.681,57.8 21.48,57.8 V 57.8 C 21.282,57.796 21.115,57.758 20.99,57.713 20.939,57.567 20.908,57.405 20.91,57.237 20.918,56.733 21.244,56.303 21.396,56.303 Z M 20.612,57.95 C 20.822,58.085 21.149,58.172 21.497,58.179 21.818,58.179 22.134,58.1 22.341,57.974 22.282,58.358 21.881,58.558 21.487,58.558 H 21.469 C 21.223,58.555 21,58.481 20.841,58.348 20.746,58.271 20.637,58.143 20.612,57.95 Z" />
      <path
         style="fill:#2258a5;fill-opacity:1"
         inkscape:connector-curvature="0"
         id="path20"
         d="M 20.363,60.186 C 20.313,60.252 20.251,60.312 20.179,60.36 20.164,60.37 20.154,60.377 20.143,60.384 19.933,60.007 19.581,59.77 19.191,59.77 19.103,59.77 19.014,59.783 18.927,59.806 18.679,59.873 18.594,60.069 18.583,60.176 18.582,60.19 18.587,60.201 18.588,60.215 18.526,60.225 18.463,60.238 18.401,60.255 17.81,60.417 17.323,60.924 17.339,61.332 17.299,61.376 17.247,61.453 17.276,61.555 17.302,61.651 17.379,61.692 17.442,61.711 17.496,61.815 17.59,61.906 17.719,61.981 17.924,62.098 18.19,62.161 18.46,62.161 18.61,62.161 18.762,62.141 18.905,62.102 18.967,62.084 19.027,62.065 19.086,62.043 19.091,62.053 19.092,62.064 19.1,62.075 19.156,62.15 19.281,62.238 19.448,62.238 19.492,62.238 19.539,62.232 19.585,62.22 19.845,62.15 20.053,61.989 20.187,61.753 20.349,61.472 20.385,61.102 20.288,60.739 20.319,60.721 20.35,60.702 20.392,60.674 20.498,60.603 20.591,60.515 20.666,60.414 20.729,60.329 20.712,60.211 20.629,60.147 20.545,60.085 20.426,60.102 20.363,60.186 Z M 18.807,61.734 C 18.458,61.83 18.097,61.757 17.91,61.65 17.823,61.599 17.783,61.55 17.776,61.522 17.767,61.484 17.749,61.454 17.727,61.431 17.734,61.4 17.734,61.367 17.723,61.329 17.682,61.177 18.018,60.753 18.504,60.62 18.665,60.576 18.828,60.561 18.982,60.573 19.058,60.682 19.137,60.837 19.19,61.029 19.242,61.221 19.252,61.393 19.242,61.526 19.114,61.617 18.969,61.69 18.807,61.734 Z M 19.858,61.564 C 19.79,61.682 19.693,61.771 19.572,61.822 19.643,61.584 19.639,61.245 19.555,60.931 19.474,60.638 19.309,60.331 19.118,60.154 19.473,60.111 19.802,60.392 19.921,60.831 19.994,61.1 19.972,61.367 19.858,61.564 Z" />
      <path
         style="fill:#2258a5;fill-opacity:1"
         inkscape:connector-curvature="0"
         id="path22"
         d="M 31.83,64.039 C 31.958,64.039 32.077,64.031 32.105,63.939 32.109,63.925 32.111,63.912 32.11,63.898 32.112,63.892 32.113,63.884 32.114,63.877 32.121,63.789 32.126,63.691 30.868,63.461 30.88,63 30.854,62.075 30.295,61.715 30.179,61.641 30.061,61.604 29.947,61.604 29.628,61.604 29.46,61.872 29.348,62.048 29.33,62.077 29.306,62.115 29.285,62.145 29.23,62.102 29.204,61.994 29.157,61.659 L 29.126,61.444 C 29.074,61.092 28.966,60.359 28.218,60.147 28.124,60.121 28.034,60.107 27.951,60.107 27.413,60.107 27.262,60.614 27.171,60.916 27.138,61.024 27.084,61.206 27.028,61.238 26.933,61.16 26.935,60.669 26.936,60.459 V 60.307 C 26.932,59.31 26.467,58.738 25.661,58.738 25.578,58.738 25.491,58.744 25.415,58.755 25.176,58.776 24.99,58.865 24.861,59.024 24.615,59.329 24.669,59.768 24.717,60.157 24.733,60.29 24.758,60.482 24.746,60.571 24.717,60.581 24.689,60.585 24.664,60.585 24.532,60.585 24.389,60.439 24.225,60.138 23.926,59.601 23.453,59.293 22.926,59.293 22.41,59.293 21.917,59.589 21.574,60.105 21.23,60.623 21.179,61.22 21.439,61.705 21.695,62.182 22.217,62.467 22.835,62.467 22.885,62.467 22.935,62.465 22.984,62.463 23.037,62.459 23.088,62.457 23.138,62.457 23.519,62.457 23.659,62.561 23.737,62.728 23.666,62.786 23.499,62.867 23.382,62.921 23.03,63.09 22.632,63.28 22.532,63.662 22.475,63.878 22.53,64.108 22.702,64.354 23.158,64.947 23.675,65.071 24.029,65.071 24.449,65.071 24.878,64.891 25.236,64.563 25.284,64.519 25.333,64.473 25.382,64.427 25.583,64.237 25.859,63.977 26.017,63.977 26.036,63.977 26.061,63.981 26.094,63.998 26.103,64.047 26.04,64.201 26.002,64.294 25.902,64.536 25.778,64.838 25.914,65.135 26.005,65.336 26.19,65.482 26.479,65.58 26.649,65.638 26.817,65.667 26.979,65.667 27.594,65.667 27.972,65.254 28.154,65.057 L 28.183,65.026 C 28.245,64.961 28.301,64.897 28.352,64.838 28.531,64.637 28.628,64.532 28.731,64.532 28.732,64.532 28.733,64.532 28.734,64.532 28.741,64.567 28.749,64.613 28.754,64.649 28.788,64.875 28.86,65.424 29.528,65.356 30.067,65.299 30.489,64.822 30.786,63.945 31.275,64.006 31.625,64.039 31.83,64.039 Z M 29.467,64.785 C 29.411,64.791 29.372,64.781 29.371,64.781 29.345,64.755 29.326,64.627 29.315,64.558 29.287,64.367 29.238,64.046 28.916,63.978 28.853,63.964 28.79,63.957 28.729,63.957 28.365,63.957 28.15,64.199 27.924,64.455 27.875,64.511 27.823,64.569 27.765,64.631 L 27.732,64.668 C 27.576,64.836 27.341,65.094 26.977,65.094 26.877,65.094 26.77,65.074 26.66,65.037 26.537,64.994 26.452,64.941 26.431,64.896 26.398,64.822 26.47,64.647 26.527,64.506 26.631,64.252 26.805,63.827 26.437,63.548 26.309,63.451 26.167,63.402 26.016,63.402 25.631,63.402 25.305,63.71 24.99,64.006 24.944,64.051 24.897,64.094 24.851,64.137 24.599,64.367 24.307,64.495 24.029,64.495 23.706,64.495 23.403,64.324 23.162,64.01 23.126,63.959 23.067,63.862 23.083,63.801 23.117,63.674 23.425,63.526 23.628,63.429 23.98,63.26 24.461,63.03 24.29,62.569 24.032,61.88 23.359,61.88 23.138,61.88 23.077,61.88 23.014,61.882 22.947,61.886 22.482,61.919 22.113,61.749 21.942,61.429 21.783,61.134 21.824,60.755 22.049,60.415 22.285,60.061 22.605,59.856 22.926,59.856 23.245,59.856 23.529,60.053 23.726,60.407 23.899,60.725 24.186,61.149 24.665,61.149 24.778,61.149 24.894,61.124 25.009,61.076 25.386,60.921 25.332,60.475 25.283,60.081 25.252,59.833 25.21,59.494 25.304,59.379 25.314,59.366 25.345,59.329 25.478,59.317 25.542,59.307 25.603,59.303 25.661,59.303 25.852,59.303 26.361,59.303 26.366,60.305 V 60.452 C 26.364,60.884 26.362,61.373 26.623,61.635 26.745,61.758 26.919,61.814 27.091,61.801 27.509,61.768 27.629,61.367 27.716,61.076 27.845,60.646 27.895,60.644 28.062,60.691 28.426,60.795 28.506,61.144 28.562,61.523 L 28.593,61.734 C 28.654,62.165 28.716,62.611 29.231,62.726 29.261,62.732 29.291,62.735 29.321,62.735 V 62.735 C 29.587,62.735 29.728,62.511 29.831,62.347 29.869,62.286 29.934,62.185 29.943,62.169 29.943,62.169 29.958,62.172 29.988,62.19 30.11,62.268 30.301,62.526 30.298,63.356 30.16,63.333 30.015,63.309 29.855,63.284 27.751,62.915 25.088,61.862 24.212,61.516 23.939,61.409 23.939,61.409 23.912,61.409 23.884,61.409 23.859,61.421 23.841,61.44 V 61.44 C 23.835,61.448 23.829,61.456 23.825,61.465 23.821,61.473 23.818,61.484 23.817,61.493 23.816,61.508 23.817,61.521 23.821,61.535 23.882,61.713 27.326,63.353 29.759,63.783 29.919,63.808 30.069,63.831 30.212,63.852 29.951,64.579 29.667,64.764 29.467,64.785 Z" />
      <path
         style="fill:#2258a5;fill-opacity:1"
         inkscape:connector-curvature="0"
         id="path24"
         d="M 14.755,24.833 14.791,24.888 14.796,24.92 H 14.885 C 14.926,24.92 14.97,24.92 15.242,24.624 15.595,24.814 16.072,25.031 16.52,25.031 16.713,25.031 16.885,24.989 17.033,24.906 17.192,24.813 17.291,24.691 17.33,24.543 17.393,24.299 17.264,24.083 17.17,23.924 17.154,23.897 17.133,23.861 17.116,23.831 17.196,23.807 17.364,23.868 17.559,23.934 L 17.795,24.013 C 17.961,24.069 18.211,24.153 18.486,24.153 18.826,24.153 19.11,24.027 19.323,23.786 19.486,23.617 19.566,23.435 19.562,23.246 19.555,22.932 19.317,22.706 19.127,22.525 19.055,22.457 18.938,22.345 18.912,22.289 18.919,22.28 18.929,22.277 18.959,22.277 19.128,22.277 19.421,22.426 19.656,22.546 L 19.76,22.599 C 20.751,23.071 21.531,22.802 21.805,21.95 21.888,21.722 21.886,21.513 21.798,21.328 21.633,20.982 21.233,20.844 20.881,20.722 20.76,20.68 20.586,20.62 20.515,20.574 20.531,20.457 20.605,20.305 21.108,20.303 21.691,20.284 22.166,20.026 22.409,19.594 22.667,19.135 22.635,18.552 22.319,17.996 22.027,17.481 21.536,17.173 21.007,17.173 20.411,17.173 19.893,17.551 19.625,18.176 19.413,18.638 19.259,18.732 19.08,18.733 19.061,18.642 19.063,18.462 19.064,18.335 19.067,17.962 19.07,17.541 18.813,17.281 18.724,17.191 18.564,17.085 18.305,17.085 18.243,17.085 18.178,17.091 18.1,17.105 17.556,17.217 17.145,17.484 16.912,17.877 16.683,18.261 16.642,18.728 16.792,19.222 16.812,19.294 16.834,19.369 16.857,19.445 16.975,19.832 17.061,20.157 16.919,20.22 16.872,20.207 16.763,20.081 16.698,20.005 16.523,19.803 16.305,19.55 15.966,19.55 15.759,19.55 15.559,19.645 15.346,19.846 14.682,20.516 14.96,21.247 15.078,21.559 L 15.093,21.6 C 15.119,21.67 15.145,21.736 15.17,21.798 15.288,22.099 15.315,22.196 15.272,22.281 15.239,22.272 15.198,22.258 15.167,22.247 15.053,22.209 14.923,22.165 14.781,22.165 14.626,22.165 14.345,22.223 14.195,22.606 13.994,23.112 14.238,23.711 14.914,24.388 14.706,24.725 14.736,24.792 14.755,24.833 Z M 14.725,22.815 C 14.75,22.75 14.782,22.739 14.781,22.734 14.831,22.734 14.913,22.762 14.987,22.786 15.093,22.822 15.203,22.858 15.321,22.858 15.505,22.858 15.617,22.768 15.681,22.691 15.986,22.31 15.841,21.942 15.701,21.587 15.678,21.528 15.654,21.466 15.629,21.4 L 15.612,21.356 C 15.477,21.001 15.378,20.623 15.745,20.252 15.873,20.131 15.943,20.118 15.967,20.118 16.046,20.118 16.169,20.261 16.268,20.375 16.426,20.558 16.622,20.786 16.915,20.786 16.994,20.786 17.073,20.769 17.144,20.737 17.768,20.476 17.549,19.754 17.404,19.276 17.383,19.205 17.361,19.134 17.341,19.06 17.237,18.717 17.259,18.408 17.403,18.165 17.553,17.914 17.835,17.738 18.209,17.661 18.245,17.655 18.277,17.651 18.307,17.651 18.383,17.651 18.404,17.672 18.411,17.679 18.501,17.77 18.498,18.105 18.497,18.327 18.494,18.717 18.49,19.25 18.967,19.294 19.622,19.359 19.931,18.878 20.149,18.404 20.328,17.987 20.649,17.739 21.01,17.739 21.331,17.739 21.636,17.939 21.826,18.273 22.04,18.651 22.073,19.03 21.914,19.311 21.768,19.569 21.477,19.718 21.1,19.73 20.193,19.733 19.971,20.194 19.944,20.583 19.922,20.99 20.352,21.138 20.697,21.257 20.919,21.334 21.223,21.439 21.285,21.569 21.293,21.584 21.315,21.631 21.268,21.761 21.123,22.211 20.859,22.262 20.673,22.262 20.487,22.262 20.258,22.2 20.013,22.083 L 19.916,22.034 C 19.612,21.879 19.266,21.704 18.96,21.704 18.702,21.704 18.5,21.827 18.389,22.058 18.216,22.439 18.528,22.737 18.735,22.933 18.837,23.03 18.991,23.177 18.993,23.254 18.993,23.284 18.964,23.333 18.906,23.395 18.795,23.52 18.662,23.579 18.487,23.579 18.306,23.579 18.116,23.516 17.978,23.469 L 17.743,23.391 C 17.526,23.317 17.339,23.254 17.154,23.254 16.937,23.254 16.757,23.342 16.621,23.513 16.415,23.764 16.581,24.045 16.681,24.212 16.712,24.264 16.762,24.347 16.775,24.392 16.769,24.396 16.761,24.402 16.751,24.409 16.692,24.442 16.615,24.458 16.521,24.458 16.228,24.458 15.872,24.303 15.629,24.18 15.832,23.941 16.093,23.626 16.434,23.209 17.7,21.661 19.712,19.912 20.602,19.201 L 20.625,19.185 C 20.971,18.941 20.971,18.941 20.976,18.887 L 20.979,18.849 20.926,18.783 H 20.88 C 20.843,18.783 20.823,18.783 20.489,19.05 19.72,19.592 17.393,21.238 16.046,22.881 15.692,23.316 15.433,23.65 15.243,23.909 14.66,23.304 14.665,22.967 14.725,22.815 Z" />
      <path
         style="fill:#2258a5;fill-opacity:1"
         inkscape:connector-curvature="0"
         id="path26"
         d="M 17.736,59.369 V 59.369 C 18.293,59.369 18.82,58.953 19.094,58.707 19.298,58.848 19.443,58.921 19.525,58.921 19.595,58.921 19.627,58.879 19.637,58.861 19.639,58.858 19.641,58.855 19.642,58.85 19.655,58.838 19.664,58.826 19.668,58.812 19.685,58.758 19.694,58.724 19.369,58.401 19.571,58.074 20.118,57.163 19.757,56.547 19.607,56.277 19.4,56.221 19.253,56.221 19.075,56.221 18.918,56.305 18.792,56.371 18.767,56.385 18.736,56.4 18.71,56.414 18.693,56.35 18.723,56.241 18.827,55.965 L 18.907,55.752 C 19.02,55.453 19.284,54.754 18.74,54.223 18.575,54.041 18.392,53.949 18.197,53.949 17.893,53.949 17.663,54.173 17.477,54.352 17.4,54.427 17.272,54.551 17.225,54.553 17.165,54.453 17.429,53.982 17.516,53.826 L 17.573,53.722 C 17.847,53.199 17.914,52.74 17.771,52.357 17.652,52.038 17.396,51.799 17.016,51.65 16.897,51.601 16.78,51.576 16.669,51.576 16.122,51.576 15.907,52.125 15.75,52.523 15.703,52.643 15.635,52.816 15.584,52.886 15.47,52.862 15.326,52.777 15.317,52.308 15.339,51.841 15.209,51.445 14.938,51.161 14.508,50.71 13.753,50.636 13.069,50.988 12.531,51.265 12.208,51.756 12.206,52.299 12.204,52.867 12.55,53.388 13.146,53.698 13.632,53.916 13.701,54.076 13.688,54.246 13.628,54.256 13.459,54.255 13.292,54.246 13.189,54.241 13.084,54.236 12.981,54.236 12.717,54.236 12.388,54.265 12.18,54.503 12.04,54.662 11.987,54.881 12.023,55.153 12.155,56.06 12.749,56.625 13.573,56.625 13.739,56.625 13.911,56.602 14.079,56.558 14.152,56.541 14.228,56.522 14.304,56.501 14.517,56.445 14.738,56.388 14.903,56.388 15.05,56.388 15.066,56.429 15.083,56.468 15.069,56.514 14.94,56.616 14.863,56.678 14.663,56.836 14.414,57.035 14.38,57.356 14.357,57.573 14.438,57.791 14.638,58.032 14.92,58.34 15.263,58.496 15.658,58.496 15.942,58.496 16.181,58.415 16.341,58.362 L 16.395,58.344 C 16.468,58.321 16.537,58.295 16.602,58.272 16.763,58.215 16.902,58.167 16.992,58.167 17.017,58.167 17.042,58.169 17.076,58.191 17.065,58.226 17.047,58.272 17.034,58.307 16.955,58.508 16.746,59.045 17.363,59.303 17.48,59.346 17.606,59.369 17.736,59.369 Z M 16.993,57.595 C 16.805,57.595 16.623,57.659 16.412,57.734 16.351,57.756 16.286,57.78 16.219,57.801 L 16.161,57.821 C 16.029,57.864 15.849,57.925 15.659,57.925 15.428,57.925 15.231,57.833 15.069,57.657 14.987,57.557 14.943,57.468 14.948,57.415 14.957,57.331 15.102,57.216 15.219,57.124 15.441,56.947 15.777,56.681 15.615,56.263 15.553,56.097 15.376,55.818 14.905,55.818 14.667,55.818 14.41,55.884 14.162,55.949 14.09,55.969 14.019,55.987 13.944,56.006 13.816,56.039 13.693,56.056 13.575,56.056 13.031,56.056 12.681,55.707 12.589,55.077 12.576,54.982 12.584,54.911 12.61,54.882 12.634,54.855 12.714,54.808 12.983,54.808 13.076,54.808 13.171,54.814 13.265,54.818 13.363,54.824 13.457,54.828 13.545,54.828 13.974,54.828 14.21,54.68 14.245,54.395 14.357,53.712 13.841,53.388 13.395,53.189 13.007,52.986 12.775,52.654 12.777,52.304 12.778,51.971 12.98,51.677 13.331,51.497 13.792,51.259 14.268,51.285 14.526,51.556 14.686,51.725 14.764,51.976 14.748,52.302 14.76,53.001 15.034,53.392 15.574,53.463 L 15.617,53.465 C 15.993,53.465 16.146,53.077 16.28,52.734 16.383,52.474 16.509,52.149 16.669,52.149 16.704,52.149 16.748,52.16 16.803,52.182 17.034,52.273 17.177,52.396 17.238,52.56 17.321,52.78 17.262,53.092 17.071,53.456 L 17.019,53.551 C 16.809,53.927 16.571,54.353 16.679,54.714 16.725,54.868 16.829,54.993 16.982,55.073 17.06,55.113 17.142,55.134 17.227,55.134 17.493,55.134 17.696,54.937 17.875,54.763 17.975,54.667 18.126,54.521 18.198,54.521 18.218,54.521 18.26,54.544 18.331,54.621 18.599,54.883 18.504,55.211 18.375,55.553 L 18.295,55.768 C 18.149,56.151 18,56.548 18.361,56.899 18.443,56.973 18.545,57.013 18.657,57.013 V 57.013 C 18.806,57.013 18.94,56.942 19.058,56.879 19.117,56.848 19.216,56.795 19.229,56.787 19.229,56.787 19.24,56.797 19.261,56.834 19.317,56.93 19.393,57.232 18.946,58 18.719,57.787 18.426,57.516 18.039,57.161 16.959,56.203 15.641,54.691 14.119,52.672 13.949,52.445 13.949,52.445 13.899,52.445 13.887,52.445 13.876,52.447 13.865,52.451 13.834,52.463 13.81,52.492 13.804,52.524 13.77,52.71 15.866,55.908 17.692,57.535 18.056,57.869 18.368,58.141 18.629,58.355 18.277,58.652 17.976,58.803 17.733,58.803 17.672,58.802 17.617,58.792 17.572,58.776 17.521,58.754 17.5,58.736 17.498,58.736 17.49,58.699 17.536,58.58 17.561,58.515 17.631,58.335 17.749,58.035 17.514,57.818 17.367,57.668 17.19,57.595 16.993,57.595 Z" />
      <path
         style="fill:#2258a5;fill-opacity:1"
         inkscape:connector-curvature="0"
         id="path28"
         d="M 9.416,46.91 C 9.502,46.928 9.583,46.941 9.66,46.955 9.961,47.008 10.058,47.035 10.105,47.11 10.08,47.133 10.046,47.162 10.021,47.183 9.858,47.32 9.428,47.682 9.823,48.201 10.043,48.49 10.4,48.637 10.884,48.637 11.192,48.637 11.484,48.576 11.663,48.533 11.867,48.967 11.936,48.971 11.987,48.971 12.021,48.971 12.052,48.955 12.072,48.93 L 12.113,48.909 C 12.138,48.874 12.171,48.821 12.049,48.384 12.422,48.172 13.248,47.662 13.264,46.982 13.268,46.798 13.216,46.65 13.11,46.541 12.935,46.359 12.683,46.356 12.499,46.353 12.468,46.353 12.427,46.353 12.393,46.351 12.406,46.285 12.484,46.207 12.726,46.007 L 12.89,45.869 C 13.159,45.645 13.719,45.179 13.515,44.44 13.412,44.073 13.164,43.87 12.814,43.87 12.648,43.87 12.48,43.915 12.331,43.955 12.22,43.984 12.105,44.015 12.03,44.015 12.007,44.015 11.998,44.011 11.995,44.005 12.015,43.886 12.423,43.64 12.597,43.534 L 12.722,43.457 C 13.224,43.145 13.51,42.784 13.572,42.386 13.625,42.042 13.508,41.7 13.237,41.383 13.033,41.109 12.796,41.05 12.633,41.05 12.286,41.05 11.979,41.298 11.707,41.517 11.605,41.6 11.456,41.72 11.385,41.753 11.292,41.682 11.217,41.563 11.478,41.107 11.77,40.613 11.801,40.082 11.563,39.646 11.307,39.178 10.773,38.884 10.134,38.863 L 10.066,38.861 C 9.468,38.861 8.963,39.14 8.717,39.61 8.458,40.101 8.525,40.716 8.896,41.257 9.188,41.672 9.148,41.872 9.064,42.009 8.979,41.978 8.827,41.882 8.721,41.814 8.459,41.646 8.161,41.457 7.855,41.457 7.644,41.457 7.353,41.547 7.163,41.99 6.982,42.49 6.995,42.969 7.201,43.371 7.407,43.772 7.795,44.072 8.293,44.215 8.355,44.233 8.419,44.25 8.483,44.268 8.896,44.379 9.211,44.478 9.204,44.631 9.168,44.662 9.008,44.688 8.912,44.703 8.658,44.744 8.341,44.796 8.16,45.062 8.038,45.242 8.01,45.472 8.075,45.765 8.282,46.689 9.046,46.839 9.372,46.903 Z M 8.632,45.641 C 8.592,45.459 8.623,45.396 8.632,45.381 8.675,45.317 8.865,45.286 9.004,45.264 9.271,45.221 9.716,45.149 9.764,44.692 9.822,44.038 9.134,43.852 8.632,43.715 8.57,43.699 8.51,43.682 8.45,43.664 8.104,43.566 7.84,43.369 7.707,43.109 7.575,42.85 7.571,42.529 7.692,42.197 7.766,42.023 7.828,42.023 7.855,42.023 7.994,42.023 8.227,42.171 8.414,42.293 8.652,42.444 8.877,42.588 9.103,42.588 9.254,42.588 9.389,42.523 9.489,42.395 9.947,41.762 9.506,41.134 9.364,40.931 9.112,40.564 9.06,40.179 9.22,39.873 9.368,39.591 9.677,39.43 10.066,39.43 H 10.114 C 10.549,39.446 10.903,39.629 11.062,39.918 11.203,40.176 11.176,40.494 10.985,40.818 10.847,41.058 10.426,41.789 11.089,42.24 11.169,42.298 11.263,42.328 11.362,42.328 V 42.328 C 11.605,42.328 11.818,42.157 12.064,41.959 12.243,41.814 12.487,41.617 12.633,41.617 12.654,41.617 12.703,41.617 12.791,41.734 12.962,41.935 13.036,42.125 13.009,42.295 12.974,42.52 12.771,42.753 12.422,42.971 L 12.302,43.043 C 11.929,43.269 11.508,43.523 11.435,43.893 11.404,44.052 11.442,44.211 11.545,44.349 11.622,44.455 11.768,44.582 12.03,44.582 12.179,44.582 12.33,44.541 12.477,44.503 12.598,44.471 12.722,44.438 12.814,44.438 12.877,44.438 12.922,44.438 12.965,44.59 13.063,44.944 12.812,45.19 12.525,45.429 L 12.361,45.565 C 12.035,45.836 11.698,46.116 11.862,46.608 11.969,46.914 12.296,46.919 12.49,46.92 12.551,46.92 12.648,46.922 12.693,46.934 12.694,46.942 12.694,46.953 12.694,46.966 12.691,47.107 12.573,47.398 11.875,47.82 11.779,47.529 11.651,47.162 11.478,46.685 10.826,44.815 10.457,42.232 10.298,41.13 10.213,40.535 10.213,40.535 10.121,40.535 L 10.042,40.575 C 9.952,40.703 10.148,44.409 10.995,46.845 11.173,47.335 11.316,47.708 11.433,47.999 11.281,48.03 11.082,48.063 10.883,48.063 10.586,48.063 10.382,47.993 10.276,47.853 10.236,47.801 10.232,47.776 10.231,47.776 10.241,47.74 10.336,47.661 10.387,47.617 10.533,47.494 10.778,47.288 10.67,46.981 10.517,46.524 10.13,46.456 9.756,46.391 9.685,46.379 9.609,46.366 9.529,46.35 L 9.482,46.34 C 9.116,46.27 8.748,46.156 8.632,45.641 Z" />
      <path
         style="fill:#2258a5;fill-opacity:1"
         inkscape:connector-curvature="0"
         id="path30"
         d="M 8.912,33.505 8.944,33.533 C 9.006,33.586 9.067,33.634 9.123,33.679 9.37,33.877 9.442,33.95 9.446,34.04 9.412,34.049 9.367,34.057 9.333,34.063 9.125,34.103 8.572,34.209 8.657,34.85 8.722,35.375 9.213,35.773 10.106,36.038 10.092,36.385 10.142,36.448 10.166,36.476 10.186,36.501 10.235,36.525 10.27,36.521 10.28,36.525 10.29,36.527 10.299,36.527 10.363,36.527 10.403,36.521 10.504,36.101 10.912,36.099 11.889,36.066 12.257,35.469 12.352,35.31 12.382,35.155 12.343,35.007 12.28,34.764 12.062,34.638 11.903,34.546 11.877,34.531 11.844,34.512 11.816,34.494 11.858,34.446 11.963,34.415 12.256,34.359 L 12.481,34.315 C 12.799,34.256 13.543,34.116 13.717,33.368 13.896,32.618 13.234,32.448 12.915,32.367 12.82,32.342 12.664,32.303 12.614,32.266 12.615,32.262 12.616,32.261 12.617,32.26 12.712,32.156 13.159,32.139 13.4,32.131 L 13.516,32.126 C 14.093,32.091 14.513,31.915 14.764,31.6 14.979,31.331 15.054,30.983 14.986,30.566 14.945,30.309 14.78,29.877 14.138,29.877 13.951,29.877 13.754,29.912 13.581,29.942 13.442,29.966 13.31,29.99 13.217,29.99 13.204,29.99 13.195,29.99 13.187,29.989 13.148,29.876 13.146,29.697 13.556,29.465 14.059,29.179 14.351,28.732 14.359,28.237 14.367,27.706 14.046,27.191 13.5,26.858 12.854,26.465 12.082,26.546 11.628,27.039 11.331,27.362 11.19,27.819 11.232,28.327 11.273,28.835 11.206,28.995 11.037,29.084 10.977,29.014 10.891,28.856 10.831,28.745 10.631,28.378 10.382,27.922 9.923,27.922 9.748,27.922 9.571,27.993 9.397,28.134 8.975,28.477 8.741,28.898 8.72,29.35 8.699,29.802 8.898,30.257 9.276,30.627 9.328,30.68 9.384,30.734 9.441,30.79 9.729,31.069 9.959,31.309 9.851,31.435 9.787,31.435 9.67,31.393 9.566,31.355 9.408,31.297 9.229,31.232 9.044,31.232 8.802,31.232 8.481,31.343 8.322,31.878 8.058,32.789 8.656,33.291 8.912,33.505 Z M 8.867,32.038 C 8.937,31.802 9.008,31.802 9.042,31.802 9.127,31.802 9.25,31.847 9.369,31.89 9.524,31.946 9.684,32.004 9.849,32.004 V 32.004 C 10.041,32.004 10.202,31.924 10.308,31.781 10.734,31.25 10.193,30.726 9.835,30.38 9.782,30.328 9.729,30.277 9.676,30.223 9.412,29.964 9.273,29.663 9.286,29.376 9.3,29.09 9.461,28.814 9.753,28.577 9.848,28.499 9.901,28.492 9.92,28.492 10.041,28.492 10.221,28.822 10.328,29.018 10.503,29.34 10.684,29.672 11.016,29.672 V 29.672 C 11.082,29.672 11.147,29.657 11.197,29.634 11.885,29.363 11.827,28.658 11.797,28.28 11.769,27.932 11.856,27.629 12.044,27.424 12.318,27.127 12.786,27.091 13.201,27.344 13.573,27.571 13.791,27.901 13.786,28.228 13.781,28.52 13.598,28.784 13.271,28.969 12.465,29.425 12.555,29.979 12.687,30.281 12.75,30.408 12.892,30.56 13.213,30.56 13.356,30.56 13.511,30.532 13.676,30.503 13.834,30.475 13.997,30.446 14.133,30.446 14.361,30.446 14.396,30.512 14.419,30.655 14.461,30.906 14.425,31.104 14.315,31.242 14.171,31.422 13.881,31.531 13.482,31.554 L 13.374,31.558 C 12.941,31.574 12.449,31.593 12.193,31.871 12.085,31.989 12.031,32.141 12.04,32.32 12.076,32.738 12.493,32.845 12.769,32.915 13.207,33.027 13.196,33.071 13.157,33.234 13.074,33.592 12.738,33.683 12.371,33.752 L 12.143,33.796 C 11.737,33.874 11.316,33.955 11.221,34.454 11.161,34.776 11.443,34.939 11.613,35.037 11.664,35.066 11.745,35.113 11.779,35.144 11.776,35.151 11.772,35.16 11.766,35.17 11.689,35.295 11.437,35.498 10.623,35.526 10.686,35.214 10.765,34.805 10.867,34.265 11.2,32.342 12.151,29.929 12.556,28.898 12.786,28.314 12.786,28.314 12.724,28.252 12.707,28.239 12.686,28.231 12.664,28.231 12.434,28.231 10.778,31.809 10.367,34.165 10.263,34.722 10.197,35.139 10.156,35.457 9.391,35.212 9.238,34.93 9.218,34.774 9.209,34.708 9.218,34.683 9.218,34.683 9.243,34.657 9.368,34.633 9.435,34.62 9.622,34.584 9.935,34.524 9.995,34.204 10.088,33.723 9.776,33.473 9.474,33.23 9.421,33.188 9.365,33.143 9.307,33.093 L 9.272,33.064 C 8.99,32.827 8.72,32.547 8.867,32.038 Z" />
      <path
         style="fill:#2258a5;fill-opacity:1"
         inkscape:connector-curvature="0"
         id="path32"
         d="M 56.689,25.406 C 56.681,25.416 56.673,25.426 56.663,25.441 56.609,25.513 56.549,25.573 56.482,25.618 56.396,25.678 56.375,25.796 56.433,25.882 56.47,25.936 56.53,25.965 56.59,25.965 56.627,25.965 56.665,25.954 56.697,25.932 56.798,25.863 56.889,25.774 56.969,25.667 56.998,25.626 57.02,25.597 57.036,25.566 57.185,25.612 57.338,25.636 57.486,25.636 58,25.636 58.404,25.361 58.541,24.919 58.618,24.673 58.498,24.495 58.414,24.428 58.404,24.42 58.393,24.419 58.382,24.413 58.406,24.355 58.43,24.295 58.448,24.234 58.572,23.837 58.543,23.37 58.372,23.044 58.303,22.913 58.215,22.815 58.115,22.759 58.099,22.701 58.064,22.617 57.967,22.588 57.87,22.555 57.793,22.598 57.74,22.641 57.336,22.61 56.807,23.076 56.623,23.662 56.603,23.724 56.588,23.785 56.575,23.847 56.562,23.846 56.551,23.839 56.538,23.84 56.431,23.846 56.23,23.923 56.153,24.169 56.061,24.463 56.107,24.771 56.284,25.033 56.386,25.182 56.525,25.306 56.689,25.406 Z M 56.986,23.777 C 57.138,23.296 57.576,22.977 57.722,23.022 57.759,23.034 57.794,23.035 57.824,23.029 57.846,23.051 57.875,23.071 57.912,23.083 57.941,23.092 57.989,23.133 58.037,23.221 58.137,23.412 58.195,23.775 58.087,24.122 58.038,24.281 57.959,24.423 57.866,24.545 57.851,24.545 57.838,24.547 57.821,24.547 57.675,24.547 57.518,24.523 57.37,24.476 57.18,24.416 57.028,24.33 56.922,24.25 56.916,24.098 56.938,23.936 56.986,23.777 Z M 56.496,24.375 C 56.66,24.563 56.947,24.743 57.258,24.841 57.444,24.899 57.639,24.929 57.822,24.929 57.899,24.929 58.025,24.923 58.147,24.891 58.038,25.122 57.797,25.256 57.487,25.256 57.375,25.256 57.259,25.237 57.142,25.201 56.909,25.129 56.716,24.994 56.601,24.822 56.533,24.721 56.466,24.566 56.496,24.375 Z" />
      <path
         style="fill:#2258a5;fill-opacity:1"
         inkscape:connector-curvature="0"
         id="path34"
         d="M 55.254,26.843 C 55.288,26.836 55.324,26.826 55.372,26.81 55.494,26.77 55.607,26.713 55.708,26.639 55.793,26.577 55.811,26.458 55.748,26.373 55.685,26.288 55.568,26.27 55.483,26.332 55.416,26.382 55.337,26.42 55.255,26.447 55.237,26.453 55.225,26.457 55.212,26.461 55.095,25.94 54.706,25.571 54.197,25.559 53.95,25.559 53.817,25.721 53.778,25.817 53.773,25.829 53.774,25.842 53.773,25.856 53.711,25.848 53.647,25.843 53.583,25.842 52.966,25.83 52.36,26.175 52.259,26.572 52.208,26.603 52.135,26.663 52.135,26.767 52.132,26.867 52.195,26.927 52.249,26.965 52.27,27.078 52.335,27.194 52.438,27.301 52.692,27.567 53.125,27.745 53.54,27.754 53.556,27.754 53.569,27.754 53.583,27.754 53.633,27.754 53.682,27.752 53.729,27.748 53.732,27.76 53.729,27.772 53.734,27.784 53.77,27.885 53.901,28.055 54.159,28.06 54.16,28.06 54.183,28.06 54.184,28.06 54.787,28.062 55.236,27.549 55.254,26.843 Z M 53.551,27.375 C 53.188,27.367 52.863,27.195 52.714,27.039 52.645,26.966 52.621,26.907 52.621,26.879 52.623,26.839 52.615,26.806 52.6,26.777 52.616,26.75 52.625,26.718 52.625,26.679 52.63,26.522 53.075,26.212 53.575,26.221 53.744,26.225 53.904,26.262 54.047,26.318 54.088,26.444 54.12,26.612 54.116,26.809 54.111,27.012 54.07,27.181 54.021,27.306 53.877,27.354 53.717,27.379 53.551,27.375 Z M 54.26,27.677 C 54.401,27.464 54.489,27.134 54.496,26.818 54.502,26.494 54.425,26.164 54.299,25.949 54.649,26.01 54.887,26.363 54.875,26.827 54.865,27.29 54.611,27.634 54.26,27.677 Z" />
      <path
         style="fill:#2258a5;fill-opacity:1"
         inkscape:connector-curvature="0"
         id="path36"
         d="M 57.328,38.766 C 57.485,38.862 57.656,38.91 57.836,38.91 58.243,38.91 58.634,38.663 58.884,38.252 58.918,38.262 58.953,38.271 59.003,38.281 59.085,38.299 59.166,38.307 59.248,38.307 59.292,38.307 59.335,38.304 59.379,38.299 59.483,38.287 59.557,38.193 59.545,38.088 59.533,37.984 59.437,37.908 59.334,37.922 59.252,37.932 59.167,37.928 59.082,37.908 59.064,37.904 59.051,37.902 59.038,37.898 59.095,37.716 59.117,37.53 59.094,37.353 59.051,37.041 58.883,36.78 58.617,36.621 58.537,36.572 58.452,36.547 58.366,36.547 58.224,36.547 58.131,36.613 58.113,36.628 58.103,36.636 58.097,36.649 58.089,36.659 58.039,36.621 57.985,36.585 57.93,36.552 57.407,36.237 56.705,36.235 56.419,36.529 56.359,36.531 56.267,36.546 56.214,36.636 56.162,36.722 56.186,36.805 56.215,36.865 56.178,36.974 56.176,37.106 56.211,37.25 56.3,37.607 56.587,37.978 56.944,38.191 56.998,38.224 57.054,38.253 57.111,38.281 57.107,38.292 57.099,38.302 57.097,38.314 57.08,38.42 57.108,38.633 57.328,38.766 Z M 58.717,37.404 C 58.744,37.609 58.69,37.838 58.563,38.049 58.332,38.434 57.928,38.62 57.604,38.481 57.825,38.37 58.067,38.137 58.237,37.854 58.405,37.575 58.501,37.25 58.499,37 58.648,37.123 58.701,37.283 58.717,37.404 Z M 56.58,37.16 C 56.557,37.062 56.566,37 56.58,36.974 56.601,36.941 56.61,36.908 56.611,36.876 56.638,36.86 56.664,36.837 56.682,36.802 56.763,36.669 57.302,36.618 57.734,36.878 57.878,36.964 58.001,37.071 58.097,37.19 58.071,37.321 58.015,37.485 57.911,37.657 57.806,37.829 57.686,37.956 57.583,38.041 57.433,38.011 57.281,37.953 57.14,37.868 56.83,37.681 56.633,37.369 56.58,37.16 Z" />
      <path
         style="fill:#2258a5;fill-opacity:1"
         inkscape:connector-curvature="0"
         id="path38"
         d="M 61.402,36.393 C 61.391,36.384 61.383,36.373 61.371,36.368 61.353,36.359 61.29,36.332 61.201,36.332 61.117,36.332 60.994,36.355 60.877,36.468 60.68,36.652 60.571,36.894 60.564,37.165 60.558,37.38 60.618,37.601 60.733,37.806 60.721,37.812 60.711,37.817 60.694,37.824 60.618,37.859 60.536,37.881 60.451,37.89 60.347,37.9 60.27,37.993 60.28,38.097 60.29,38.196 60.372,38.269 60.469,38.269 60.475,38.269 60.481,38.268 60.488,38.267 60.614,38.255 60.737,38.222 60.851,38.171 60.898,38.15 60.93,38.134 60.961,38.116 61.229,38.399 61.574,38.561 61.91,38.561 62.167,38.561 62.402,38.467 62.589,38.291 62.777,38.113 62.76,37.899 62.72,37.801 62.715,37.79 62.706,37.783 62.699,37.774 62.749,37.735 62.797,37.694 62.844,37.651 63.148,37.366 63.352,36.944 63.362,36.577 63.367,36.428 63.339,36.301 63.279,36.202 63.294,36.145 63.304,36.054 63.235,35.98 63.167,35.904 63.077,35.903 63.01,35.915 62.675,35.686 61.985,35.835 61.535,36.256 61.488,36.299 61.443,36.344 61.402,36.393 Z M 61.23,37.85 C 61.041,37.649 60.935,37.403 60.943,37.176 60.947,37.039 60.992,36.916 61.073,36.813 61.121,37.057 61.283,37.35 61.508,37.591 61.731,37.828 62.018,38.008 62.258,38.071 61.969,38.273 61.536,38.174 61.23,37.85 Z M 62.801,36.23 C 62.828,36.261 62.86,36.281 62.891,36.291 62.899,36.322 62.914,36.353 62.942,36.383 62.963,36.405 62.985,36.464 62.981,36.564 62.975,36.78 62.848,37.125 62.583,37.374 62.463,37.487 62.327,37.576 62.187,37.637 62.064,37.574 61.92,37.474 61.786,37.331 61.649,37.185 61.559,37.036 61.505,36.914 61.575,36.778 61.673,36.646 61.796,36.532 62.162,36.187 62.699,36.123 62.801,36.23 Z" />
      <path
         style="fill:#2258a5;fill-opacity:1"
         inkscape:connector-curvature="0"
         id="path40"
         d="M 56.997,48.51 C 56.91,48.36 56.763,48.27 56.602,48.27 56.592,48.27 56.562,48.272 56.551,48.273 56.537,48.276 56.527,48.284 56.515,48.289 56.489,48.231 56.46,48.174 56.427,48.119 56.121,47.589 55.509,47.25 55.116,47.367 55.062,47.339 54.973,47.307 54.887,47.361 54.799,47.41 54.779,47.495 54.775,47.562 54.689,47.639 54.625,47.752 54.586,47.897 54.49,48.253 54.564,48.715 54.772,49.075 54.803,49.132 54.838,49.183 54.876,49.235 54.866,49.243 54.855,49.247 54.849,49.256 54.782,49.34 54.703,49.539 54.832,49.762 55.015,50.08 55.343,50.264 55.731,50.264 55.969,50.264 56.215,50.196 56.442,50.065 56.467,50.09 56.494,50.116 56.532,50.148 56.628,50.232 56.735,50.298 56.851,50.346 56.874,50.356 56.899,50.362 56.924,50.362 56.998,50.362 57.069,50.317 57.099,50.244 57.139,50.146 57.092,50.036 56.995,49.995 56.918,49.964 56.845,49.919 56.78,49.862 56.765,49.849 56.756,49.841 56.746,49.833 57.13,49.459 57.245,48.939 56.997,48.51 Z M 54.953,47.996 C 54.978,47.898 55.017,47.848 55.043,47.833 55.078,47.814 55.1,47.789 55.117,47.764 55.148,47.762 55.181,47.754 55.215,47.735 55.35,47.657 55.846,47.872 56.1,48.308 56.184,48.454 56.239,48.608 56.266,48.758 56.179,48.86 56.051,48.975 55.879,49.074 55.705,49.174 55.533,49.223 55.399,49.246 55.285,49.149 55.183,49.027 55.102,48.885 54.92,48.571 54.897,48.204 54.953,47.996 Z M 56.258,49.732 C 56.086,49.832 55.904,49.883 55.731,49.883 55.512,49.883 55.333,49.8 55.211,49.648 55.461,49.66 55.789,49.564 56.068,49.403 56.353,49.238 56.591,49.004 56.709,48.784 56.855,49.151 56.605,49.531 56.258,49.732 Z" />
      <path
         style="fill:#2258a5;fill-opacity:1"
         inkscape:connector-curvature="0"
         id="path42"
         d="M 61.196,49.982 C 61.013,49.619 60.339,49.414 59.742,49.561 59.68,49.576 59.619,49.595 59.559,49.617 59.554,49.605 59.552,49.592 59.545,49.582 59.476,49.482 59.283,49.371 59.064,49.426 58.765,49.502 58.527,49.701 58.396,49.988 58.32,50.15 58.287,50.335 58.288,50.526 58.275,50.526 58.263,50.524 58.244,50.522 58.156,50.515 58.076,50.495 58,50.46 57.904,50.418 57.791,50.46 57.748,50.558 57.705,50.654 57.748,50.765 57.845,50.808 57.959,50.86 58.082,50.891 58.211,50.902 58.26,50.907 58.297,50.91 58.331,50.91 58.332,50.91 58.334,50.91 58.334,50.91 58.482,51.494 58.92,51.887 59.424,51.887 59.506,51.887 59.589,51.877 59.67,51.856 59.92,51.794 60.01,51.598 60.024,51.494 60.026,51.481 60.02,51.469 60.02,51.456 60.082,51.447 60.144,51.436 60.206,51.421 60.61,51.319 60.993,51.051 61.182,50.735 61.259,50.608 61.295,50.482 61.292,50.366 61.333,50.324 61.386,50.249 61.36,50.153 61.338,50.049 61.26,50.005 61.196,49.982 Z M 58.701,50.807 C 58.64,50.569 58.654,50.334 58.741,50.146 58.793,50.036 58.888,49.897 59.068,49.824 58.993,50.061 58.99,50.401 59.068,50.716 59.142,51.011 59.301,51.321 59.489,51.501 59.131,51.54 58.811,51.252 58.701,50.807 Z M 60.855,50.537 C 60.744,50.722 60.464,50.961 60.113,51.049 59.953,51.09 59.791,51.102 59.638,51.086 59.564,50.975 59.486,50.819 59.437,50.623 59.388,50.432 59.382,50.26 59.394,50.128 59.523,50.041 59.669,49.971 59.833,49.93 60.321,49.809 60.822,50.014 60.86,50.16 60.868,50.2 60.885,50.23 60.907,50.254 60.899,50.285 60.897,50.32 60.907,50.358 60.916,50.389 60.906,50.451 60.855,50.537 Z" />
      <path
         style="fill:#2258a5;fill-opacity:1"
         inkscape:connector-curvature="0"
         id="path44"
         d="M 48.924,58.925 C 48.918,58.908 48.913,58.895 48.908,58.883 49.425,58.745 49.779,58.349 49.773,57.852 49.77,57.595 49.601,57.463 49.502,57.427 49.488,57.422 49.475,57.424 49.462,57.422 49.467,57.36 49.471,57.295 49.469,57.231 49.459,56.62 49.091,56.022 48.692,55.934 48.66,55.887 48.6,55.817 48.499,55.817 48.397,55.822 48.335,55.881 48.3,55.939 48.187,55.964 48.075,56.034 47.971,56.139 47.714,56.403 47.551,56.842 47.556,57.258 47.558,57.322 47.562,57.385 47.57,57.447 47.558,57.449 47.547,57.447 47.535,57.452 47.435,57.492 47.27,57.629 47.273,57.885 47.28,58.486 47.814,58.938 48.515,58.938 48.516,58.938 48.525,58.938 48.531,58.938 48.54,58.971 48.551,59.006 48.568,59.053 48.613,59.176 48.673,59.287 48.752,59.383 48.789,59.43 48.844,59.454 48.9,59.454 48.941,59.454 48.984,59.44 49.019,59.412 49.1,59.346 49.113,59.226 49.047,59.144 48.994,59.082 48.953,59.008 48.924,58.925 Z M 48.24,56.404 C 48.31,56.333 48.369,56.306 48.397,56.306 48.437,56.306 48.47,56.296 48.498,56.281 48.523,56.295 48.555,56.302 48.589,56.302 48.592,56.302 48.594,56.302 48.598,56.302 48.756,56.302 49.082,56.733 49.089,57.236 49.091,57.404 49.061,57.565 49.01,57.711 48.883,57.758 48.71,57.795 48.502,57.799 48.311,57.799 48.148,57.765 48.025,57.723 47.97,57.579 47.937,57.42 47.934,57.252 47.93,56.891 48.09,56.559 48.24,56.404 Z M 47.659,57.973 C 47.867,58.1 48.185,58.178 48.525,58.178 V 58.178 C 48.855,58.173 49.177,58.084 49.386,57.95 49.339,58.302 48.994,58.551 48.531,58.557 H 48.513 C 48.119,58.558 47.719,58.357 47.659,57.973 Z" />
      <path
         style="fill:#2258a5;fill-opacity:1"
         inkscape:connector-curvature="0"
         id="path46"
         d="M 51.596,60.254 C 51.534,60.238 51.473,60.225 51.41,60.215 51.411,60.201 51.416,60.189 51.414,60.176 51.404,60.069 51.318,59.873 51.071,59.806 50.984,59.782 50.894,59.77 50.806,59.77 50.417,59.77 50.066,60.007 49.855,60.383 49.844,60.377 49.834,60.369 49.819,60.36 49.748,60.312 49.685,60.253 49.634,60.186 49.572,60.102 49.452,60.085 49.368,60.149 49.284,60.213 49.268,60.331 49.331,60.415 49.408,60.517 49.501,60.603 49.606,60.675 49.647,60.703 49.678,60.724 49.709,60.74 49.612,61.103 49.648,61.473 49.81,61.755 49.945,61.989 50.153,62.15 50.412,62.222 50.459,62.234 50.505,62.24 50.551,62.24 50.717,62.24 50.842,62.152 50.899,62.076 50.906,62.066 50.907,62.055 50.913,62.043 50.972,62.066 51.031,62.086 51.093,62.103 51.236,62.142 51.388,62.161 51.538,62.161 51.809,62.161 52.074,62.1 52.279,61.982 52.407,61.908 52.501,61.817 52.555,61.713 52.612,61.696 52.694,61.657 52.721,61.557 52.748,61.459 52.703,61.385 52.659,61.334 52.678,60.928 52.189,60.417 51.596,60.254 Z M 50.427,61.822 C 50.307,61.77 50.209,61.682 50.141,61.564 50.028,61.367 50.006,61.099 50.079,60.83 50.19,60.424 50.483,60.149 50.809,60.149 50.832,60.149 50.858,60.151 50.881,60.154 50.69,60.333 50.525,60.64 50.443,60.931 50.359,61.245 50.355,61.584 50.427,61.822 Z M 52.273,61.43 C 52.252,61.453 52.234,61.483 52.224,61.521 52.216,61.551 52.177,61.6 52.089,61.651 51.901,61.757 51.541,61.83 51.191,61.734 51.031,61.691 50.886,61.618 50.759,61.528 50.749,61.396 50.757,61.225 50.81,61.032 50.863,60.839 50.943,60.685 51.017,60.576 51.171,60.563 51.335,60.579 51.496,60.622 51.982,60.755 52.318,61.179 52.278,61.326 52.267,61.363 52.267,61.398 52.273,61.43 Z" />
      <path
         style="fill:#2258a5;fill-opacity:1"
         inkscape:connector-curvature="0"
         id="path48"
         d="M 47.073,59.289 C 46.546,59.289 46.073,59.597 45.773,60.135 45.61,60.436 45.466,60.58 45.335,60.58 45.311,60.58 45.283,60.576 45.253,60.567 45.242,60.478 45.266,60.285 45.282,60.152 45.33,59.764 45.385,59.324 45.138,59.021 45.009,58.862 44.822,58.771 44.599,58.753 43.638,58.622 43.068,59.203 43.064,60.304 V 60.456 C 43.065,60.667 43.067,61.157 42.959,61.236 42.916,61.203 42.861,61.021 42.829,60.913 42.738,60.61 42.588,60.104 42.049,60.104 41.966,60.104 41.876,60.118 41.781,60.144 41.033,60.357 40.926,61.089 40.873,61.442 L 40.842,61.657 C 40.796,61.993 40.77,62.1 40.715,62.143 40.694,62.113 40.67,62.075 40.651,62.045 40.541,61.868 40.372,61.602 40.053,61.602 39.938,61.602 39.821,61.639 39.703,61.713 39.144,62.072 39.119,62.996 39.131,63.457 37.873,63.689 37.878,63.787 37.885,63.874 37.886,63.882 37.887,63.889 37.889,63.896 37.889,63.91 37.891,63.923 37.895,63.937 37.924,64.028 38.041,64.035 38.17,64.035 38.375,64.035 38.725,64.003 39.215,63.937 39.512,64.814 39.934,65.292 40.473,65.348 40.509,65.353 40.544,65.354 40.577,65.354 41.139,65.354 41.215,64.854 41.246,64.64 41.252,64.606 41.26,64.559 41.267,64.524 41.268,64.524 41.269,64.524 41.27,64.524 41.374,64.524 41.471,64.629 41.649,64.831 41.702,64.891 41.757,64.953 41.817,65.018 L 41.848,65.051 C 42.03,65.248 42.409,65.66 43.024,65.66 43.186,65.66 43.354,65.631 43.524,65.573 43.813,65.475 43.998,65.33 44.088,65.129 44.223,64.832 44.1,64.529 44,64.287 43.962,64.195 43.898,64.041 43.904,64.002 43.94,63.975 43.965,63.971 43.984,63.971 44.143,63.971 44.419,64.231 44.619,64.42 44.668,64.467 44.717,64.512 44.764,64.556 45.122,64.884 45.551,65.065 45.972,65.065 46.326,65.065 46.843,64.94 47.305,64.336 47.471,64.1 47.526,63.871 47.469,63.654 47.368,63.273 46.971,63.082 46.618,62.914 46.502,62.857 46.334,62.777 46.264,62.721 46.341,62.551 46.482,62.45 46.863,62.45 46.913,62.45 46.964,62.452 47.014,62.454 47.71,62.503 48.285,62.214 48.561,61.698 48.821,61.214 48.77,60.616 48.426,60.098 48.082,59.585 47.59,59.289 47.073,59.289 Z M 48.059,61.43 C 47.901,61.723 47.577,61.893 47.165,61.893 47.129,61.893 47.092,61.891 47.051,61.888 46.986,61.883 46.922,61.881 46.862,61.881 46.641,61.881 45.967,61.881 45.71,62.572 45.539,63.031 46.021,63.262 46.372,63.43 46.575,63.528 46.884,63.675 46.917,63.802 46.933,63.864 46.874,63.96 46.846,64.001 46.598,64.325 46.296,64.496 45.972,64.496 45.695,64.496 45.404,64.368 45.15,64.137 45.104,64.095 45.058,64.052 45.011,64.008 44.697,63.71 44.37,63.403 43.985,63.403 43.834,63.403 43.691,63.452 43.561,63.549 43.195,63.828 43.369,64.253 43.474,64.507 43.531,64.648 43.603,64.822 43.57,64.896 43.549,64.942 43.463,64.995 43.341,65.037 43.231,65.074 43.123,65.094 43.025,65.094 42.661,65.094 42.424,64.837 42.269,64.668 L 42.235,64.63 C 42.178,64.57 42.127,64.512 42.077,64.457 41.85,64.199 41.636,63.957 41.272,63.957 41.211,63.957 41.149,63.965 41.088,63.978 40.762,64.046 40.713,64.368 40.685,64.558 40.674,64.627 40.656,64.755 40.631,64.78 40.631,64.781 40.594,64.791 40.533,64.785 40.333,64.764 40.049,64.58 39.788,63.857 39.932,63.836 40.082,63.812 40.242,63.787 42.676,63.357 46.119,61.718 46.18,61.539 46.184,61.525 46.186,61.512 46.184,61.498 46.184,61.487 46.18,61.478 46.177,61.469 46.172,61.46 46.167,61.451 46.16,61.444 46.142,61.424 46.117,61.413 46.09,61.413 46.063,61.413 46.063,61.413 45.789,61.521 44.914,61.866 42.251,62.919 40.148,63.288 39.987,63.313 39.841,63.338 39.703,63.36 39.699,62.531 39.891,62.274 40.012,62.196 40.029,62.186 40.04,62.18 40.045,62.176 40.08,62.205 40.137,62.295 40.171,62.352 40.286,62.534 40.443,62.8 40.775,62.729 41.287,62.614 41.349,62.168 41.409,61.737 L 41.439,61.527 C 41.496,61.147 41.576,60.798 41.938,60.694 42.107,60.647 42.156,60.648 42.285,61.079 42.373,61.371 42.492,61.77 42.908,61.804 43.099,61.82 43.256,61.761 43.379,61.638 43.641,61.376 43.638,60.888 43.636,60.456 V 60.308 C 43.641,59.306 44.149,59.306 44.34,59.306 44.399,59.306 44.459,59.311 44.537,59.322 44.656,59.332 44.687,59.369 44.697,59.382 44.791,59.498 44.749,59.837 44.718,60.084 44.669,60.479 44.614,60.925 44.99,61.079 45.107,61.127 45.222,61.152 45.335,61.152 45.814,61.152 46.101,60.728 46.273,60.412 46.471,60.057 46.755,59.86 47.074,59.86 47.396,59.86 47.717,60.063 47.951,60.418 48.177,60.756 48.217,61.135 48.059,61.43 Z" />
      <path
         style="fill:#2258a5;fill-opacity:1"
         inkscape:connector-curvature="0"
         id="path50"
         d="M 57.016,54.234 C 56.914,54.234 56.809,54.24 56.705,54.246 56.537,54.254 56.368,54.256 56.309,54.246 56.295,54.081 56.362,53.918 56.869,53.69 57.448,53.386 57.795,52.866 57.793,52.298 57.791,51.754 57.47,51.263 56.931,50.986 56.246,50.633 55.491,50.708 55.061,51.159 54.79,51.443 54.66,51.841 54.681,52.288 54.673,52.792 54.517,52.866 54.415,52.887 54.364,52.819 54.297,52.644 54.249,52.523 54.092,52.124 53.877,51.576 53.329,51.576 53.22,51.576 53.102,51.601 52.989,51.648 52.602,51.798 52.346,52.037 52.227,52.357 52.084,52.739 52.151,53.199 52.428,53.728 L 52.482,53.825 C 52.567,53.976 52.817,54.426 52.758,54.554 52.699,54.525 52.589,54.417 52.52,54.351 52.334,54.171 52.104,53.947 51.799,53.947 51.604,53.947 51.421,54.041 51.269,54.209 50.712,54.754 50.977,55.453 51.09,55.752 L 51.17,55.965 C 51.275,56.244 51.304,56.352 51.287,56.414 51.26,56.4 51.229,56.384 51.205,56.371 51.078,56.305 50.922,56.221 50.743,56.221 50.596,56.221 50.389,56.278 50.242,56.541 49.879,57.162 50.426,58.074 50.627,58.401 50.303,58.722 50.312,58.757 50.328,58.811 50.333,58.825 50.342,58.844 50.361,58.859 50.369,58.873 50.377,58.884 50.386,58.892 50.404,58.906 50.45,58.919 50.472,58.919 50.553,58.919 50.699,58.847 50.902,58.705 51.177,58.952 51.705,59.368 52.261,59.368 52.391,59.368 52.517,59.345 52.64,59.297 53.251,59.043 53.042,58.505 52.963,58.304 52.948,58.269 52.931,58.222 52.921,58.187 52.954,58.166 52.98,58.164 53.005,58.164 53.095,58.164 53.234,58.213 53.395,58.269 53.46,58.292 53.529,58.318 53.604,58.342 L 53.656,58.359 C 53.816,58.413 54.056,58.493 54.34,58.493 54.735,58.493 55.077,58.337 55.369,58.017 55.558,57.788 55.64,57.57 55.617,57.353 55.582,57.033 55.334,56.835 55.134,56.675 55.057,56.613 54.927,56.511 54.917,56.462 54.93,56.427 54.946,56.385 55.094,56.385 55.258,56.385 55.479,56.443 55.694,56.498 55.77,56.519 55.845,56.538 55.911,56.554 56.087,56.6 56.259,56.622 56.424,56.622 57.249,56.622 57.843,56.059 57.976,55.147 58.012,54.877 57.958,54.661 57.818,54.501 57.609,54.266 57.279,54.234 57.016,54.234 Z M 57.41,55.07 C 57.298,55.841 56.805,56.199 56.049,56.002 55.981,55.986 55.91,55.967 55.838,55.948 55.59,55.883 55.333,55.816 55.096,55.816 54.623,55.816 54.448,56.095 54.386,56.26 54.223,56.679 54.559,56.947 54.782,57.122 54.897,57.216 55.043,57.331 55.053,57.414 55.058,57.468 55.015,57.556 54.943,57.644 54.771,57.832 54.574,57.923 54.343,57.923 54.152,57.923 53.972,57.863 53.84,57.819 L 53.784,57.801 C 53.716,57.778 53.65,57.754 53.589,57.734 53.379,57.659 53.196,57.594 53.009,57.594 52.812,57.594 52.634,57.668 52.488,57.81 52.249,58.032 52.366,58.332 52.436,58.511 52.46,58.575 52.507,58.696 52.501,58.727 52.497,58.733 52.477,58.75 52.432,58.77 52.171,58.87 51.81,58.725 51.369,58.352 51.63,58.139 51.941,57.866 52.306,57.533 54.134,55.905 56.229,52.707 56.196,52.521 56.19,52.489 56.167,52.459 56.135,52.448 56.124,52.444 56.113,52.442 56.101,52.442 56.05,52.442 56.05,52.442 55.88,52.667 54.359,54.688 53.04,56.198 51.959,57.159 51.573,57.513 51.28,57.784 51.054,57.997 50.607,57.229 50.681,56.927 50.742,56.823 50.751,56.808 50.758,56.798 50.76,56.792 50.803,56.802 50.889,56.847 50.943,56.876 51.061,56.938 51.195,57.009 51.344,57.009 51.456,57.009 51.559,56.97 51.645,56.89 52.002,56.545 51.852,56.149 51.707,55.765 L 51.627,55.552 C 51.498,55.208 51.403,54.88 51.684,54.605 51.742,54.541 51.785,54.518 51.803,54.518 51.877,54.518 52.028,54.665 52.127,54.761 52.306,54.935 52.509,55.132 52.775,55.132 52.86,55.132 52.942,55.111 53.021,55.07 53.173,54.992 53.277,54.867 53.324,54.712 53.431,54.35 53.193,53.924 52.983,53.549 L 52.933,53.461 C 52.74,53.091 52.681,52.779 52.763,52.559 52.825,52.395 52.966,52.272 53.204,52.179 53.253,52.158 53.297,52.148 53.331,52.148 53.49,52.148 53.618,52.473 53.72,52.734 53.855,53.077 54.007,53.465 54.383,53.465 L 54.438,53.461 C 54.966,53.392 55.242,53 55.253,52.281 55.237,51.974 55.315,51.723 55.476,51.554 55.734,51.283 56.21,51.257 56.67,51.495 57.022,51.675 57.223,51.97 57.224,52.302 57.226,52.652 56.994,52.984 56.622,53.179 56.159,53.385 55.643,53.71 55.755,54.382 55.791,54.676 56.028,54.825 56.456,54.825 56.544,54.825 56.638,54.82 56.736,54.815 56.829,54.81 56.924,54.805 57.018,54.805 57.287,54.805 57.366,54.852 57.391,54.879 57.414,54.908 57.422,54.979 57.41,55.07 Z" />
      <path
         style="fill:#2258a5;fill-opacity:1"
         inkscape:connector-curvature="0"
         id="path52"
         d="M 62.144,41.455 C 61.838,41.455 61.54,41.644 61.278,41.812 61.173,41.879 61.02,41.976 60.935,42.007 60.85,41.864 60.815,41.664 61.105,41.252 61.474,40.714 61.541,40.099 61.283,39.607 61.036,39.137 60.532,38.858 59.932,38.858 L 59.864,38.86 C 59.226,38.882 58.692,39.175 58.436,39.643 58.198,40.079 58.229,40.61 58.52,41.101 58.777,41.547 58.711,41.672 58.617,41.748 58.539,41.712 58.393,41.595 58.294,41.514 58.022,41.295 57.714,41.047 57.366,41.047 57.204,41.047 56.967,41.105 56.776,41.364 56.492,41.697 56.375,42.039 56.427,42.383 56.489,42.781 56.775,43.143 57.278,43.455 L 57.403,43.531 C 57.577,43.636 57.985,43.883 58.003,44.008 58.003,44.008 57.993,44.012 57.97,44.012 57.896,44.012 57.781,43.982 57.669,43.952 57.521,43.912 57.353,43.867 57.187,43.867 56.837,43.867 56.588,44.07 56.486,44.438 56.282,45.176 56.843,45.642 57.113,45.867 L 57.275,46.004 C 57.519,46.206 57.597,46.283 57.609,46.347 57.574,46.35 57.534,46.35 57.502,46.35 57.318,46.353 57.065,46.356 56.891,46.538 56.785,46.647 56.733,46.796 56.737,46.981 56.754,47.661 57.579,48.169 57.952,48.381 57.831,48.819 57.864,48.871 57.889,48.906 L 57.978,48.952 57.988,48.949 58.014,48.967 C 58.066,48.967 58.134,48.965 58.338,48.531 58.518,48.574 58.81,48.634 59.117,48.634 59.6,48.634 59.958,48.488 60.179,48.199 60.574,47.68 60.143,47.317 59.98,47.181 59.955,47.16 59.921,47.13 59.896,47.107 59.943,47.033 60.038,47.005 60.341,46.953 60.418,46.939 60.499,46.926 60.584,46.908 L 60.628,46.898 C 60.954,46.835 61.718,46.685 61.925,45.76 61.989,45.468 61.961,45.238 61.839,45.058 61.657,44.79 61.341,44.74 61.087,44.699 60.991,44.683 60.831,44.658 60.804,44.639 60.789,44.473 61.104,44.374 61.517,44.263 61.581,44.245 61.644,44.228 61.706,44.21 62.205,44.067 62.593,43.768 62.8,43.366 63.005,42.963 63.019,42.485 62.831,41.968 62.646,41.545 62.355,41.455 62.144,41.455 Z M 58.061,48.836 C 58.066,48.831 58.071,48.824 58.076,48.818 58.079,48.822 58.085,48.825 58.087,48.832 Z M 62.291,43.109 C 62.158,43.369 61.895,43.566 61.547,43.666 61.488,43.682 61.428,43.699 61.366,43.716 60.865,43.852 60.178,44.037 60.235,44.696 60.282,45.149 60.728,45.22 60.995,45.264 61.134,45.286 61.323,45.318 61.367,45.38 61.377,45.396 61.407,45.458 61.367,45.639 61.252,46.157 60.883,46.27 60.515,46.342 L 60.468,46.351 C 60.388,46.368 60.313,46.38 60.241,46.394 59.867,46.458 59.48,46.526 59.329,46.98 59.22,47.291 59.464,47.496 59.61,47.619 59.662,47.663 59.758,47.743 59.766,47.775 59.766,47.775 59.763,47.8 59.721,47.855 59.616,47.995 59.41,48.066 59.114,48.066 58.915,48.066 58.716,48.033 58.564,48.001 58.682,47.711 58.825,47.338 59.002,46.848 59.848,44.412 60.045,40.705 59.954,40.578 L 59.876,40.539 C 59.783,40.539 59.783,40.539 59.698,41.131 59.541,42.235 59.172,44.817 58.519,46.686 58.345,47.164 58.217,47.532 58.121,47.823 57.423,47.4 57.307,47.11 57.303,46.969 57.303,46.955 57.303,46.944 57.304,46.936 57.35,46.924 57.446,46.922 57.506,46.922 57.701,46.919 58.027,46.915 58.137,46.605 58.299,46.118 57.962,45.837 57.636,45.567 L 57.474,45.431 C 57.186,45.192 56.935,44.947 57.034,44.592 57.076,44.44 57.122,44.44 57.184,44.44 57.276,44.44 57.401,44.473 57.521,44.504 57.668,44.543 57.819,44.584 57.967,44.584 58.229,44.584 58.375,44.456 58.449,44.354 58.554,44.213 58.593,44.053 58.56,43.893 58.489,43.525 58.066,43.27 57.695,43.044 L 57.576,42.973 C 57.226,42.754 57.023,42.522 56.988,42.297 56.962,42.125 57.035,41.937 57.218,41.721 57.294,41.619 57.343,41.619 57.364,41.619 57.509,41.619 57.754,41.816 57.932,41.96 58.178,42.158 58.391,42.33 58.634,42.33 58.733,42.33 58.827,42.299 58.899,42.246 59.569,41.791 59.149,41.058 59.009,40.816 58.82,40.495 58.793,40.175 58.934,39.919 59.092,39.629 59.447,39.446 59.881,39.432 L 59.93,39.43 C 60.319,39.43 60.627,39.592 60.776,39.875 60.936,40.18 60.884,40.564 60.634,40.929 60.488,41.135 60.048,41.762 60.514,42.406 60.607,42.524 60.742,42.591 60.893,42.591 61.12,42.591 61.344,42.446 61.582,42.294 61.77,42.175 62.002,42.026 62.141,42.026 62.167,42.026 62.229,42.026 62.298,42.182 62.426,42.53 62.424,42.852 62.291,43.109 Z" />
      <path
         style="fill:#2258a5;fill-opacity:1"
         inkscape:connector-curvature="0"
         id="path54"
         d="M 58.373,27.039 C 57.918,26.546 57.146,26.465 56.5,26.858 55.954,27.191 55.634,27.707 55.642,28.237 55.651,28.732 55.943,29.18 56.447,29.466 56.867,29.704 56.852,29.885 56.816,29.989 56.808,29.989 56.797,29.99 56.786,29.99 56.692,29.99 56.56,29.967 56.421,29.942 56.247,29.912 56.052,29.877 55.864,29.877 55.221,29.877 55.057,30.309 55.016,30.565 54.948,30.982 55.022,31.331 55.238,31.6 55.489,31.914 55.909,32.091 56.491,32.126 L 56.602,32.13 C 56.842,32.139 57.29,32.156 57.384,32.259 57.385,32.26 57.387,32.262 57.387,32.265 57.336,32.301 57.182,32.341 57.086,32.366 56.768,32.447 56.106,32.617 56.283,33.366 56.458,34.116 57.202,34.255 57.519,34.314 L 57.744,34.358 C 58.038,34.414 58.142,34.445 58.185,34.493 58.158,34.511 58.123,34.53 58.097,34.545 57.939,34.637 57.72,34.763 57.658,35.006 57.62,35.154 57.649,35.311 57.745,35.472 58.111,36.066 59.09,36.1 59.497,36.102 59.598,36.525 59.639,36.527 59.703,36.527 59.715,36.527 59.724,36.525 59.734,36.523 59.76,36.521 59.814,36.501 59.834,36.476 59.859,36.448 59.908,36.384 59.894,36.038 60.788,35.775 61.278,35.376 61.342,34.852 61.428,34.209 60.875,34.104 60.666,34.064 60.632,34.058 60.588,34.049 60.553,34.04 60.557,33.951 60.629,33.878 60.877,33.679 60.933,33.634 60.992,33.586 61.056,33.533 L 61.088,33.506 C 61.344,33.291 61.942,32.789 61.679,31.877 61.521,31.345 61.2,31.233 60.957,31.233 60.771,31.233 60.593,31.298 60.436,31.356 60.332,31.394 60.215,31.435 60.135,31.426 60.041,31.31 60.272,31.07 60.56,30.791 60.617,30.736 60.672,30.682 60.721,30.632 61.104,30.258 61.301,29.803 61.282,29.351 61.261,28.899 61.026,28.478 60.604,28.135 60.43,27.994 60.252,27.923 60.079,27.923 59.62,27.923 59.37,28.38 59.171,28.747 59.11,28.858 59.025,29.016 58.964,29.086 58.798,29.003 58.728,28.845 58.77,28.329 58.811,27.819 58.67,27.362 58.373,27.039 Z M 58.789,29.63 C 58.851,29.658 58.916,29.672 58.982,29.672 59.314,29.672 59.495,29.339 59.67,29.018 59.777,28.821 59.957,28.491 60.078,28.491 60.096,28.491 60.15,28.499 60.244,28.576 60.537,28.814 60.699,29.091 60.711,29.376 60.725,29.664 60.586,29.964 60.318,30.227 60.269,30.277 60.215,30.328 60.162,30.379 59.805,30.726 59.264,31.25 59.683,31.773 59.795,31.924 59.956,32.003 60.15,32.003 60.314,32.003 60.474,31.945 60.629,31.889 60.747,31.846 60.87,31.801 60.956,31.801 60.99,31.801 61.061,31.801 61.13,32.035 61.278,32.547 61.009,32.826 60.72,33.069 L 60.687,33.098 C 60.628,33.147 60.572,33.192 60.519,33.235 60.216,33.478 59.906,33.728 59.998,34.207 60.059,34.529 60.371,34.588 60.559,34.624 60.625,34.637 60.75,34.661 60.776,34.686 60.776,34.686 60.786,34.71 60.777,34.781 60.757,34.935 60.604,35.217 59.839,35.461 59.799,35.144 59.733,34.727 59.629,34.171 59.217,31.814 57.561,28.236 57.33,28.236 57.305,28.236 57.28,28.246 57.263,28.264 57.209,28.317 57.209,28.317 57.441,28.903 57.846,29.933 58.795,32.345 59.129,34.27 59.231,34.81 59.309,35.217 59.373,35.529 58.559,35.501 58.307,35.299 58.23,35.176 58.224,35.164 58.218,35.155 58.216,35.147 58.249,35.115 58.329,35.069 58.38,35.04 58.55,34.942 58.832,34.779 58.772,34.457 58.677,33.959 58.257,33.878 57.851,33.8 L 57.622,33.756 C 57.255,33.688 56.919,33.596 56.835,33.237 56.797,33.075 56.786,33.031 57.224,32.919 57.501,32.848 57.918,32.741 57.954,32.313 57.962,32.145 57.909,31.993 57.801,31.875 57.546,31.596 57.054,31.578 56.62,31.562 L 56.516,31.558 C 56.113,31.534 55.823,31.426 55.679,31.245 55.569,31.107 55.533,30.91 55.575,30.657 55.598,30.515 55.634,30.449 55.86,30.449 55.998,30.449 56.161,30.478 56.318,30.506 56.483,30.535 56.638,30.563 56.782,30.563 57.102,30.563 57.245,30.412 57.313,30.272 57.439,29.982 57.53,29.429 56.723,28.973 56.397,28.787 56.213,28.524 56.209,28.232 56.203,27.905 56.422,27.575 56.793,27.348 57.209,27.095 57.676,27.131 57.95,27.428 58.138,27.632 58.226,27.936 58.197,28.284 58.17,28.66 58.113,29.364 58.789,29.63 Z" />
      <path
         style="fill:#2258a5;fill-opacity:1"
         inkscape:connector-curvature="0"
         id="path56"
         d="M 47.678,17.995 C 47.364,18.552 47.331,19.134 47.589,19.593 47.832,20.025 48.307,20.284 48.899,20.302 49.398,20.304 49.467,20.457 49.483,20.573 49.414,20.619 49.239,20.68 49.118,20.721 48.764,20.843 48.365,20.981 48.2,21.327 48.112,21.512 48.11,21.722 48.19,21.939 48.469,22.807 49.237,23.076 50.243,22.596 L 50.343,22.545 C 50.577,22.426 50.87,22.277 51.04,22.277 51.071,22.277 51.081,22.279 51.087,22.289 51.062,22.345 50.944,22.456 50.873,22.525 50.683,22.707 50.445,22.932 50.437,23.246 50.433,23.434 50.513,23.616 50.668,23.778 50.889,24.027 51.174,24.153 51.514,24.153 51.787,24.153 52.037,24.069 52.203,24.013 L 52.44,23.934 C 52.634,23.868 52.8,23.806 52.882,23.831 52.866,23.861 52.845,23.896 52.829,23.924 52.734,24.082 52.605,24.299 52.669,24.543 52.706,24.691 52.807,24.813 52.969,24.908 53.115,24.99 53.286,25.032 53.478,25.032 53.927,25.032 54.404,24.815 54.757,24.625 55.026,24.917 55.071,24.921 55.111,24.921 55.137,24.925 55.166,24.913 55.188,24.892 L 55.215,24.888 55.241,24.834 C 55.261,24.793 55.291,24.725 55.083,24.389 55.759,23.713 56.002,23.113 55.803,22.609 55.653,22.224 55.37,22.166 55.216,22.166 55.073,22.166 54.944,22.209 54.829,22.248 54.798,22.259 54.758,22.272 54.725,22.282 54.682,22.196 54.709,22.098 54.827,21.799 54.852,21.737 54.878,21.672 54.903,21.602 L 54.919,21.561 C 55.037,21.249 55.315,20.517 54.645,19.841 54.438,19.647 54.238,19.552 54.032,19.552 53.691,19.552 53.474,19.804 53.3,20.007 53.235,20.083 53.126,20.209 53.076,20.216 52.937,20.158 53.023,19.834 53.14,19.447 53.163,19.37 53.187,19.296 53.204,19.229 53.354,18.729 53.314,18.262 53.087,17.878 52.853,17.485 52.441,17.218 51.889,17.103 51.532,17.041 51.295,17.171 51.185,17.282 50.927,17.541 50.931,17.964 50.934,18.336 50.935,18.462 50.937,18.643 50.917,18.734 50.738,18.733 50.585,18.639 50.375,18.184 50.104,17.552 49.586,17.174 48.989,17.174 48.461,17.171 47.971,17.479 47.678,17.995 Z M 48.174,18.276 C 48.363,17.942 48.67,17.741 48.99,17.741 49.351,17.741 49.673,17.99 49.855,18.412 50.056,18.852 50.341,19.302 50.92,19.302 50.956,19.302 50.994,19.3 51.03,19.297 51.51,19.253 51.507,18.72 51.503,18.33 51.501,18.108 51.499,17.773 51.589,17.682 51.597,17.675 51.616,17.654 51.693,17.654 51.724,17.654 51.756,17.657 51.783,17.662 52.166,17.741 52.448,17.916 52.597,18.168 52.742,18.411 52.763,18.72 52.659,19.068 52.639,19.136 52.619,19.207 52.597,19.278 52.451,19.756 52.232,20.478 52.85,20.736 52.927,20.77 53.005,20.787 53.084,20.787 53.376,20.787 53.573,20.558 53.731,20.375 53.83,20.261 53.952,20.118 54.032,20.118 54.055,20.118 54.126,20.131 54.247,20.245 54.622,20.623 54.522,21.001 54.387,21.356 L 54.37,21.4 C 54.346,21.466 54.321,21.528 54.299,21.587 54.159,21.942 54.015,22.31 54.32,22.694 54.382,22.769 54.495,22.859 54.678,22.859 54.795,22.859 54.906,22.822 55.012,22.787 55.084,22.763 55.167,22.735 55.227,22.735 55.227,22.735 55.248,22.751 55.274,22.817 55.334,22.967 55.338,23.304 54.756,23.911 54.567,23.652 54.307,23.318 53.953,22.883 52.605,21.239 50.278,19.595 49.51,19.052 49.176,18.786 49.156,18.786 49.119,18.786 H 49.08 L 49.021,18.846 49.024,18.89 C 49.029,18.944 49.029,18.944 49.375,19.187 L 49.398,19.204 C 50.287,19.914 52.3,21.663 53.566,23.211 53.906,23.629 54.168,23.944 54.371,24.182 54.129,24.306 53.771,24.46 53.478,24.46 53.384,24.46 53.308,24.443 53.253,24.413 53.239,24.406 53.232,24.399 53.225,24.394 53.238,24.35 53.287,24.267 53.319,24.215 53.418,24.048 53.586,23.768 53.381,23.519 53.243,23.345 53.063,23.256 52.845,23.256 52.661,23.256 52.474,23.319 52.257,23.393 L 52.021,23.472 C 51.883,23.518 51.693,23.582 51.513,23.582 51.337,23.582 51.204,23.523 51.087,23.39 51.035,23.337 51.005,23.287 51.006,23.258 51.007,23.181 51.161,23.034 51.265,22.937 51.47,22.74 51.783,22.443 51.607,22.055 51.5,21.83 51.296,21.707 51.039,21.707 50.733,21.707 50.389,21.882 50.084,22.037 L 49.992,22.083 C 49.742,22.202 49.512,22.265 49.326,22.265 49.14,22.265 48.876,22.213 48.727,21.753 48.684,21.634 48.706,21.587 48.714,21.572 48.776,21.441 49.079,21.336 49.302,21.26 49.648,21.141 50.077,20.993 50.055,20.582 50.029,20.196 49.807,19.736 48.908,19.732 48.522,19.72 48.23,19.571 48.085,19.313 47.928,19.032 47.96,18.654 48.174,18.276 Z" />
      <path
         style="fill:#2258a5;fill-opacity:1"
         inkscape:connector-curvature="0"
         id="path58"
         d="M 21.235,45.6 22.515,42.239 H 21.791 L 21.119,43.984 C 21.022,44.243 20.925,44.546 20.841,44.85 H 20.834 C 20.751,44.539 20.66,44.243 20.556,43.971 L 19.903,42.239 H 19.133 L 20.42,45.6 Z" />
      <polygon
         style="fill:#2258a5;fill-opacity:1"
         id="polygon60"
         points="23.406,42.238 23.406,45.6 25.385,45.6 25.385,45.043 24.104,45.043 24.104,44.139 25.326,44.139 25.326,43.607 24.104,43.607 24.104,42.787 25.385,42.787 25.385,42.238 " />
      <polygon
         style="fill:#2258a5;fill-opacity:1"
         id="polygon62"
         points="26.257,42.832 27.188,42.832 27.188,45.6 27.886,45.6 27.886,42.832 28.818,42.832 28.818,42.238 26.257,42.238 " />
      <polygon
         style="fill:#2258a5;fill-opacity:1"
         id="polygon64"
         points="31.74,43.607 30.518,43.607 30.518,42.787 31.797,42.787 31.797,42.238 29.819,42.238 29.819,45.6 31.797,45.6 31.797,45.043 30.518,45.043 30.518,44.139 31.74,44.139 " />
      <path
         style="fill:#2258a5;fill-opacity:1"
         inkscape:connector-curvature="0"
         id="path66"
         d="M 35.178,44.028 34.046,42.238 H 33.115 V 45.6 H 33.794 L 33.788,43.841 C 33.788,43.531 33.782,43.324 33.768,43.137 H 33.774 C 33.864,43.336 33.987,43.576 34.117,43.777 L 35.274,45.6 H 36.204 V 42.239 H 35.526 L 35.532,43.719 C 35.532,44.153 35.539,44.475 35.551,44.688 H 35.546 C 35.437,44.455 35.308,44.234 35.178,44.028 Z" />
      <path
         style="fill:#2258a5;fill-opacity:1"
         inkscape:connector-curvature="0"
         id="path68"
         d="M 38.281,45.082 C 37.997,45.082 37.732,45.029 37.538,44.953 L 37.512,45.58 C 37.7,45.625 37.971,45.664 38.203,45.664 39.064,45.664 39.658,45.218 39.658,44.532 39.658,43.478 38.158,43.73 38.158,43.156 38.158,42.903 38.346,42.735 38.771,42.735 38.966,42.735 39.231,42.773 39.413,42.832 L 39.438,42.238 C 39.25,42.205 38.992,42.179 38.798,42.179 37.911,42.179 37.42,42.599 37.42,43.232 37.42,44.325 38.9,44.015 38.9,44.61 38.901,44.939 38.598,45.082 38.281,45.082 Z" />
      <polygon
         style="fill:#2258a5;fill-opacity:1"
         id="polygon70"
         points="41.578,42.238 40.88,42.238 40.88,45.6 41.578,45.6 41.578,44.021 42.825,45.6 43.75,45.6 42.303,43.854 43.679,42.238 42.819,42.238 41.578,43.736 " />
      <path
         style="fill:#2258a5;fill-opacity:1"
         inkscape:connector-curvature="0"
         id="path72"
         d="M 45.246,44.945 H 46.648 L 46.887,45.599 H 47.663 L 46.395,42.237 H 45.575 L 44.303,45.6 H 45 Z M 45.775,43.491 C 45.84,43.316 45.904,43.129 45.945,42.968 H 45.95 C 45.996,43.123 46.06,43.322 46.125,43.498 L 46.475,44.441 H 45.414 Z" />
      <path
         style="fill:#2258a5;fill-opacity:1"
         inkscape:connector-curvature="0"
         id="path74"
         d="M 49.771,42.218 C 49.375,42.218 48.957,42.231 48.671,42.238 V 45.6 H 49.37 V 44.493 C 49.454,44.501 49.583,44.507 49.667,44.507 50.521,44.507 51.108,44.042 51.108,43.305 51.109,42.625 50.625,42.218 49.771,42.218 Z M 49.668,43.95 C 49.577,43.95 49.447,43.945 49.371,43.924 V 42.787 C 49.461,42.781 49.584,42.781 49.713,42.781 50.147,42.781 50.366,43.019 50.366,43.349 50.366,43.744 50.102,43.95 49.668,43.95 Z" />
      <path
         style="fill:#2258a5;fill-opacity:1"
         inkscape:connector-curvature="0"
         id="path76"
         d="M 21.245,51.266 C 22.208,51.266 23.009,50.606 23.009,49.495 23.009,48.357 22.33,47.789 21.354,47.789 20.423,47.789 19.608,48.454 19.608,49.56 19.609,50.566 20.152,51.266 21.245,51.266 Z M 21.31,48.396 C 21.886,48.396 22.26,48.791 22.26,49.54 22.26,50.29 21.82,50.652 21.284,50.652 20.624,50.652 20.353,50.147 20.353,49.508 20.353,48.783 20.798,48.396 21.31,48.396 Z" />
      <path
         style="fill:#2258a5;fill-opacity:1"
         inkscape:connector-curvature="0"
         id="path78"
         d="M 25.472,51.252 C 25.802,51.252 26.099,51.2 26.378,51.104 L 26.319,50.483 C 26.119,50.581 25.867,50.639 25.615,50.639 24.948,50.639 24.561,50.257 24.561,49.534 24.561,48.868 24.916,48.389 25.576,48.389 25.809,48.389 26.048,48.428 26.287,48.506 L 26.351,47.892 C 26.125,47.828 25.847,47.801 25.627,47.801 24.366,47.801 23.817,48.648 23.817,49.598 23.818,50.619 24.374,51.252 25.472,51.252 Z" />
      <polygon
         style="fill:#2258a5;fill-opacity:1"
         id="polygon80"
         points="28.175,49.785 29.759,49.785 29.759,51.207 30.457,51.207 30.457,47.846 29.759,47.846 29.759,49.184 28.175,49.184 28.175,47.846 27.477,47.846 27.477,51.207 28.175,51.207 " />
      <polygon
         style="fill:#2258a5;fill-opacity:1"
         id="polygon82"
         points="34.144,51.207 34.144,49.629 35.392,51.207 36.316,51.207 34.868,49.462 36.244,47.846 35.385,47.846 34.144,49.346 34.144,47.846 33.446,47.846 33.446,51.207 " />
      <path
         style="fill:#2258a5;fill-opacity:1"
         inkscape:connector-curvature="0"
         id="path84"
         d="M 38.418,51.266 C 39.381,51.266 40.182,50.606 40.182,49.495 40.182,48.357 39.503,47.789 38.528,47.789 37.596,47.789 36.782,48.454 36.782,49.56 36.781,50.566 37.324,51.266 38.418,51.266 Z M 38.482,48.396 C 39.056,48.396 39.431,48.791 39.431,49.54 39.431,50.29 38.992,50.652 38.454,50.652 37.795,50.652 37.524,50.147 37.524,49.508 37.525,48.783 37.971,48.396 38.482,48.396 Z" />
      <path
         style="fill:#2258a5;fill-opacity:1"
         inkscape:connector-curvature="0"
         id="path86"
         d="M 42.215,49.385 43.372,51.207 H 44.303 V 47.846 H 43.624 L 43.631,49.326 C 43.631,49.759 43.637,50.082 43.65,50.295 H 43.644 C 43.534,50.063 43.405,49.843 43.276,49.637 L 42.144,47.846 H 41.212 V 51.207 H 41.892 L 41.886,49.449 C 41.886,49.138 41.879,48.931 41.865,48.744 H 41.873 C 41.963,48.943 42.086,49.184 42.215,49.385 Z" />
      <path
         style="fill:#2258a5;fill-opacity:1"
         inkscape:connector-curvature="0"
         id="path88"
         d="M 46.346,50.689 C 46.063,50.689 45.797,50.638 45.604,50.56 L 45.579,51.187 C 45.766,51.233 46.038,51.273 46.27,51.273 47.129,51.273 47.724,50.826 47.724,50.14 47.724,49.087 46.225,49.338 46.225,48.763 46.225,48.511 46.412,48.343 46.838,48.343 47.032,48.343 47.297,48.382 47.479,48.441 L 47.504,47.845 C 47.316,47.813 47.059,47.787 46.863,47.787 45.978,47.787 45.486,48.207 45.486,48.841 45.486,49.933 46.966,49.622 46.966,50.218 46.967,50.548 46.664,50.689 46.346,50.689 Z" />
      <polygon
         style="fill:#2258a5;fill-opacity:1"
         id="polygon90"
         points="48.4,48.441 49.331,48.441 49.331,51.207 50.029,51.207 50.029,48.441 50.96,48.441 50.96,47.846 48.4,47.846 " />
      <path
         style="fill:#2258a5;fill-opacity:1"
         inkscape:connector-curvature="0"
         id="path92"
         d="M 23.973,38.321 23.89,38.31 C 22.125,38.091 22.115,37.742 22.073,36.275 V 33.727 L 25.022,36.935 C 26.146,38.167 26.766,38.846 28.402,38.846 28.707,38.846 29.043,38.824 29.432,38.776 L 29.515,38.767 29.521,38.372 29.428,38.368 C 28.445,38.325 27.908,37.767 26.84,36.659 26.693,36.505 26.536,36.343 26.37,36.173 L 23.496,32.975 24.653,31.792 24.9,31.533 C 25.872,30.512 26.974,29.354 28.443,29.199 L 28.528,29.19 V 28.796 H 24.636 V 29.19 L 24.721,29.199 C 25.106,29.24 25.313,29.329 25.372,29.482 25.481,29.766 25.14,30.349 24.328,31.261 L 22.071,33.67 V 31.247 C 22.114,29.775 22.124,29.424 23.505,29.208 L 23.586,29.195 V 28.805 H 18.852 V 29.198 L 18.934,29.209 C 20.571,29.427 20.58,29.777 20.623,31.244 V 36.271 C 20.58,37.743 20.57,38.091 18.934,38.31 L 18.852,38.322 V 38.715 H 23.972 Z" />
      <path
         style="fill:#2258a5;fill-opacity:1"
         inkscape:connector-curvature="0"
         id="path94"
         d="M 36.893,38.32 36.809,38.31 C 34.962,38.09 34.892,37.671 34.892,35.932 V 29.424 H 35.655 C 37.343,29.424 38.032,29.947 38.492,31.579 L 38.517,31.664 38.884,31.584 38.702,28.79 H 29.63 L 29.453,31.584 29.82,31.664 29.845,31.579 C 30.305,29.948 30.994,29.424 32.683,29.424 H 33.446 V 35.932 C 33.446,37.671 33.376,38.089 31.529,38.31 L 31.446,38.32 V 38.715 H 36.894 V 38.32 Z" />
      <path
         style="fill:#2258a5;fill-opacity:1"
         inkscape:connector-curvature="0"
         id="path96"
         d="M 51.458,29.209 51.54,29.198 V 28.805 H 46.42 V 29.197 L 46.5,29.209 C 48.32,29.473 48.32,29.709 48.32,31.244 V 33.221 H 43.154 V 31.244 C 43.154,29.709 43.154,29.473 44.972,29.209 L 45.054,29.197 V 28.805 H 39.935 V 29.198 L 40.017,29.209 C 41.654,29.427 41.663,29.776 41.706,31.244 V 36.272 C 41.662,37.744 41.653,38.091 40.017,38.31 L 39.935,38.322 V 38.715 H 45.054 V 38.323 L 44.972,38.31 C 43.154,38.046 43.154,37.81 43.154,36.275 V 34.012 H 48.32 V 36.275 C 48.32,37.81 48.32,38.046 46.5,38.31 L 46.42,38.323 V 38.715 H 51.54 V 38.322 L 51.458,38.31 C 49.821,38.091 49.812,37.743 49.77,36.275 V 31.247 C 49.812,29.777 49.821,29.427 51.458,29.209 Z" />
      <path
         style="fill:#2258a5;fill-opacity:1"
         inkscape:connector-curvature="0"
         id="path98"
         d="M 23.15,15.833 C 23.115,15.904 22.883,16.394 23.225,16.918 23.598,17.489 24.232,17.391 24.253,17.388 24.691,17.941 25.421,18.601 26.018,18.43 26.018,18.43 29.78,16.686 34.997,16.679 H 35.001 C 40.221,16.686 43.983,18.43 43.983,18.43 44.58,18.6 45.309,17.941 45.747,17.388 45.768,17.391 46.402,17.489 46.775,16.918 47.118,16.394 46.884,15.904 46.85,15.833 47.162,15.328 47.642,14.879 47.642,14.879 47.864,14.674 48.002,14.383 48.002,14.059 48.002,13.442 47.5,12.938 46.883,12.938 46.832,12.938 46.784,12.942 46.737,12.949 46.729,12.918 46.718,12.886 46.71,12.855 47.013,12.699 47.222,12.386 47.222,12.024 47.222,11.506 46.802,11.086 46.284,11.086 46.11,11.086 45.951,11.136 45.811,11.218 45.784,11.187 45.758,11.156 45.73,11.124 45.876,10.984 45.966,10.788 45.966,10.571 45.966,10.144 45.619,9.798 45.192,9.798 44.93,9.798 44.7,9.929 44.561,10.13 44.516,10.101 44.471,10.071 44.426,10.043 44.512,9.926 44.565,9.783 44.565,9.627 44.565,9.239 44.249,8.923 43.86,8.923 43.555,8.923 43.299,9.119 43.202,9.39 43.128,9.358 43.054,9.327 42.979,9.296 43.036,9.201 43.07,9.091 43.07,8.973 43.07,8.621 42.784,8.335 42.431,8.335 42.114,8.335 41.851,8.569 41.803,8.875 41.756,8.86 41.71,8.845 41.66,8.83 41.555,8.456 41.215,8.181 40.806,8.181 40.716,8.181 40.628,8.197 40.548,8.223 40.515,8.196 40.483,8.17 40.449,8.145 40.45,8.131 40.452,8.118 40.452,8.103 40.452,7.689 40.114,7.352 39.7,7.352 39.536,7.352 39.387,7.405 39.264,7.495 39.235,7.484 39.205,7.472 39.176,7.461 39.176,7.455 39.178,7.449 39.178,7.443 39.178,7.068 38.873,6.764 38.498,6.764 38.244,6.764 38.024,6.907 37.908,7.115 37.856,7.105 37.803,7.095 37.749,7.086 37.75,7.078 37.752,7.069 37.752,7.062 37.752,6.721 37.474,6.443 37.133,6.443 36.837,6.443 36.588,6.653 36.529,6.932 36.469,6.928 36.408,6.923 36.347,6.919 36.421,6.743 36.463,6.55 36.463,6.348 36.463,5.786 36.146,5.298 35.679,5.052 35.679,5.052 35.508,4.963 35.259,4.914 35.259,4.4 35.259,3.796 35.259,3.796 35.259,3.796 35.825,3.796 35.887,3.796 35.908,3.771 35.95,3.686 35.95,3.533 35.95,3.384 35.908,3.298 35.887,3.273 35.825,3.273 35.259,3.273 35.259,3.273 V 2.646 C 35.233,2.625 35.147,2.583 34.996,2.583 V 2.583 C 34.845,2.583 34.76,2.624 34.733,2.646 V 3.272 C 34.733,3.272 34.17,3.272 34.108,3.272 34.086,3.297 34.044,3.383 34.044,3.532 34.044,3.684 34.086,3.77 34.108,3.795 34.17,3.795 34.733,3.795 34.733,3.795 34.733,3.795 34.733,4.399 34.733,4.913 34.491,4.961 34.32,5.05 34.32,5.05 33.854,5.296 33.536,5.784 33.536,6.346 33.536,6.548 33.578,6.741 33.653,6.917 33.592,6.921 33.53,6.925 33.471,6.93 33.412,6.651 33.164,6.441 32.868,6.441 32.526,6.441 32.248,6.719 32.248,7.06 32.248,7.068 32.25,7.076 32.251,7.084 32.196,7.094 32.143,7.103 32.091,7.113 31.976,6.905 31.756,6.762 31.503,6.762 31.128,6.762 30.822,7.066 30.822,7.441 30.822,7.447 30.824,7.453 30.824,7.459 30.795,7.47 30.766,7.482 30.736,7.493 30.613,7.404 30.464,7.35 30.3,7.35 29.885,7.35 29.548,7.687 29.548,8.101 29.548,8.115 29.549,8.128 29.55,8.143 29.517,8.168 29.484,8.194 29.452,8.221 29.37,8.195 29.283,8.179 29.193,8.179 28.786,8.179 28.446,8.455 28.339,8.828 28.29,8.843 28.245,8.858 28.196,8.873 28.149,8.567 27.886,8.333 27.568,8.333 27.216,8.333 26.93,8.62 26.93,8.971 26.93,9.09 26.964,9.2 27.021,9.294 26.946,9.325 26.871,9.356 26.798,9.388 26.701,9.117 26.444,8.921 26.139,8.921 25.75,8.921 25.434,9.236 25.434,9.625 25.434,9.781 25.486,9.924 25.573,10.041 25.528,10.07 25.483,10.099 25.439,10.128 25.3,9.928 25.068,9.796 24.807,9.796 24.38,9.796 24.033,10.143 24.033,10.569 24.033,10.786 24.124,10.983 24.269,11.123 24.241,11.154 24.215,11.185 24.188,11.216 24.049,11.134 23.888,11.084 23.714,11.084 23.198,11.084 22.777,11.504 22.777,12.022 22.777,12.385 22.986,12.697 23.289,12.853 23.28,12.884 23.269,12.916 23.261,12.947 23.214,12.941 23.165,12.937 23.115,12.937 22.498,12.937 21.995,13.44 21.995,14.057 21.995,14.381 22.133,14.672 22.355,14.877 22.359,14.878 22.838,15.327 23.15,15.833 Z M 24.119,17 C 23.739,17 23.431,16.691 23.431,16.311 23.431,16.167 23.475,16.034 23.55,15.924 23.673,15.74 23.882,15.619 24.119,15.619 24.356,15.619 24.565,15.74 24.688,15.923 24.764,16.033 24.808,16.167 24.808,16.311 24.808,16.691 24.5,17 24.119,17 Z M 34.998,14.746 C 34.621,14.746 34.315,14.44 34.315,14.062 34.315,13.685 34.621,13.379 34.998,13.379 35.376,13.379 35.684,13.685 35.684,14.062 35.684,14.44 35.376,14.746 34.998,14.746 Z M 35,9.416 C 35.376,9.416 35.682,9.72 35.682,10.095 35.682,10.47 35.376,10.774 35,10.774 34.625,10.774 34.321,10.469 34.321,10.095 34.32,9.719 34.624,9.416 35,9.416 Z M 34.469,8.662 C 34.469,8.37 34.706,8.132 34.999,8.132 35.292,8.132 35.531,8.369 35.531,8.662 35.531,8.955 35.293,9.192 34.999,9.192 34.707,9.192 34.469,8.955 34.469,8.662 Z M 34.997,11.039 C 35.463,11.039 35.841,11.415 35.841,11.88 35.841,12.092 35.761,12.287 35.631,12.435 35.455,12.302 35.235,12.223 34.998,12.223 34.76,12.223 34.541,12.303 34.366,12.437 34.235,12.289 34.156,12.094 34.156,11.881 34.156,11.415 34.533,11.039 34.997,11.039 Z M 45.88,17 C 45.5,17 45.192,16.692 45.192,16.312 45.192,16.126 45.266,15.958 45.385,15.834 45.51,15.702 45.686,15.62 45.881,15.62 46.178,15.62 46.43,15.808 46.524,16.07 46.553,16.145 46.569,16.227 46.569,16.312 46.568,16.691 46.26,17 45.88,17 Z M 46.883,13.318 C 47.291,13.318 47.623,13.65 47.623,14.058 47.623,14.326 47.363,14.651 47.134,14.793 46.94,14.564 46.652,14.417 46.327,14.417 46.299,14.417 46.271,14.419 46.242,14.422 46.18,14.314 46.142,14.191 46.142,14.058 46.143,13.65 46.475,13.318 46.883,13.318 Z M 46.285,11.465 C 46.592,11.465 46.842,11.715 46.842,12.023 46.842,12.331 46.592,12.581 46.285,12.581 45.976,12.581 45.724,12.331 45.724,12.023 45.725,11.716 45.977,11.465 46.285,11.465 Z M 45.193,10.177 C 45.411,10.177 45.588,10.353 45.588,10.571 45.588,10.787 45.411,10.963 45.193,10.963 44.976,10.963 44.8,10.787 44.8,10.571 44.801,10.353 44.977,10.177 45.193,10.177 Z M 43.861,9.302 C 44.04,9.302 44.185,9.447 44.185,9.625 44.185,9.804 44.039,9.949 43.861,9.949 43.681,9.949 43.538,9.803 43.538,9.625 43.538,9.447 43.683,9.302 43.861,9.302 Z M 42.433,8.713 C 42.576,8.713 42.691,8.829 42.691,8.971 42.691,9.114 42.576,9.229 42.433,9.229 42.291,9.229 42.175,9.113 42.175,8.971 42.175,8.829 42.291,8.713 42.433,8.713 Z M 41.592,9.488 C 43.749,10.176 44.869,11.219 45.381,12.261 45.796,13.216 45.725,13.439 45.76,14.046 45.772,14.258 45.824,14.4 45.866,14.525 45.373,14.794 45.314,15.174 45.306,15.199 45.286,15.186 45.266,15.172 45.245,15.157 45.063,15.01 44.833,14.919 44.581,14.921 43.796,14.928 43.309,15.696 43.627,16.438 43.704,16.616 44.142,17.262 44.999,16.951 45.05,17.02 45.107,17.083 45.172,17.138 44.925,17.621 44.347,17.85 43.83,17.648 43.315,17.447 42.954,17.024 42.811,16.531 42.428,16.872 41.894,17.036 41.354,16.929 40.774,16.816 40.394,16.251 40.508,15.672 40.518,15.618 40.57,15.407 40.594,15.329 40.67,15.733 40.983,16.072 41.41,16.155 41.973,16.266 42.522,15.896 42.633,15.335 42.743,14.772 42.374,14.224 41.811,14.113 41.75,14.1 41.684,14.113 41.62,14.113 41.638,14.064 41.658,14.009 41.658,14.009 41.682,13.885 41.682,13.763 41.663,13.645 42.176,13.507 42.554,13.039 42.554,12.484 42.554,12.037 42.308,11.647 41.946,11.439 42.248,11.265 42.453,10.943 42.453,10.571 42.453,10.048 42.051,9.622 41.539,9.575 41.559,9.547 41.576,9.517 41.592,9.488 Z M 40.835,12.789 C 40.749,12.771 40.664,12.767 40.579,12.771 40.546,12.681 40.525,12.585 40.525,12.484 40.525,12.029 40.895,11.66 41.35,11.66 41.805,11.66 42.175,12.03 42.175,12.484 42.175,12.876 41.9,13.204 41.532,13.287 41.387,13.037 41.141,12.848 40.835,12.789 Z M 42.073,10.57 C 42.073,10.916 41.793,11.197 41.447,11.197 41.101,11.197 40.82,10.916 40.82,10.57 40.82,10.225 41.101,9.944 41.447,9.944 41.793,9.944 42.073,10.226 42.073,10.57 Z M 40.809,8.559 C 41.09,8.559 41.32,8.788 41.32,9.069 41.32,9.35 41.091,9.579 40.809,9.579 40.527,9.579 40.301,9.35 40.301,9.069 40.301,8.788 40.528,8.559 40.809,8.559 Z M 40.475,13.91 C 40.852,13.91 41.159,14.216 41.159,14.593 41.159,14.97 40.852,15.277 40.475,15.277 40.097,15.277 39.791,14.97 39.791,14.593 39.791,14.215 40.097,13.91 40.475,13.91 Z M 39.703,7.73 C 39.908,7.73 40.074,7.896 40.074,8.101 40.074,8.305 39.908,8.471 39.703,8.471 39.498,8.471 39.332,8.305 39.332,8.101 39.332,7.896 39.498,7.73 39.703,7.73 Z M 38.5,7.142 C 38.666,7.142 38.801,7.276 38.801,7.441 38.801,7.606 38.666,7.74 38.5,7.74 38.336,7.74 38.203,7.606 38.203,7.441 38.203,7.276 38.336,7.142 38.5,7.142 Z M 37.135,6.82 C 37.268,6.82 37.375,6.927 37.375,7.058 37.375,7.19 37.268,7.298 37.135,7.298 37.005,7.298 36.899,7.191 36.899,7.058 36.898,6.927 37.005,6.82 37.135,6.82 Z M 39.842,12.725 39.994,12.99 C 39.805,13.139 39.663,13.353 39.613,13.61 39.613,13.61 39.611,13.667 39.609,13.718 39.551,13.695 39.497,13.661 39.435,13.649 38.873,13.539 38.324,13.907 38.214,14.47 38.105,15.032 38.472,15.58 39.036,15.691 39.464,15.775 39.88,15.58 40.104,15.234 40.096,15.316 40.065,15.529 40.054,15.584 39.94,16.164 39.376,16.543 38.795,16.429 38.254,16.324 37.858,15.976 37.631,15.515 37.32,15.923 36.863,16.193 36.311,16.193 35.721,16.193 35.238,15.712 35.238,15.121 35.238,15.065 35.248,14.849 35.255,14.768 35.41,15.15 35.784,15.422 36.219,15.422 36.793,15.422 37.261,14.955 37.261,14.382 37.261,13.808 36.793,13.341 36.219,13.341 36.157,13.341 36.094,13.366 36.031,13.378 36.039,13.327 36.048,13.268 36.048,13.268 36.048,13.165 36.032,13.066 36.005,12.972 L 36.377,12.732 C 36.377,12.732 36.311,9.212 35.682,7.64 35.703,7.629 35.724,7.616 35.744,7.604 40.889,7.895 40.447,11.469 39.842,12.725 Z M 36.076,6.252 C 36.076,6.274 36.079,6.296 36.079,6.319 36.079,6.531 36.016,6.728 35.908,6.893 35.814,6.89 35.691,6.888 35.559,6.887 35.569,6.844 35.576,6.798 35.576,6.752 35.576,6.536 35.455,6.351 35.279,6.252 Z M 35.26,5.286 C 35.566,5.359 35.829,5.579 35.967,5.852 H 35.26 Z M 34.999,6.513 C 35.13,6.513 35.237,6.62 35.237,6.751 35.237,6.882 35.13,6.989 34.999,6.989 34.868,6.989 34.761,6.883 34.761,6.751 34.761,6.62 34.868,6.513 34.999,6.513 Z M 34.999,7.216 C 35.196,7.216 35.357,7.376 35.357,7.573 35.357,7.771 35.196,7.93 34.999,7.93 34.801,7.93 34.642,7.77 34.642,7.573 34.642,7.376 34.801,7.216 34.999,7.216 Z M 34.738,5.286 V 5.852 H 34.034 C 34.172,5.579 34.435,5.359 34.738,5.286 Z M 33.926,6.252 H 34.72 C 34.544,6.351 34.425,6.536 34.425,6.752 34.425,6.798 34.431,6.844 34.442,6.887 34.311,6.888 34.188,6.89 34.094,6.893 33.987,6.727 33.923,6.531 33.923,6.319 33.922,6.296 33.924,6.274 33.926,6.252 Z M 32.866,6.82 C 32.996,6.82 33.103,6.927 33.103,7.058 33.103,7.19 32.996,7.298 32.866,7.298 32.734,7.298 32.626,7.191 32.626,7.058 32.626,6.927 32.734,6.82 32.866,6.82 Z M 31.5,7.142 C 31.664,7.142 31.797,7.276 31.797,7.441 31.797,7.606 31.665,7.74 31.5,7.74 31.334,7.74 31.199,7.606 31.199,7.441 31.2,7.275 31.335,7.142 31.5,7.142 Z M 30.299,7.73 C 30.503,7.73 30.669,7.896 30.669,8.101 30.669,8.305 30.502,8.471 30.299,8.471 30.094,8.471 29.927,8.305 29.927,8.101 29.927,7.896 30.094,7.73 30.299,7.73 Z M 34.256,7.604 C 34.276,7.616 34.297,7.628 34.317,7.64 33.689,9.212 33.623,12.732 33.623,12.732 L 33.995,12.972 C 33.968,13.066 33.953,13.165 33.953,13.268 33.953,13.268 33.961,13.327 33.97,13.378 33.908,13.367 33.844,13.341 33.782,13.341 33.208,13.341 32.741,13.808 32.741,14.382 32.741,14.955 33.208,15.422 33.782,15.422 34.218,15.422 34.59,15.151 34.744,14.768 34.751,14.849 34.761,15.065 34.761,15.121 34.761,15.712 34.28,16.193 33.69,16.193 33.139,16.193 32.682,15.922 32.371,15.515 32.143,15.976 31.747,16.324 31.206,16.429 30.625,16.543 30.061,16.163 29.947,15.584 29.937,15.529 29.906,15.315 29.897,15.234 30.122,15.58 30.538,15.775 30.966,15.691 31.53,15.581 31.897,15.033 31.787,14.47 31.678,13.907 31.129,13.538 30.566,13.649 30.504,13.661 30.45,13.695 30.392,13.718 30.392,13.667 30.389,13.61 30.389,13.61 30.339,13.354 30.198,13.139 30.008,12.99 L 30.161,12.725 C 29.553,11.469 29.111,7.895 34.256,7.604 Z M 30.21,14.593 C 30.21,14.97 29.904,15.276 29.526,15.276 29.149,15.276 28.842,14.97 28.842,14.593 28.842,14.216 29.148,13.909 29.526,13.909 29.905,13.91 30.21,14.215 30.21,14.593 Z M 28.469,13.287 C 28.102,13.204 27.826,12.876 27.826,12.484 27.826,12.029 28.196,11.66 28.651,11.66 29.106,11.66 29.476,12.03 29.476,12.484 29.476,12.585 29.455,12.681 29.422,12.771 29.338,12.767 29.253,12.771 29.167,12.789 28.861,12.848 28.614,13.037 28.469,13.287 Z M 29.192,8.559 C 29.473,8.559 29.7,8.788 29.7,9.069 29.7,9.35 29.472,9.579 29.192,9.579 28.91,9.579 28.681,9.35 28.681,9.069 28.681,8.788 28.91,8.559 29.192,8.559 Z M 28.554,9.944 C 28.899,9.944 29.18,10.225 29.18,10.57 29.18,10.916 28.899,11.197 28.554,11.197 28.208,11.197 27.928,10.916 27.928,10.57 27.928,10.226 28.208,9.944 28.554,9.944 Z M 27.569,8.713 C 27.711,8.713 27.826,8.829 27.826,8.971 27.826,9.114 27.71,9.229 27.569,9.229 27.426,9.229 27.311,9.113 27.311,8.971 27.311,8.829 27.426,8.713 27.569,8.713 Z M 26.141,9.302 C 26.319,9.302 26.464,9.447 26.464,9.625 26.464,9.804 26.319,9.949 26.141,9.949 25.961,9.949 25.816,9.803 25.816,9.625 25.815,9.447 25.961,9.302 26.141,9.302 Z M 28.409,9.488 C 28.425,9.517 28.442,9.547 28.46,9.574 27.95,9.621 27.547,10.047 27.547,10.57 27.547,10.943 27.752,11.264 28.053,11.438 27.69,11.646 27.445,12.036 27.445,12.483 27.445,13.038 27.823,13.505 28.336,13.644 28.317,13.762 28.317,13.885 28.341,14.008 28.341,14.008 28.361,14.064 28.379,14.112 28.316,14.112 28.248,14.1 28.187,14.112 27.624,14.222 27.255,14.77 27.366,15.334 27.475,15.896 28.024,16.265 28.587,16.154 29.015,16.071 29.328,15.732 29.405,15.328 29.429,15.406 29.48,15.617 29.49,15.671 29.604,16.25 29.224,16.815 28.645,16.928 28.104,17.034 27.57,16.871 27.187,16.53 27.045,17.023 26.683,17.446 26.168,17.647 25.652,17.849 25.074,17.62 24.826,17.137 24.891,17.082 24.948,17.019 24.999,16.95 25.857,17.262 26.295,16.615 26.371,16.437 26.689,15.695 26.203,14.927 25.417,14.92 25.166,14.918 24.934,15.008 24.752,15.156 24.732,15.17 24.712,15.185 24.691,15.198 24.685,15.173 24.626,14.793 24.132,14.524 24.174,14.399 24.228,14.257 24.239,14.045 24.273,13.438 24.202,13.215 24.618,12.26 25.133,11.219 26.251,10.176 28.409,9.488 Z M 24.808,10.177 C 25.024,10.177 25.201,10.353 25.201,10.571 25.201,10.787 25.025,10.963 24.808,10.963 24.59,10.963 24.413,10.787 24.413,10.571 24.414,10.353 24.59,10.177 24.808,10.177 Z M 23.159,12.023 C 23.159,11.715 23.409,11.465 23.716,11.465 24.025,11.465 24.276,11.715 24.276,12.023 24.276,12.331 24.025,12.581 23.716,12.581 23.409,12.581 23.159,12.332 23.159,12.023 Z M 23.118,13.318 C 23.526,13.318 23.859,13.65 23.859,14.058 23.859,14.191 23.82,14.314 23.759,14.422 23.731,14.42 23.703,14.417 23.674,14.417 23.35,14.417 23.062,14.564 22.867,14.793 22.638,14.651 22.379,14.326 22.379,14.058 22.378,13.65 22.71,13.318 23.118,13.318 Z" />
      <path
         style="fill:#2258a5;fill-opacity:1"
         inkscape:connector-curvature="0"
         id="path100"
         d="M 42.613,21.325 C 42.712,21.325 42.804,21.265 42.842,21.167 42.887,21.041 42.824,20.901 42.698,20.855 40.271,19.956 37.711,19.5 35.083,19.5 H 34.914 C 32.289,19.5 29.728,19.956 27.302,20.855 27.176,20.902 27.112,21.041 27.158,21.167 27.204,21.292 27.344,21.357 27.47,21.311 29.843,20.432 32.347,19.985 34.914,19.985 H 35.083 C 37.652,19.985 40.156,20.431 42.529,21.311 42.557,21.32 42.586,21.325 42.613,21.325 Z" />
      <path
         style="fill:#2258a5;fill-opacity:1"
         inkscape:connector-curvature="0"
         id="path102"
         d="M 44.079,19.912 43.725,18.969 43.671,18.825 43.217,18.9 C 40.73,17.946 38.112,17.44 35.428,17.391 L 34.997,17.145 34.569,17.391 C 31.886,17.439 29.268,17.946 26.781,18.9 L 26.326,18.825 26.272,18.969 25.918,19.912 26.933,20.476 27.261,20.087 C 29.568,19.222 31.993,18.754 34.478,18.699 L 34.996,18.995 35.517,18.699 C 38.003,18.755 40.428,19.222 42.736,20.087 L 43.062,20.476 Z M 26.849,20.002 C 26.71,19.925 26.525,19.822 26.382,19.743 26.44,19.59 26.514,19.391 26.569,19.243 26.737,19.271 27.072,19.326 27.377,19.377 27.178,19.612 26.958,19.872 26.849,20.002 Z M 31.129,18.786 30.315,18.953 C 30.091,18.999 29.871,18.855 29.826,18.632 29.78,18.408 29.923,18.189 30.148,18.143 L 30.964,17.975 C 31.189,17.928 31.408,18.074 31.454,18.298 31.498,18.521 31.354,18.739 31.129,18.786 Z M 34.998,18.558 34.145,18.071 34.999,17.582 35.855,18.071 Z M 40.175,18.631 C 40.129,18.855 39.91,18.999 39.686,18.952 L 38.872,18.785 C 38.647,18.739 38.503,18.519 38.548,18.296 38.595,18.072 38.814,17.926 39.038,17.973 L 39.853,18.141 C 40.078,18.188 40.221,18.407 40.175,18.631 Z M 42.623,19.375 C 42.928,19.325 43.263,19.27 43.432,19.241 43.487,19.389 43.56,19.589 43.619,19.741 43.475,19.82 43.29,19.923 43.151,20 43.041,19.872 42.822,19.612 42.623,19.375 Z" />
    </g>
  </g>
</svg>
