<?xml version="1.0" encoding="UTF-8" standalone="no"?>
<!-- Created with Inkscape (http://www.inkscape.org/) -->

<svg
   xmlns:dc="http://purl.org/dc/elements/1.1/"
   xmlns:cc="http://creativecommons.org/ns#"
   xmlns:rdf="http://www.w3.org/1999/02/22-rdf-syntax-ns#"
   xmlns:svg="http://www.w3.org/2000/svg"
   xmlns="http://www.w3.org/2000/svg"
   xmlns:sodipodi="http://sodipodi.sourceforge.net/DTD/sodipodi-0.dtd"
   xmlns:inkscape="http://www.inkscape.org/namespaces/inkscape"
   width="256"
   height="256"
   viewBox="0 0 67.73333 67.73333"
   version="1.1"
   id="svg4538"
   inkscape:version="0.92.2 5c3e80d, 2017-08-06"
   sodipodi:docname="un-logo.svg">
  <defs
     id="defs4532" />
  <sodipodi:namedview
     id="base"
     pagecolor="#ffffff"
     bordercolor="#666666"
     borderopacity="1.0"
     inkscape:pageopacity="0.0"
     inkscape:pageshadow="2"
     inkscape:zoom="1.979899"
     inkscape:cx="122.8232"
     inkscape:cy="146.71843"
     inkscape:document-units="px"
     inkscape:current-layer="layer1"
     showgrid="false"
     units="px"
     inkscape:window-width="1366"
     inkscape:window-height="768"
     inkscape:window-x="0"
     inkscape:window-y="0"
     inkscape:window-maximized="0" />
  <metadata
     id="metadata4535">
    <rdf:RDF>
      <cc:Work
         rdf:about="">
        <dc:format>image/svg+xml</dc:format>
        <dc:type
           rdf:resource="http://purl.org/dc/dcmitype/StillImage" />
        <dc:title></dc:title>
      </cc:Work>
    </rdf:RDF>
  </metadata>
  <g
     inkscape:label="Layer 1"
     inkscape:groupmode="layer"
     id="layer1"
     transform="translate(0,-229.26668)">
    <path
       style="fill:#0981cf;fill-opacity:1;stroke-width:1.28681278"
       inkscape:connector-curvature="0"
       id="path10"
       d="M 33.85763,234.29603 C 30.010059,234.29603 26.372239,235.21353 23.147486,236.83363 A 24.102003,24.102003 0 0 0 12.380725,247.67374 23.803462,23.803462 0 0 0 9.9177644,258.23461 C 9.9177644,260.55345 10.248476,262.81824 10.880301,264.98266 L 11.446499,264.84111 A 23.443155,23.443155 0 0 1 10.500691,258.52286 H 14.81666 C 14.842396,260.33212 15.121635,262.1002 15.632499,263.78592 L 16.194837,263.64437 C 15.69298,262.00369 15.422749,260.28579 15.394439,258.52286 H 19.303776 C 19.316644,259.09935 19.361683,259.66812 19.438892,260.22917 19.168661,260.26392 18.911298,260.35271 18.911298,260.35271 L 18.789051,260.7439 C 18.525255,260.7928 18.355395,261.23289 18.355395,261.23289 18.139211,261.30752 17.969351,261.57775 18.041413,261.64981 18.113474,261.72445 17.920453,261.7489 17.920453,261.7489 V 262.28936 L 17.800779,262.45922 17.823942,263.04729 C 17.969351,263.04729 17.944902,263.31752 17.944902,263.31752 17.704268,263.34068 17.75188,263.6611 17.75188,263.6611 L 17.244876,263.83353 17.148365,263.98023 16.5204,263.95449 16.353115,264.12693 H 16.350541 C 16.296495,263.96736 16.247596,263.80522 16.196123,263.64566 L 15.63636,263.78721 C 15.653088,263.84383 15.672391,263.89916 15.690406,263.95449 H 14.974938 L 14.926039,263.83353 14.684118,263.78206 14.658382,263.51183 14.298074,263.53757 14.226013,263.68555 13.839969,263.70871 C 13.861845,263.95321 13.453925,264.32124 13.405026,264.22344 13.353554,264.12564 13.089757,263.85541 13.212004,263.8078 13.331678,263.75633 13.64566,263.70871 13.64566,263.70871 V 263.53757 L 12.752612,263.51183 12.654814,263.6611 12.294508,263.68684 V 264.07674 L 12.124649,264.12821 C 12.002402,264.20028 12.147812,264.46922 12.147812,264.46922 12.315097,264.64037 12.124649,264.9106 12.124649,264.9106 11.979238,265.05858 12.244322,265.32881 12.244322,265.32881 12.437344,265.37771 12.124649,265.52569 12.124649,265.52569 12.172261,265.77019 12.317671,265.84354 12.317671,265.84354 12.172261,266.08803 12.414182,266.21156 12.414182,266.21156 L 12.439918,266.62978 12.607204,266.72629 V 266.99652 L 12.702428,267.16767 H 13.08847 L 13.066595,266.55514 C 12.728163,266.16267 13.354841,266.06615 13.380577,266.21285 13.406313,266.36083 13.671397,266.43418 13.671397,266.43418 13.720295,266.80221 14.129502,267.02097 14.250462,266.65551 14.371423,266.2862 14.469221,266.50753 14.539995,266.67868 14.61463,266.84982 15.071449,267.26675 15.071449,267.26675 H 15.435617 L 15.483229,267.61033 C 15.895009,267.58459 16.014683,267.63607 16.183255,268.19712 A 1.0680546,1.0680546 0 0 0 16.81122,268.90872 L 17.149652,268.88299 C 17.149652,268.58702 17.488083,268.93446 17.488083,269.07987 17.488083,269.22528 18.141784,269.78762 18.141784,269.78762 L 18.791625,269.9356 18.912585,270.0334 C 19.314071,270.5404 19.738719,271.02939 20.195538,271.50036 L 17.141931,274.55011 A 23.239838,23.239838 0 0 1 11.451646,264.84368 L 10.885448,264.98523 A 23.802176,23.802176 0 0 0 16.936041,275.16649 23.982329,23.982329 0 0 0 23.53739,279.85049 L 23.825636,279.33963 A 23.342783,23.342783 0 0 1 17.551137,274.95674 L 20.603457,271.90442 A 19.012658,19.012658 0 0 0 25.956598,275.56669 L 26.239697,275.06226 A 18.465763,18.465763 0 0 1 21.011377,271.49779 L 21.580148,270.93159 A 0.58421299,0.58421299 0 0 1 21.641915,271.13748 C 21.690814,271.50551 21.8581,271.43345 21.8581,271.43345 L 23.234989,271.40771 23.720118,270.99207 24.951597,270.96634 C 25.579562,270.9406 25.192231,270.08358 25.072558,270.08358 25.000496,270.02696 24.986341,269.91244 24.995349,269.78504 25.978474,270.5404 27.041381,271.16193 28.167343,271.64063 L 28.450441,271.13877 A 13.936183,13.936183 0 0 1 24.847366,268.92545 L 24.193665,268.3155 27.23569,265.27348 A 9.6073442,9.6073442 0 0 0 31.621149,267.64379 C 31.559381,267.69526 31.525925,267.74673 31.541367,267.78019 31.588977,267.90244 31.348345,268.02468 31.348345,268.02468 L 31.129586,268.09803 30.984177,268.31936 30.694644,268.41459 30.643171,268.92931 30.501622,269.0284 V 269.24973 L 30.330474,269.3012 V 269.42088 L 30.089842,269.44661 30.23525,269.81335 30.428273,269.91244 C 30.766704,269.96005 30.621295,270.37569 30.621295,270.37569 L 30.814317,270.40143 30.912115,270.67166 31.105137,271.06285 C 31.175912,271.35882 31.39467,271.28547 31.49118,271.25973 31.587692,271.23657 31.684203,271.5557 31.684203,271.5557 L 32.649311,271.58143 C 32.649311,271.58143 32.6017,271.67666 32.770273,271.72684 32.862923,271.75258 33.242532,271.78089 33.571957,271.78604 V 272.21712 A 13.923315,13.923315 0 0 1 28.453015,271.14006 L 28.167343,271.64449 C 29.860789,272.36253 31.686776,272.75758 33.571957,272.7949 V 276.70295 A 18.388554,18.388554 0 0 1 26.237123,275.06484 L 25.954025,275.57055 A 18.957327,18.957327 0 0 0 33.571957,277.28201 V 281.59799 A 23.288737,23.288737 0 0 1 23.824349,279.34606 L 23.538677,279.85178 A 23.84464,23.84464 0 0 0 33.862777,282.18091 C 37.671744,282.18091 41.344307,281.28915 44.650127,279.61758 A 24.008066,24.008066 0 0 0 50.788225,275.16907 23.955306,23.955306 0 0 0 55.411742,268.68353 L 55.407881,268.67838 A 23.831772,23.831772 0 0 0 57.797495,258.23718 C 57.797495,255.10766 57.197841,252.07335 56.060295,249.25781 A 23.896113,23.896113 0 0 0 50.784365,241.30916 23.863943,23.863943 0 0 0 42.802265,236.02036 V 236.02422 A 23.896113,23.896113 0 0 0 33.858915,234.29989 Z M 33.57067,234.87896 V 239.19622 C 30.645745,239.23997 27.882957,239.95029 25.417424,241.17276 A 19.111743,19.111743 0 0 0 20.604744,244.57509 L 17.54599,241.51634 A 23.399403,23.399403 0 0 1 23.409996,237.33934 23.239838,23.239838 0 0 1 33.57067,234.88153 Z M 34.145876,234.87896 C 37.086242,234.91499 39.939105,235.49405 42.589941,236.56211 45.382323,237.6855 47.953377,239.35449 50.166695,241.51377 L 47.580202,244.10026 C 47.492698,244.12342 47.400046,244.13372 47.330559,244.10412 47.163273,244.03334 47.402619,243.85963 47.402619,243.85963 V 243.66403 L 47.257212,243.51733 C 47.257212,243.51733 46.848006,243.56623 46.823556,243.49417 A 8.3192447,8.3192447 0 0 1 46.727044,243.10169 L 46.701308,242.68605 46.534022,242.6127 46.508286,242.46601 46.243202,242.49174 V 242.19578 L 46.096504,242.14688 45.954955,242.07353 45.929219,241.78014 45.397766,241.7544 45.227907,241.5099 45.034885,241.21651 44.433942,241.16761 44.288535,241.02092 44.046614,240.97202 43.876755,240.89738 43.804691,241.02092 43.3453,241.04665 43.322137,241.19206 C 43.176726,241.26541 42.789398,241.26155 42.483135,241.25898 A 18.929015,18.929015 0 0 0 41.009734,240.58983 L 40.798698,241.12386 C 41.200182,241.28857 41.596519,241.46615 41.987712,241.65789 41.961976,241.74282 41.92337,241.80459 41.871897,241.80459 41.749653,241.80459 41.797263,242.12629 41.797263,242.12629 41.797263,242.12629 42.112535,242.12629 42.209044,242.14945 42.305553,242.17261 42.305553,242.41968 42.305553,242.41968 42.668436,242.39395 42.813847,242.88551 42.766235,243.00647 42.717334,243.12872 42.910357,243.12872 42.910357,243.12872 42.910357,243.12872 42.910357,243.51991 42.861458,243.6177 42.813847,243.7155 43.175443,243.79014 43.273238,243.93683 43.368461,244.08353 43.224341,244.57509 43.15099,244.59954 43.080216,244.62528 43.344012,244.69605 43.32085,244.8183 43.295114,244.94183 43.392913,244.8183 43.416076,245.01647 43.441812,245.20949 43.488136,245.62771 43.488136,245.62771 L 43.826569,245.65344 C 43.874181,245.33431 44.498284,245.32144 44.598655,245.35748 45.010436,245.50546 45.324419,246.14243 45.324419,246.29041 45.324419,246.43711 45.05676,246.46156 45.05676,246.46156 L 45.067055,246.61984 44.220333,247.46656 C 44.132828,247.41509 44.046614,247.38935 43.995139,247.41895 43.875468,247.49101 43.923079,246.90422 43.923079,246.90422 43.923079,246.90422 44.139263,246.75624 44.235776,246.83088 44.332285,246.90294 43.414789,245.60454 43.221767,245.72808 43.028745,245.84904 42.593802,245.60326 42.616964,245.38064 42.6427,245.16188 41.748366,244.42582 41.748366,244.42582 41.748366,244.42582 41.458834,244.2328 41.41122,244.37821 41.362321,244.52619 41.265811,244.62528 41.41122,244.69734 41.555343,244.77198 41.530894,244.57638 41.700754,244.74881 41.868037,244.91867 42.184595,245.14 42.061059,245.2867 41.941388,245.4334 41.795977,245.4823 41.795977,245.4823 L 41.965836,245.67789 H 42.230919 L 42.27853,246.09482 C 42.27853,246.09482 42.568066,246.24152 42.63884,246.41395 42.687737,246.5259 42.703181,246.60697 42.68645,246.67517 A 14.408443,14.408443 0 0 0 41.000725,245.5595 0.30626144,0.30626144 0 0 0 41.000725,245.4334 C 40.949254,245.26096 41.193748,245.1889 41.312136,245.38192 L 41.554056,245.36005 41.601668,245.14129 41.264524,244.87106 H 40.999438 C 40.999438,244.87106 40.973702,245.06408 40.803845,244.99331 40.633986,244.91867 40.731782,244.94183 40.585087,244.91867 40.456403,244.8968 40.482139,245.16703 40.507876,245.29185 A 14.495945,14.495945 0 0 0 39.365186,244.76425 14.520395,14.520395 0 0 0 34.138154,243.68977 V 241.53693 C 34.295147,241.5395 34.363346,241.48031 34.382648,241.41468 34.404523,241.3156 34.428976,241.29115 34.57567,241.2667 34.717219,241.24353 34.549934,240.94885 34.404523,240.9733 A 0.29596694,0.29596694 0 0 1 34.138154,240.89223 V 239.78043 C 36.454417,239.81646 38.70248,240.27843 40.790976,241.12515 L 41.0033,240.59112 A 19.003652,19.003652 0 0 0 34.136867,239.20522 Z M 38.191613,235.90584 37.965136,236.05253 37.810716,235.95473 37.733509,236.07955 37.926531,236.2018 37.965136,236.22754 38.003738,236.2018 38.270111,236.03066 Z M 39.298274,236.49777 39.105252,236.65219 38.981716,236.52865 38.878772,236.6316 39.048631,236.80403 39.094957,236.85164 39.143858,236.81046 39.388352,236.6123 Z M 16.010822,236.61873 C 13.607056,237.55553 11.030858,238.51034 9.4738135,240.97716 8.5601765,242.41839 8.4276355,244.12728 7.7083065,245.61612 9.0401585,244.36534 10.586908,243.44141 11.714156,241.95257 13.070455,240.16133 14.246602,238.16934 16.012109,236.62002 Z M 51.71473,236.61873 C 53.477663,238.16677 54.655097,240.16004 56.01011,241.95128 57.137359,243.44141 58.684107,244.36406 60.014671,245.61484 59.294057,244.126 59.165374,242.41839 58.251739,240.97716 56.692121,238.51292 54.114636,237.55682 51.71473,236.62002 Z M 37.629277,236.92113 C 37.507031,236.90826 37.350037,236.95973 37.335885,237.0215 37.310148,237.11801 37.168598,237.14375 37.168598,237.14375 L 36.612693,237.19265 C 36.561222,237.34063 36.274264,237.43714 36.248528,237.34063 36.197055,237.12573 35.888219,237.61086 36.2022,237.70866 36.516184,237.80774 36.830165,237.70866 36.830165,237.70866 L 36.902229,237.56325 38.109257,237.58899 C 38.207057,237.48861 38.254668,237.34192 38.254668,237.34192 38.254668,237.34192 38.542916,237.24283 38.663874,237.29302 38.783549,237.34192 38.689611,236.94944 38.567365,236.99963 38.446403,237.04595 38.207057,237.02279 38.207057,237.02279 H 37.769539 C 37.761818,236.95845 37.701337,236.92756 37.62799,236.91984 Z M 35.475152,237.41398 35.161171,237.53494 34.824025,237.75627 34.461142,237.80388 34.26812,238.02522 35.040209,238.09599 35.18562,238.34048 35.742808,238.39196 36.103117,238.7587 C 36.4171,238.8565 36.489162,238.7098 36.296139,238.53994 L 35.982159,238.21824 V 237.94801 L 35.885645,237.8515 35.787849,237.50792 Z M 33.57067,239.77271 V 243.68205 A 14.440614,14.440614 0 0 0 27.496913,245.14644 14.61176,14.61176 0 0 0 23.778024,247.7458 L 21.007517,244.97658 A 18.450322,18.450322 0 0 1 25.678647,241.6759 H 25.68122 A 18.349951,18.349951 0 0 1 33.569382,239.77142 Z M 9.5304335,239.88595 C 8.3053875,240.19993 7.2785115,240.99261 6.3584405,242.00919 4.4410885,244.13758 4.6058015,247.27869 4.8618765,250.08137 4.9416595,250.94353 4.8979075,251.68345 4.8001095,252.56877 5.3817495,251.37847 6.3314175,250.24222 7.4509445,249.39678 9.9473614,247.5116 12.683126,245.07309 12.720442,241.86635 11.894309,244.17232 9.3785895,245.12842 7.7070195,246.70477 A 7.8366897,7.8366897 0 0 0 5.7510645,249.58723 L 5.6892975,249.53833 C 5.8951875,248.61697 6.2889525,247.77797 6.5553225,246.8875 7.2823715,244.44255 7.1536905,241.52149 9.5317205,239.88723 Z M 58.191257,239.88595 C 60.569289,241.5202 60.440609,244.44126 61.167657,246.88621 61.434026,247.77797 61.823931,248.61697 62.033681,249.53704 L 61.971912,249.58852 A 7.8366897,7.8366897 0 0 0 60.013384,246.70606 C 58.340529,245.12842 55.827384,244.17103 54.999962,241.86764 55.038567,245.0718 57.770472,247.5116 60.268175,249.39549 61.387702,250.24222 62.339943,251.37719 62.919009,252.56877 62.822497,251.68345 62.780033,250.94482 62.857242,250.08137 63.114606,247.27869 63.281889,244.13629 61.361966,242.00919 60.443183,240.99261 59.415016,240.19993 58.189971,239.88595 Z M 45.081212,240.37236 C 44.885616,240.36979 44.598655,240.50362 44.628252,240.64903 44.653988,240.77256 44.749214,240.89352 44.942236,240.94499 L 45.305114,241.06595 C 45.305114,241.06595 45.755502,241.59998 45.73877,241.33619 45.689873,240.60013 45.352729,240.57697 45.231767,240.42898 45.200884,240.39295 45.145551,240.37494 45.079925,240.37365 Z M 37.509602,240.66833 37.414379,240.88709 37.545634,240.94757 37.643433,240.72624 Z M 37.959988,240.90896 C 37.94326,240.89095 37.81329,241.08912 37.715495,241.13416 37.833881,241.19464 37.989586,241.28343 37.989586,241.28343 38.182608,241.28343 38.303565,241.4327 38.303565,241.50604 38.303565,241.57939 38.567365,241.55494 38.567365,241.55494 L 38.593101,241.38508 38.400079,241.14059 38.230218,241.01706 C 38.230218,241.01706 37.965136,240.99132 37.965136,240.91926 37.965136,240.91411 37.965136,240.91154 37.961276,240.91025 Z M 36.909951,241.06338 36.89708,241.21008 37.102969,241.23067 37.252242,241.47001 37.373204,241.3928 37.205917,241.12257 37.185325,241.09169 37.150584,241.08912 Z M 31.327754,241.67719 C 31.195214,241.68105 31.074252,241.70679 31.083261,241.74925 31.108997,241.8715 31.299446,242.01948 31.299446,242.01948 31.299446,242.01948 31.662327,242.04522 31.68549,242.11728 31.711226,242.19063 31.953147,242.21379 31.976308,242.14044 32.002046,242.06709 32.09727,241.92169 31.881084,241.92169 31.662327,241.92169 31.711226,241.79815 31.636591,241.72352 31.601847,241.68749 31.459011,241.67204 31.327754,241.6759 Z M 50.578476,241.92169 A 23.263001,23.263001 0 0 1 57.215855,257.94508 L 52.901171,257.9425 A 18.988209,18.988209 0 0 0 51.16526,250.27825 C 51.206441,250.14957 51.281075,250.01059 51.435491,250.05949 51.677412,250.13284 51.508842,249.51903 51.508842,249.51903 51.508842,249.51903 51.174269,249.27453 51.196145,249.15229 51.221881,249.02875 50.857712,248.78554 50.882164,248.68646 50.905326,248.58738 50.56818,248.39307 50.591342,248.29398 50.617078,248.19618 50.424056,247.92595 50.424056,247.92595 L 50.061177,247.58366 50.012278,247.36233 49.722744,247.33659 49.143677,246.62885 49.166842,246.43196 48.999557,246.4088 V 246.13857 L 48.829696,246.04077 48.563327,246.01504 48.033159,245.42825 47.985547,245.15802 H 47.720465 L 47.759067,244.74367 Z M 37.458129,241.92169 V 242.14044 L 37.723215,242.16618 37.652439,241.9693 Z M 17.139357,241.92169 20.198111,244.98044 A 19.140054,19.140054 0 0 0 16.691546,250.00158 18.921295,18.921295 0 0 0 14.82052,257.94508 H 10.503265 A 23.22697,23.22697 0 0 1 12.883867,247.9414 23.409698,23.409698 0 0 1 17.140644,241.92169 Z M 38.636851,243.06695 C 38.611115,243.06952 38.591814,243.07982 38.591814,243.09655 38.591814,243.17118 38.690897,243.17118 38.738508,243.31788 38.786123,243.46457 38.761675,243.70907 38.980433,243.75925 39.199187,243.80815 39.245515,243.85576 39.269964,243.95485 39.293126,244.05265 39.559496,244.0771 39.559496,244.0771 L 39.752518,244.17618 40.331585,244.66517 V 244.46829 C 40.331585,244.46829 40.305849,244.27141 40.187461,244.27141 40.066502,244.27141 39.850317,244.12471 39.897929,244.02691 39.94554,243.92911 39.486148,243.83132 39.486148,243.83132 39.486148,243.83132 39.076941,243.44012 39.221066,243.48774 39.365186,243.53664 39.291839,243.31659 39.291839,243.31659 39.291839,243.31659 39.003594,243.36549 38.931531,243.34233 38.858183,243.31659 38.880059,243.09526 38.880059,243.09526 38.880059,243.09526 38.71792,243.05408 38.635564,243.06437 Z M 25.362091,243.24324 25.259146,243.34619 25.404556,243.49417 25.507501,243.39123 Z M 4.4578175,244.25468 C 4.3960505,244.24181 4.3613065,244.29071 4.3136945,244.31516 2.6562795,246.42939 1.5509075,248.74437 1.5509075,251.58179 1.5509075,255.08835 3.5673435,257.53459 3.8182715,260.82754 4.3368575,257.39175 7.2218915,254.95066 8.7145945,251.92794 9.2975205,250.74793 9.6591144,249.41866 9.8212534,248.12155 9.6024955,248.67488 9.2679235,249.1896 8.8098185,249.62197 6.8693045,251.46212 4.5826385,253.27652 4.1425485,255.87974 4.0782075,256.25292 4.0473245,256.6351 3.9392315,256.99541 3.8543025,257.03401 3.8543025,256.93622 3.8182715,256.91177 L 4.0589055,253.68187 C 4.2943925,250.53304 2.6331165,247.02905 4.4578175,244.25339 Z M 63.265162,244.25468 C 65.092436,247.03033 63.429874,250.53432 63.664072,253.68187 L 63.904709,256.91177 C 63.869964,256.9375 63.869964,257.03401 63.783747,256.9967 63.676942,256.63639 63.64477,256.25292 63.583003,255.88103 63.141629,253.27652 60.854959,251.4634 58.914449,249.62326 A 4.137103,4.137103 0 0 1 57.9043,248.12284 C 58.063864,249.41994 58.42546,250.74793 59.008384,251.92923 60.501085,254.95324 63.38355,257.39175 63.903422,260.82754 64.156922,257.5333 66.172071,255.08835 66.172071,251.5805 66.172071,248.74308 65.065413,246.4281 63.409285,244.31387 63.36167,244.28813 63.326929,244.24181 63.263875,244.25339 Z M 33.571957,244.25725 V 248.57451 A 9.6021969,9.6021969 0 0 0 29.765565,249.48042 9.6961342,9.6961342 0 0 0 27.23569,251.20475 L 24.180797,248.14857 A 13.943904,13.943904 0 0 1 27.76071,245.64958 13.905299,13.905299 0 0 1 33.571957,244.25982 Z M 34.148449,244.25725 C 35.895941,244.29328 37.589388,244.64973 39.163159,245.29442 39.595528,245.472 40.0176,245.67017 40.42938,245.8915 A 0.20846367,0.20846367 0 0 0 40.504018,245.93268 C 41.18603,246.302 41.837156,246.72793 42.454825,247.21049 V 247.21563 C 42.480562,247.38807 42.673583,247.46013 42.673583,247.46013 L 42.781676,247.47557 43.01073,247.66859 V 247.87834 C 43.178013,247.83459 43.439238,248.03533 43.486849,248.20004 L 40.484714,251.20218 A 9.6343673,9.6343673 0 0 0 37.58424,249.31571 9.6253594,9.6253594 0 0 0 34.145876,248.57708 Z M 20.59831,245.38321 23.370104,248.15243 A 14.570582,14.570582 0 0 0 20.645922,252.13641 14.457342,14.457342 0 0 0 19.307637,257.94379 H 15.395726 C 15.438191,255.24148 16.057148,252.63955 17.19083,250.26924 A 18.474772,18.474772 0 0 1 20.600884,245.37935 Z M 45.266513,247.23365 C 45.601081,247.43182 45.854585,247.88992 45.812121,247.97485 45.764507,248.07265 46.100366,248.04949 46.100366,248.04949 46.151839,247.60811 46.559757,247.75352 46.584206,247.9015 46.609943,248.04949 46.68072,248.36862 46.68072,248.36862 L 46.801678,248.58738 46.972825,248.75981 47.237907,248.73407 47.309971,248.88206 47.623952,248.93353 C 47.623952,248.93353 47.889035,249.22563 47.9122,249.29898 47.937936,249.37104 48.298241,249.34788 48.39604,249.37104 48.49255,249.39678 48.637961,249.46884 48.661124,249.5898 48.68686,249.71462 48.830983,249.91151 48.830983,249.91151 48.830983,249.91151 49.119228,249.98357 49.144964,250.08265 49.1707,250.17788 49.289088,250.39921 49.289088,250.39921 L 49.531009,250.5948 49.55417,250.81614 49.819256,250.84187 49.892603,251.13398 50.326259,251.10824 50.570754,250.93838 A 1.8015378,1.8015378 0 0 0 50.772785,250.81227 18.38598,18.38598 0 0 1 52.320821,257.94122 H 48.414056 A 14.746874,14.746874 0 0 0 48.226181,255.89133 C 48.251917,255.79353 48.264787,255.70602 48.226181,255.66999 48.155407,255.59536 48.300815,255.25307 48.300815,255.25307 48.300815,255.25307 48.39604,255.05618 48.300815,254.86059 48.203018,254.66371 48.323977,254.44366 48.39604,254.34586 L 48.203018,254.24807 48.009996,254.22233 47.863298,254.24807 C 47.818261,254.09365 47.77065,253.93666 47.721752,253.78224 L 47.841424,253.8054 V 253.6587 L 47.663845,253.60723 C 47.630387,253.50686 47.593068,253.4052 47.557039,253.30483 L 47.524869,252.79911 47.357582,252.67687 47.403906,252.48127 47.210884,252.40664 47.309971,252.08879 47.140111,251.7465 H 46.895616 C 46.779803,251.51487 46.657557,251.28325 46.53016,251.05806 A 0.74892505,0.74892505 0 0 1 46.826127,250.97184 L 46.804251,250.71448 46.585493,250.56907 46.513433,250.2731 C 46.513433,250.2731 46.247064,250.32457 46.2728,250.47127 46.277948,250.50473 46.25993,250.52789 46.229046,250.54848 A 14.305497,14.305497 0 0 0 45.697594,249.75323 L 45.715608,249.71076 C 45.813408,249.53962 45.764507,249.44053 45.595937,249.39292 45.426076,249.34402 45.426076,249.34402 45.377179,249.14843 45.329564,248.95154 45.136545,248.90136 45.136545,248.90136 L 45.063195,248.60796 44.883042,248.7212 A 12.700842,12.700842 0 0 0 44.59222,248.39307 L 44.678437,248.1164 A 0.22261861,0.22261861 0 0 1 44.50858,247.98515 Z M 29.752697,247.81915 29.660046,247.93239 29.805456,248.05464 29.895533,247.9414 Z M 29.199367,247.92467 29.225103,248.1949 H 29.585411 C 29.730821,248.1949 29.464451,248.02375 29.464451,248.02375 29.464451,248.02375 29.176205,248.04563 29.199367,247.92338 Z M 45.25879,247.96842 45.114666,247.98515 45.137829,248.20391 45.28324,248.18846 Z M 23.77159,248.55392 26.826484,251.61139 A 9.6845531,9.6845531 0 0 0 25.235983,253.88004 C 25.129178,253.87618 25.027519,253.89805 24.997923,253.98041 24.925861,254.17343 24.611879,254.1271 24.611879,254.1271 L 24.560406,254.22362 24.321059,254.27509 24.274734,254.4205 23.983914,254.4694 24.70839,254.44366 C 24.901412,254.4205 24.637615,254.86187 24.515368,254.83743 L 24.180797,254.86316 24.057263,254.98412 H 23.744567 L 23.603018,255.17972 23.142339,255.15398 C 23.142339,255.15398 22.877255,255.37531 22.901705,255.44995 22.924867,255.52201 22.850232,255.74334 22.779457,255.74334 22.706109,255.74334 22.563273,255.96467 22.612172,256.03931 22.658497,256.11137 22.465475,256.35586 22.465475,256.35586 L 22.417863,256.60036 22.271167,256.65183 V 257.31197 L 21.981634,257.50885 V 257.80482 L 21.849092,257.94637 H 19.878982 C 19.92016,256.00328 20.355102,254.1271 21.143919,252.40792 A 13.996663,13.996663 0 0 1 23.769016,248.55392 Z M 43.897343,248.60282 C 44.000288,248.69804 43.989994,248.73665 44.122536,248.83444 44.16886,248.8679 44.21261,248.88592 44.256365,248.88978 44.336146,248.97985 44.413354,249.06607 44.487988,249.15486 L 44.436517,249.22821 C 44.436517,249.51131 44.567771,249.42895 44.697741,249.4045 44.736344,249.4534 44.77495,249.5023 44.816126,249.5512 44.828996,249.71462 44.828996,249.94754 45.086356,249.91408 H 45.092792 C 45.404202,250.33229 45.688586,250.76338 45.948523,251.21376 L 45.956242,251.23692 H 45.962677 L 46.086212,251.45311 C 46.03474,251.50458 46.005143,251.55605 46.005143,251.55605 L 45.619099,251.60495 V 251.99614 L 45.426076,252.06949 45.449239,252.31656 45.715608,252.29082 C 45.715608,252.29082 45.715608,252.58679 45.788959,252.46326 45.861019,252.34101 46.465822,252.48899 46.415636,252.78239 46.398907,252.90335 47.020436,253.22248 46.949663,253.61495 47.001135,253.62396 47.039741,253.64069 47.070624,253.6587 47.186435,253.99585 47.28938,254.33557 47.379458,254.68043 L 47.334421,254.76794 C 47.334421,254.76794 47.373023,254.79367 47.424498,254.84515 47.497846,255.14755 47.562184,255.45252 47.617517,255.75878 47.598216,256.02901 47.540308,256.2838 47.405193,256.36101 47.116949,256.53344 47.430929,256.43436 47.430929,256.43436 L 47.382032,256.97482 C 47.455379,257.21932 47.575054,257.09836 47.647114,256.97482 A 0.60480202,0.60480202 0 0 1 47.766789,256.83327 C 47.805394,257.20259 47.831131,257.57448 47.838849,257.94894 H 44.917786 L 44.969259,257.8846 45.08893,257.53973 45.498138,257.4162 45.545748,257.09836 45.329564,257.07262 C 45.329564,257.07262 45.5702,256.63124 45.689873,256.63124 45.812121,256.63124 46.609943,256.63124 46.68072,256.58234 46.75278,256.53473 46.899478,256.14225 46.899478,256.06762 46.899478,255.99427 47.0925,255.96982 47.16456,255.94666 47.236621,255.92092 47.405193,255.72533 47.452805,255.62495 47.50428,255.52716 47.334421,254.91463 47.236621,255.01372 47.140111,255.1128 46.921353,255.16042 46.921353,255.16042 L 46.849292,255.43065 46.727044,255.52844 C 46.727044,255.52844 46.75278,255.60308 46.727044,255.77294 46.701308,255.94537 46.48641,256.04317 46.48641,256.04317 L 46.388613,256.1667 C 46.388613,256.1667 45.809548,256.19887 45.73877,256.1667 45.520012,256.06762 45.665423,255.77423 45.810834,255.79867 45.954955,255.82441 45.785098,255.38175 45.785098,255.38175 L 45.97812,255.35601 C 45.97812,255.35601 46.003856,254.91592 46.07463,254.91592 46.147977,254.91592 46.051467,254.76922 45.954955,254.69716 45.857158,254.62253 45.736197,254.37546 45.640974,254.4012 45.544464,254.42693 45.15842,254.4012 45.15842,254.4012 L 45.086356,254.55047 44.8187,254.59808 C 44.8187,254.59808 44.841862,254.78853 44.795538,254.84257 44.650127,255.01501 44.095513,255.38303 44.336146,254.76922 L 44.409494,254.62253 V 254.39605 L 43.974551,254.37289 C 43.974551,254.37289 43.755793,254.29954 43.755793,254.20045 43.755793,254.10266 43.733917,253.98169 43.733917,253.98169 L 43.224341,253.41807 42.619537,253.34344 42.573213,253.22119 42.212905,253.17229 A 0.87245906,0.87245906 0 0 0 42.053341,253.10795 9.4786628,9.4786628 0 0 0 41.50001,252.31913 L 41.48714,252.2638 C 41.463978,252.17758 41.198896,251.80441 41.053484,251.78768 L 40.891346,251.60495 Z M 46.274087,248.90393 C 46.241915,248.90651 46.222615,248.93224 46.222615,248.98114 46.222615,249.08022 46.344861,249.12784 46.297248,249.25137 A 0.15827797,0.15827797 0 0 0 46.44266,249.4727 C 46.539169,249.4727 46.612516,249.52031 46.70903,249.56921 46.805538,249.61811 46.876315,249.69017 46.950949,249.78797 L 47.191583,249.71462 C 47.191583,249.71462 47.21732,249.47013 47.119523,249.54348 47.02301,249.61811 46.952236,249.37233 46.85315,249.39678 46.755354,249.42252 46.707743,249.30027 46.611229,249.17802 46.51472,249.05449 46.537882,249.02875 46.418208,248.9554 46.35773,248.91937 46.308828,248.90007 46.276661,248.90393 Z M 33.573243,249.15229 V 253.06934 C 33.058519,253.09508 32.56953,253.19803 32.106277,253.36531 H 32.098555 L 32.07282,253.09508 32.196354,253.02431 32.000757,252.94967 31.859208,253.14655 31.807737,253.36531 31.567103,253.41421 V 253.53774 H 31.399817 V 253.68315 A 5.1575457,5.1575457 0 0 0 30.412832,254.37803 L 27.638463,251.60881 A 9.0810377,9.0810377 0 0 1 30.029361,249.98743 9.0462938,9.0462938 0 0 1 33.57067,249.151 Z M 34.149736,249.15229 A 9.0334258,9.0334258 0 0 1 40.081942,251.6101 L 39.923665,251.76709 C 39.846457,251.68988 39.582657,251.64098 39.582657,251.55348 39.582657,251.45825 39.342025,251.33472 39.366473,251.4827 39.389635,251.6294 39.199187,251.70146 39.147715,251.65385 39.100104,251.60495 38.954693,251.80055 38.954693,251.80055 38.954693,251.87261 38.907082,251.97169 39.051206,251.99614 39.197904,252.02188 39.462986,251.89963 39.488723,252.04762 39.495157,252.09523 39.501588,252.13769 39.514459,252.17887 L 38.557069,253.13369 C 38.428389,253.14141 38.302279,253.12339 38.302279,253.12339 38.231505,253.34472 37.893072,253.10023 37.989586,252.95224 38.086094,252.80555 38.086094,252.70775 38.086094,252.70775 L 37.966423,252.68201 37.821012,252.95224 C 37.483866,252.95224 37.387356,253.14913 37.460704,253.27137 37.53148,253.39491 37.362908,253.24821 37.315296,253.41936 37.266394,253.5905 37.341032,253.5905 37.485152,253.66385 37.626703,253.7372 37.407945,253.7372 37.507031,253.85945 37.567508,253.93666 37.707772,253.91735 37.75667,253.93408 L 37.576517,254.11938 C 37.409232,254.17086 37.21621,254.12968 37.21621,254.12968 A 0.14154941,0.14154941 0 0 1 37.146723,254.23777 5.1266622,5.1266622 0 0 0 35.87278,253.46568 C 35.947414,253.41164 36.070946,253.41421 36.13014,253.24692 A 3.8990429,3.8990429 0 0 0 36.276838,252.53532 C 36.276838,252.53532 35.890794,252.51215 35.865058,252.6344 35.841895,252.75665 35.601262,252.83 35.601262,252.83 35.601262,252.83 35.408239,252.90335 35.480299,253.00243 35.553648,253.10023 35.336176,253.14913 35.336176,253.14913 35.336176,253.14913 35.349046,253.21347 35.343897,253.27781 A 5.1022127,5.1022127 0 0 0 34.15231,253.07192 Z M 46.997275,249.98485 46.707743,250.01059 C 46.78109,250.1071 46.926501,250.18045 46.926501,250.28082 46.926501,250.37733 46.875029,250.45068 47.021723,250.47642 47.168421,250.49958 47.263644,250.45068 47.313832,250.57293 A 0.8274206,0.8274206 0 0 1 47.336994,250.98857 C 47.313832,251.08637 47.362731,251.23306 47.482402,251.23306 47.602077,251.23306 47.627813,251.2588 47.627813,251.33215 47.627813,251.4055 47.771937,251.06192 47.771937,251.06192 47.652262,250.96412 47.555753,250.74279 47.555753,250.74279 47.555753,250.74279 47.436078,250.40049 47.436078,250.3516 47.436078,250.30012 47.266217,250.25251 47.195444,250.22935 47.123384,250.20361 47.002422,249.98485 47.002422,249.98485 Z M 44.696455,250.08265 44.45196,250.10839 44.467401,250.25251 44.709321,250.22935 Z M 44.848297,250.25508 V 250.37733 H 44.993708 V 250.25508 Z M 44.655275,250.49958 C 44.655275,250.49958 44.509867,250.69646 44.217759,250.59866 44.217759,250.59866 44.171434,251.06192 44.027311,251.15971 H 43.68888 C 43.68888,251.15971 43.763514,251.28325 43.834287,251.3566 43.907638,251.42866 44.078782,251.57535 43.907638,251.67444 43.740353,251.77224 43.933375,251.74779 43.933375,251.74779 43.933375,251.74779 43.907638,252.26251 43.68888,252.18916 43.472696,252.11453 43.400633,252.4594 43.400633,252.55719 43.400633,252.6537 44.258938,252.69231 44.12511,252.55719 44.050472,252.48256 44.219046,252.3127 44.219046,252.3127 44.219046,252.3127 44.800686,252.36031 44.921644,252.36031 45.040032,252.36031 45.136545,252.33457 45.063195,252.21361 44.991135,252.09008 44.77495,252.1171 44.77495,252.1171 44.77495,252.1171 44.484128,252.19045 44.217759,252.04375 43.953962,251.89706 44.26923,251.84687 44.315558,251.84687 44.361882,251.84687 44.579353,251.67573 44.482844,251.55091 44.387618,251.42995 44.482844,251.2099 44.482844,251.30641 44.482844,251.4055 44.749214,251.45568 44.798111,251.38105 44.845724,251.30898 44.798111,251.08765 44.675863,251.01302 44.554905,250.93967 44.894621,250.89206 44.798111,250.76852 44.700315,250.64628 44.651414,250.49829 44.651414,250.49829 Z M 45.137829,251.23564 V 251.40678 H 45.28324 V 251.23564 Z M 45.463395,251.32185 45.390045,251.47112 45.518725,251.53546 45.592076,251.39005 Z M 47.807965,251.52131 C 47.753919,251.53932 47.856867,251.80827 47.795099,251.84945 47.721752,251.90092 47.67285,251.99614 47.599503,252.07078 47.527443,252.14541 47.744914,252.24192 47.744914,252.31527 47.744914,252.38862 47.796385,252.75665 47.796385,252.75665 47.796385,252.75665 47.963672,252.83 47.986834,252.92908 48.01257,253.02559 47.989409,253.22119 48.060182,253.24564 48.133529,253.27137 48.27894,253.36789 48.230041,253.4644 48.17857,253.56477 48.17857,253.76036 48.17857,253.76036 L 48.276365,253.98169 48.469388,254.10266 C 48.469388,254.10266 48.542736,253.51458 48.42049,253.49142 48.299528,253.46568 48.349716,253.1221 48.349716,253.1221 48.349716,253.1221 48.470675,252.65885 48.276365,252.65885 48.083343,252.65885 48.228754,252.41178 48.10908,252.33972 47.988122,252.26509 48.057607,251.92279 48.011283,251.825 47.963672,251.7272 47.963672,251.60624 47.843997,251.52903 47.825983,251.52002 47.818261,251.51874 47.807965,251.52002 Z M 41.946535,251.99357 41.702041,252.01931 41.717481,252.16472 41.959402,252.13898 Z M 38.282978,252.00258 A 0.66914266,0.66914266 0 0 0 38.134997,252.02059 L 37.748952,252.06949 37.723215,252.24064 37.989586,252.26637 C 37.989586,252.26637 38.109257,252.36417 38.109257,252.43752 38.109257,252.51087 38.279117,252.58422 38.375629,252.58422 38.473426,252.58422 38.735935,252.38733 38.735935,252.38733 38.735935,252.38733 38.85947,252.04375 38.761675,252.0682 38.665161,252.09394 38.473426,252.23935 38.44769,252.09394 38.434824,252.01931 38.357612,252 38.282978,252 Z M 27.233117,252.01544 29.598279,254.38061 29.3718,254.3716 C 29.274002,254.59422 29.033368,254.34844 29.033368,254.34844 28.987043,254.20174 28.647324,254.34844 28.647324,254.34844 28.647324,254.61867 28.189218,254.22619 28.189218,254.22619 L 27.343782,253.61367 C 26.861228,253.17615 26.136752,253.73849 26.112303,253.86073 26.125171,254.04604 25.961745,254.05118 25.809902,254.01773 A 9.0848983,9.0848983 0 0 1 27.23569,252.01802 Z M 36.734943,252.07979 36.593392,252.11067 36.641003,252.32943 36.782554,252.29854 Z M 37.52762,252.11839 36.997452,252.14155 37.005173,252.28825 37.535342,252.26251 Z M 32.991605,252.16729 V 252.31399 H 33.184627 V 252.16729 Z M 34.235953,252.19303 34.215361,252.33715 34.382648,252.36288 34.40324,252.2149 Z M 34.544786,252.26509 34.525484,252.4105 34.695345,252.43623 34.715933,252.29082 Z M 32.592693,252.31656 32.570817,252.46068 32.741962,252.48384 32.762552,252.33843 Z M 36.566369,252.31913 36.494309,252.34487 36.540633,252.48256 36.611407,252.4594 Z M 42.414933,252.3809 42.344159,252.55205 42.477988,252.60995 42.548765,252.43881 Z M 40.622403,252.41178 A 2.4706805,2.4706805 0 0 0 40.890059,252.47226 8.6576765,8.6576765 0 0 1 41.220771,252.90206 L 40.911938,252.85316 40.718916,252.82742 40.358608,252.80169 C 39.995726,253.04876 39.92109,253.34215 39.92109,253.34215 39.756378,253.6587 39.393496,253.32156 39.406367,253.09765 L 40.047197,252.45425 C 40.085804,252.45811 40.124409,252.46068 40.163011,252.46068 40.308422,252.46068 40.622403,252.40921 40.622403,252.40921 Z M 34.875497,252.46326 V 252.60867 H 35.068519 V 252.46326 Z M 32.430554,252.48899 32.397097,252.63312 32.590119,252.68201 32.628723,252.54046 Z M 32.36364,252.69102 32.222091,252.71676 32.247827,252.86217 32.389376,252.83901 Z M 35.233231,252.69102 35.089108,252.69874 35.096829,252.87246 35.24224,252.86474 Z M 42.838297,252.75536 C 42.74307,252.75536 42.641413,252.76823 42.580932,252.7811 42.459974,252.80426 42.484423,252.90206 42.580932,253.02559 L 42.871754,252.97412 C 42.871754,252.97412 43.087939,252.87761 43.039041,252.80426 43.013301,252.76566 42.930945,252.75536 42.838297,252.75536 Z M 41.225919,252.90463 C 41.315997,253.03331 41.406071,253.162 41.489714,253.29068 A 0.37317571,0.37317571 0 0 0 41.469126,253.51587 C 41.542473,253.8839 41.662148,254.03059 41.421515,254.03059 41.177021,254.03059 41.130696,253.83757 41.130696,253.83757 41.130696,253.83757 40.940247,253.76036 40.940247,253.85945 40.940247,253.95725 40.868185,254.15541 40.940247,254.25064 41.011021,254.34972 40.843735,254.49513 40.770388,254.42307 40.698324,254.34972 40.504018,254.12968 40.55163,254.05633 40.603101,253.98298 40.217057,253.51587 40.603101,253.44381 40.989146,253.3666 40.577366,253.14784 40.722777,253.09894 L 40.915795,253.00114 H 41.108817 Z M 0.92294256,252.99857 C 0.53432551,253.81441 0.37733451,254.73191 0.17401751,255.61852 -0.25706449,257.90905 0.17401751,260.34498 0.79812156,262.4515 1.5766435,265.08946 4.1592765,266.97722 5.4692525,269.39257 L 5.6468325,269.53669 C 5.4563845,268.22414 5.3585865,266.81251 5.7291885,265.56044 6.2953865,263.55687 7.0031335,261.60992 7.3763095,259.53301 7.6658415,257.92063 7.9978395,256.11008 7.8086785,254.54789 7.5899195,255.39075 7.3711615,256.22075 6.9079095,256.93879 5.1501225,259.65911 3.3460115,262.8517 4.5762045,266.30421 4.5478945,266.34282 4.5080035,266.39043 4.4603915,266.36469 3.9675415,265.22458 3.8555895,263.92618 3.5364595,262.70243 2.6845895,259.45966 0.19074651,256.74963 0.92165556,252.99986 Z M 66.811618,252.99857 C 67.541239,256.74963 65.048686,259.45837 64.195527,262.70114 63.873826,263.92618 63.764445,265.22329 63.269022,266.36598 63.223985,266.39172 63.184093,266.34411 63.153208,266.30679 64.388549,262.85427 62.581863,259.66169 60.824079,256.94136 60.3634,256.22461 60.139493,255.39333 59.92331,254.55047 59.734149,256.11394 60.064856,257.92192 60.355678,259.53558 60.728852,261.61378 61.439174,263.55944 62.002797,265.56301 62.375975,266.81508 62.276888,268.22671 62.08644,269.53926 L 62.266596,269.39514 C 63.573998,266.97979 66.155343,265.09204 66.937724,262.45536 67.559255,260.34884 67.99034,257.91291 67.559255,255.62238 67.353366,254.73448 67.19895,253.81698 66.812905,253.00114 Z M 33.817737,253.63297 33.862777,254.22104 33.597692,254.13097 H 33.430407 L 33.355773,253.98298 33.209076,253.95725 V 254.49771 L 33.354485,254.61867 33.474158,254.74091 33.714792,254.76665 33.766265,255.06004 34.367208,255.08578 34.440555,255.20674 34.800863,255.2299 35.502175,255.94022 35.453276,256.16156 35.332315,256.2349 C 35.379929,256.40605 35.018335,256.30697 35.018335,256.30697 V 256.45366 L 35.18562,256.4794 35.356768,256.5772 35.598687,256.16027 C 35.863771,255.98912 35.984729,256.23362 36.007894,256.3816 36.03363,256.5283 35.886932,256.50256 35.886932,256.50256 V 256.84614 L 36.031057,256.89504 C 36.272977,257.18843 35.934544,257.36215 35.934544,257.36215 L 35.861196,257.60665 C 35.790423,257.8254 35.52405,257.77779 35.52405,257.77779 L 35.428828,257.92449 35.13801,257.99655 35.711924,258.07119 C 35.765974,257.8743 35.910095,257.82669 35.982159,257.92449 36.054219,258.021 36.054219,258.19472 36.054219,258.19472 L 36.19963,258.21788 36.176464,258.48811 36.321875,258.53573 V 259.32068 L 36.489162,259.5137 C 36.77998,259.39274 36.77998,259.59091 36.63586,259.68614 36.490449,259.78522 36.584383,260.2266 36.584383,260.2266 L 36.465999,260.34884 V 260.54187 L 36.320588,260.64095 V 260.91118 C 36.078667,260.78765 35.789136,260.83655 35.715786,260.91118 35.499602,260.7632 35.040209,260.8121 35.040209,260.93692 35.18562,261.13251 34.872924,261.18141 34.872924,261.18141 L 34.70178,261.37443 C 34.822738,261.6215 34.582105,261.64467 34.582105,261.64467 V 262.11307 L 34.291286,262.3833 34.308013,262.81438 A 4.5643248,4.5643248 0 0 1 30.820751,261.69099 0.12353403,0.12353403 0 0 0 30.864502,261.64724 C 30.984177,261.45164 31.178485,261.42848 31.178485,261.42848 L 31.251834,261.25476 31.904248,261.2805 C 31.951859,261.01027 32.264554,261.10806 32.264554,261.22902 32.264554,261.35385 32.506476,261.25476 32.506476,261.25476 L 32.673761,260.98453 H 32.941419 L 32.967155,260.69114 33.086829,260.61908 V 260.17641 C 33.472873,260.05416 33.425259,259.68485 33.425259,259.68485 L 33.520483,259.5626 33.472873,259.39017 C 33.279851,259.31682 33.375075,259.14567 33.498608,259.19457 33.618282,259.24347 33.327461,258.97324 33.327461,258.97324 33.183338,259.09678 33.063665,258.82655 33.063665,258.82655 H 32.699498 V 258.48425 L 32.651885,258.16255 32.291578,257.99269 32.025207,258.23718 31.973734,258.58076 V 258.8021 L 31.734388,258.84971 31.686776,259.51113 31.493753,259.58834 31.519491,259.83283 31.251834,259.90489 30.985463,259.97824 30.937851,260.29737 30.744828,260.42091 30.647032,260.71687 30.531218,261.40918 A 4.5874876,4.5874876 0 0 1 29.703798,260.21759 C 29.748836,260.04516 29.75527,259.88302 29.75527,259.88302 29.536512,259.78265 29.658759,259.43907 29.899393,259.73504 30.140026,260.02843 29.753984,259.14567 29.753984,259.14567 L 29.560962,258.97453 29.31132,258.95137 A 4.754773,4.754773 0 0 1 29.253413,258.23075 C 29.253413,258.12781 29.257274,258.02872 29.266281,257.92835 29.333196,257.85758 29.415552,257.89361 29.415552,257.89361 L 29.560962,258.01714 29.77972,258.18829 29.802882,258.33498 29.661333,258.40704 29.635597,258.60521 29.707658,258.87287 H 29.90068 C 29.972742,258.48168 30.479746,258.48168 30.625156,258.72617 L 30.769278,258.38517 C 30.430847,258.21402 30.764132,257.94379 30.859354,258.06604 30.955867,258.18957 31.181059,257.74691 31.181059,257.74691 31.181059,257.74691 31.348345,257.96567 31.181059,257.67227 31.0112,257.37888 31.299446,257.23218 31.299446,257.23218 31.251834,256.93622 31.613428,256.98769 31.613428,256.98769 L 31.639164,256.59392 31.299446,256.56819 C 31.228671,256.91177 30.939138,256.61966 31.083261,256.54503 31.228671,256.47168 31.372794,256.32369 31.372794,256.32369 V 256.0792 L 31.519491,256.0303 31.542652,255.78581 H 31.905533 L 32.219517,255.63782 32.291578,255.51686 32.630009,255.49113 33.112564,255.05104 33.064953,254.85544 C 32.77542,254.85544 33.064953,254.63411 33.064953,254.63411 L 33.112564,254.26865 H 32.846195 L 32.799869,253.74878 C 33.12672,253.67157 33.469011,253.62911 33.81259,253.62525 Z M 48.523435,255.0549 48.497698,255.25178 48.64311,255.27108 48.666271,255.0742 Z M 48.433356,255.71632 48.361296,255.86302 48.489976,255.92736 48.563327,255.78195 Z M 23.373965,256.69044 A 0.66528222,0.66528222 0 0 1 23.770303,256.80239 L 24.108735,256.77665 A 0.52759323,0.52759323 0 0 1 24.282455,256.96581 9.8569858,9.8569858 0 0 0 24.218114,257.65426 C 24.184657,257.7186 24.156347,257.7572 24.156347,257.7572 A 0.46325259,0.46325259 0 0 0 24.104875,257.95023 H 23.18609 L 23.189951,257.92835 22.92358,257.90261 C 22.632761,257.73147 22.778171,257.09578 22.778171,257.09578 22.978913,256.79467 23.193811,256.70073 23.372678,256.69044 Z M 31.763984,257.14468 31.715086,257.26821 H 31.594126 L 31.56839,257.46124 H 31.715086 L 31.740823,257.60922 31.641738,257.70702 31.594126,257.83184 31.401103,257.88074 30.963588,258.29767 30.941712,258.49069 30.820751,258.66441 30.675342,259.03115 30.168337,259.05688 30.070539,259.49697 30.1426,259.86372 30.577544,260.03615 30.629016,259.79165 30.770566,259.71831 30.796301,259.47381 30.892813,259.30138 31.03951,259.12895 31.084548,258.93335 31.326469,258.78665 31.616002,258.73518 31.738249,258.58977 31.78586,258.29638 31.803876,258.07505 31.906821,257.92706 32.195067,257.80482 V 257.33899 H 32.053518 L 32.02778,257.16656 Z M 46.914919,257.29395 46.889182,257.4355 47.156838,257.48697 47.182574,257.34028 Z M 46.310115,257.50499 46.239342,257.54617 46.059189,257.64911 45.904769,257.54874 45.827562,257.67227 46.020584,257.79452 46.059189,257.8164 46.093931,257.79581 46.239342,257.71474 46.258643,257.75978 46.392471,257.70573 46.343574,257.5822 Z M 44.45196,258.52157 H 47.838849 A 13.874416,13.874416 0 0 1 46.644688,263.88758 14.019826,14.019826 0 0 1 43.968116,267.88442 11.179829,11.179829 0 0 0 43.811126,266.84982 L 43.618104,266.75331 43.665719,266.16395 H 43.403206 L 42.96569,266.73015 42.919365,266.88457 42.672297,266.63621 42.798403,266.50753 42.772667,266.21156 42.943814,266.06615 V 265.82166 L 43.087939,265.77276 43.111101,265.2323 43.232059,265.20656 V 264.03042 L 42.86918,263.68812 C 42.843444,263.81037 42.4574,263.81037 42.4574,263.81037 42.4574,263.81037 42.362173,263.98152 42.290113,263.98152 42.218053,263.98152 42.38791,264.20028 42.337725,264.34826 42.288826,264.49496 42.095804,264.49496 42.095804,264.49496 L 41.732922,264.59404 41.636412,264.71629 H 41.250368 L 41.218196,264.50139 41.334011,264.35984 41.636412,264.27362 41.878333,264.15138 41.998008,263.90688 C 42.023744,263.66239 42.313275,263.68812 42.313275,263.68812 42.313275,263.68812 42.86918,263.22101 42.892343,263.00225 42.918078,262.78092 43.111101,262.1684 43.44953,262.1684 H 44.077495 C 44.319418,262.06803 44.247356,261.75018 44.247356,261.75018 L 44.560052,261.70129 44.611525,261.87243 C 44.611525,261.87243 45.043893,261.92133 45.092792,261.84927 45.140402,261.77463 45.234341,261.60477 45.356587,261.67555 45.477549,261.75018 45.863594,261.5044 45.863594,261.5044 45.886755,261.33326 46.490272,261.4066 46.490272,261.4066 L 46.562332,261.18785 C 46.562332,261.18785 46.153125,260.62165 46.079777,260.62165 46.007717,260.62165 45.621673,260.27936 45.572772,260.40289 45.18673,260.30509 45.209893,259.76463 45.209893,259.76463 L 45.065769,259.42105 C 45.065769,259.22546 44.70546,258.80853 44.630826,258.85743 44.478983,258.74548 44.441664,258.6258 44.450673,258.52028 Z M 48.415342,258.52157 H 52.324681 A 18.337082,18.337082 0 0 1 50.590055,266.04428 H 50.592628 A 18.513376,18.513376 0 0 1 47.115661,271.08086 L 47.010144,270.97277 46.976686,270.3551 46.854437,270.23157 46.828701,269.61904 C 46.925214,269.29734 46.370597,268.83409 46.322985,268.93317 46.275374,269.03097 45.962677,268.95634 45.962677,269.05542 45.962677,269.15193 45.769654,269.64349 45.863594,269.81464 45.870028,269.82365 45.871315,269.83266 45.876459,269.84038 L 44.358021,268.32194 C 45.541891,267.09174 46.481263,265.68654 47.158125,264.16939 A 14.497233,14.497233 0 0 0 48.415342,258.52286 Z M 52.902457,258.52157 H 57.218428 A 23.210242,23.210242 0 0 1 54.889296,268.39142 H 54.891869 A 23.467604,23.467604 0 0 1 50.573327,274.53853 L 47.52873,271.49522 A 19.044829,19.044829 0 0 0 51.109927,266.32866 18.941884,18.941884 0 0 0 52.901171,258.52414 Z M 19.882842,258.52672 H 21.577575 L 21.59559,258.66441 21.235282,259.05688 21.282894,259.44808 21.064136,259.52142 21.017811,259.69514 20.922587,260.20987 21.163221,260.23561 C 21.284181,260.18413 21.259732,260.55216 21.163221,260.60235 21.06671,260.64996 20.80034,260.74904 20.944463,260.84684 21.091159,260.94464 20.558419,260.92019 20.558419,260.77349 20.558419,260.6268 20.270173,260.50326 20.198111,260.55216 20.155646,260.58304 20.099027,260.50455 20.056562,260.43377 19.960051,259.80838 19.899571,259.1727 19.886703,258.52929 Z M 22.379259,258.52672 H 22.500219 C 22.56456,258.53959 22.609598,258.56532 22.609598,258.56532 L 22.946743,258.59106 22.9802,258.52672 H 24.129324 L 24.228409,259.1534 23.913139,259.42363 C 23.648056,259.57032 23.648056,259.91262 23.938876,259.98725 24.131898,260.01041 24.057263,260.47624 23.769016,260.15968 23.334074,260.15968 24.00965,260.54959 23.816629,260.45308 24.254145,260.67183 24.15506,260.25619 24.15506,260.25619 L 24.373818,260.08119 A 9.7218705,9.7218705 0 0 0 24.756002,261.49153 9.6034836,9.6034836 0 0 0 26.827771,264.86298 L 23.774164,267.91788 A 13.843532,13.843532 0 0 1 23.202819,267.28348 C 23.23885,267.12906 23.334074,266.97207 23.334074,266.97207 23.648056,266.77905 23.262012,266.45735 23.262012,266.45735 23.309624,266.16395 23.094727,265.82166 23.094727,265.82166 22.65721,265.52569 22.778171,264.96336 22.778171,264.96336 V 264.56959 C 22.417863,264.22601 22.92358,264.17711 22.92358,264.17711 23.090866,263.88115 22.80262,263.66239 22.80262,263.66239 L 22.776884,263.34326 22.39084,263.29436 22.341941,262.14266 21.473343,260.89188 C 21.303483,260.84041 21.424444,260.54701 21.424444,260.54701 21.640628,260.42477 21.375545,260.13137 21.375545,260.13137 L 21.349809,259.59349 21.856813,259.54201 21.97906,259.34642 H 22.223555 L 22.197818,258.70816 C 22.24157,258.59235 22.311058,258.54087 22.377972,258.52286 Z M 28.420845,258.52672 H 28.694936 C 28.703944,258.69786 28.720672,258.86772 28.748982,259.0363 L 28.598425,259.08005 28.549526,258.98225 28.477465,259.25248 H 28.039948 L 28.018072,258.95651 28.284443,258.88316 28.379667,258.73647 Z M 35.575522,258.86129 C 35.53692,258.85486 35.491883,258.88445 35.455851,258.98225 V 259.30009 C 35.455851,259.30009 35.79428,259.83798 35.913955,259.91262 36.034917,259.98596 36.229227,259.82254 36.106977,259.74147 35.74667,259.49697 35.772406,259.17785 35.673323,258.95651 35.65402,258.9089 35.61799,258.86644 35.576809,258.85872 Z M 22.94803,259.08005 22.973766,259.25119 H 23.09344 C 23.286462,259.59863 23.116602,260.42863 23.116602,260.42863 23.116602,260.42863 22.827069,260.45436 22.778171,260.30767 22.730558,260.16226 22.610885,260.6268 22.707396,260.70014 22.80262,260.77349 23.141052,260.70014 23.164214,260.97038 23.189951,261.24061 23.382973,260.79794 23.382973,260.79794 V 259.13281 Z M 34.561516,259.57161 34.12786,259.89074 C 34.346619,259.91648 34.368494,260.13523 34.394231,260.23303 34.445703,260.44664 34.441841,259.88945 34.53578,259.91519 34.634863,259.93835 34.561516,259.57161 34.561516,259.57161 Z M 24.902699,259.77107 C 25.108589,259.84184 25.340215,260.17513 25.340215,260.23174 25.340215,260.30638 26.305325,260.25748 26.305325,260.25748 26.570408,260.42734 26.668206,260.87 26.668206,260.87 26.934576,260.52256 27.489192,260.84427 27.077412,261.03986 27.463456,261.28436 27.463456,261.50312 27.463456,261.50312 27.777438,261.4066 27.780012,261.65239 27.780012,261.72573 27.780012,261.79908 27.875236,261.35771 27.875236,261.35771 27.514929,261.08748 28.357791,260.98839 28.11587,261.47867 L 27.971747,261.69742 28.213668,261.89559 28.236831,262.45922 C 28.769571,262.41161 28.622874,261.7489 28.622874,261.7489 L 28.867369,261.69742 C 28.867369,261.47867 29.034655,261.6022 29.034655,261.6022 28.918842,261.02313 29.150468,260.77864 29.301025,260.68084 29.494047,261.04115 29.728247,261.37572 30.006199,261.68456 L 27.236977,264.45506 A 9.0720302,9.0720302 0 0 1 25.319626,261.34741 9.1492388,9.1492388 0 0 1 24.905272,259.76849 Z M 46.778516,260.34241 C 46.580349,260.32954 46.324272,260.47624 46.396332,260.57404 46.541743,260.77092 46.782377,260.67183 46.878889,260.69628 46.976686,260.72202 47.071908,260.77092 46.976686,260.47753 46.945802,260.38488 46.867307,260.34627 46.777228,260.34112 Z M 23.817915,260.6847 A 0.10294503,0.10294503 0 0 0 23.71497,260.79022 C 23.71497,260.84684 23.761296,260.89317 23.817915,260.89317 A 0.10294503,0.10294503 0 0 0 23.92086,260.79022 0.10294503,0.10294503 0 0 0 23.817915,260.6847 Z M 23.551545,261.01541 23.188664,261.25991 22.94803,261.11321 V 261.70129 L 23.336647,262.21601 23.48077,261.87114 23.529669,261.64981 23.35981,261.57646 23.382973,261.20972 23.529669,261.18399 Z M 32.485886,261.62794 32.269703,261.6511 32.295439,261.99468 32.436987,262.11564 32.703357,262.18899 C 32.703357,262.18899 33.066238,262.0899 33.089402,261.79651 L 32.536073,261.77077 Z M 35.530485,261.81452 C 35.731229,261.81452 35.688763,262.30351 35.677183,262.46823 35.535634,262.52871 35.388936,262.58404 35.237093,262.63036 V 262.0899 L 35.479013,261.81967 A 0.16985928,0.16985928 0 0 1 35.530485,261.81324 Z M 30.414119,262.09762 A 5.1215149,5.1215149 0 0 0 33.427833,263.39473 V 263.40374 C 33.427833,263.40374 33.337756,263.6225 33.444561,263.6611 L 33.470299,263.67397 C 33.539786,263.70228 33.521772,263.72158 33.57067,263.77048 L 33.516624,263.89916 33.503756,263.88887 C 33.422686,263.80136 33.375075,263.99439 33.426547,264.04714 33.480592,264.10248 33.297865,264.06516 33.297865,264.1398 33.297865,264.21186 33.246392,264.24917 33.297865,264.28649 33.353199,264.32252 33.281136,264.34182 33.207788,264.39716 33.135728,264.45249 33.516624,264.46922 33.516624,264.46922 33.516624,264.46922 33.443276,264.32252 33.533353,264.32252 H 33.571957 V 264.56702 C 33.539786,264.5593 33.507615,264.55415 33.472873,264.54385 V 264.715 L 33.279851,264.73816 33.447135,264.93119 33.573243,264.9492 V 265.34811 L 33.57067,265.37385 C 33.57067,265.69298 32.772846,265.47165 32.700784,265.39959 L 32.675049,265.84096 32.530926,265.86412 32.556661,266.16009 32.530926,266.57573 32.797296,266.52683 V 266.69798 L 33.449709,266.72372 33.574531,266.58989 V 267.04413 L 33.571957,267.06601 33.13444,267.11491 32.943993,267.21399 32.870644,267.06601 H 32.677622 L 32.559234,267.23329 A 9.1749752,9.1749752 0 0 1 30.886378,266.82795 V 266.82537 A 9.0359994,9.0359994 0 0 1 27.64747,264.86427 Z M 7.3956115,262.3344 C 7.7211745,264.46793 6.8744525,266.35311 6.6775695,268.38499 A 9.1132079,9.1132079 0 0 0 7.4573785,273.07671 C 7.6504005,273.49235 7.9978395,273.8681 8.0943505,274.29146 7.4676725,273.72784 7.0237225,273.00722 6.5926405,272.30977 4.5749175,269.04127 0.34130351,266.91802 0.05563051,262.94177 -0.09106549,264.70985 0.06077851,266.58345 0.65142556,268.15594 1.4698385,270.33709 3.0448975,272.0138 4.8593035,273.44217 6.7380495,274.922 8.9771045,276.07627 10.684705,277.37595 10.34756,276.52408 9.8019514,275.73784 9.5780455,274.84093 8.5743315,270.77975 9.1353825,266.08674 7.3943245,262.33311 Z M 60.332517,262.3344 C 58.595317,266.08803 59.153795,270.78104 58.148794,274.84222 57.927462,275.73913 57.380567,276.52537 57.042134,277.37724 58.753597,276.07756 60.992649,274.922 62.868825,273.44217 64.683229,272.0138 66.258287,270.33709 67.0767,268.15594 67.666059,266.58603 67.819192,264.70985 67.673781,262.94177 67.385536,266.91802 63.151921,269.04127 61.134198,272.30977 60.703117,273.00722 60.259166,273.72784 59.633775,274.29146 59.731574,273.86681 60.0803,273.49364 60.272035,273.07671 60.918014,271.67408 61.211407,270.0527 61.050556,268.38499 60.852389,266.35183 60.00824,264.46793 60.329942,262.33311 Z M 39.286692,262.41675 C 39.348459,262.41675 39.393496,262.44892 39.366473,262.53257 39.293126,262.75132 39.366473,262.8517 39.366473,262.8517 39.680458,262.55573 39.94554,262.87486 39.919804,262.94821 39.896642,263.02284 40.090951,263.0949 40.210622,263.02284 40.332872,262.94821 40.475708,263.2416 40.42938,263.3883 40.380483,263.53628 39.94554,263.51054 39.92109,263.36256 39.895355,263.21586 39.823294,263.26605 39.775679,263.3394 39.737077,263.40374 39.572365,263.4462 39.450117,263.41275 L 39.347172,263.30723 C 39.357468,263.28149 39.38063,263.25575 39.342025,263.21458 39.307283,263.17983 39.264816,263.17855 39.218492,263.17855 L 38.99716,262.95979 C 38.999734,262.80794 39.042197,262.61621 39.028044,262.55444 39.012599,262.49267 39.176024,262.41289 39.285405,262.41289 Z M 23.574708,262.50683 23.407422,262.53257 23.379112,262.72816 23.574708,262.7539 Z M 53.756902,262.72044 A 0.64984044,0.64984044 0 0 0 53.469944,262.82725 L 53.549727,262.94821 C 53.643662,262.88644 53.76205,262.85813 53.79036,262.871 L 53.783925,262.86199 53.92805,262.83883 A 0.13254172,0.13254172 0 0 0 53.848267,262.73588 0.19945598,0.19945598 0 0 0 53.758189,262.72044 Z M 23.641622,262.96751 A 0.10294503,0.10294503 0 0 0 23.538677,263.07045 0.10294503,0.10294503 0 0 0 23.741993,263.07045 0.10294503,0.10294503 0 0 0 23.641622,262.96751 Z M 35.683618,263.08332 A 0.43751635,0.43751635 0 0 0 35.719647,263.21715 L 35.840608,263.26862 35.62185,263.43848 35.428828,263.65724 35.188194,263.58647 34.89866,263.56073 34.80215,263.39087 34.634863,263.36513 34.609128,263.71 34.488165,263.8567 34.199921,264.15266 C 34.50361,264.15266 34.300292,264.31609 34.15231,264.38686 V 263.40631 C 34.463717,263.3883 34.769979,263.34197 35.069806,263.27248 L 35.11613,263.31752 H 35.332315 L 35.345185,263.19785 C 35.458425,263.16439 35.570378,263.12707 35.682332,263.0859 Z M 23.810194,263.48223 A 0.10294503,0.10294503 0 0 0 23.707249,263.58518 0.10294503,0.10294503 0 0 0 23.810194,263.6907 0.10294503,0.10294503 0 0 0 23.913139,263.58775 0.10294503,0.10294503 0 0 0 23.810194,263.48223 Z M 32.937557,263.55944 C 32.816598,263.55301 32.713653,263.93004 32.664754,264.02784 32.664754,264.02784 32.720086,264.22987 32.828179,264.21314 32.937557,264.19384 33.010905,264.13851 33.100982,264.11921 33.191059,264.10248 33.229664,263.95449 33.263122,263.8078 33.299153,263.6611 33.22709,263.58647 33.22709,263.58647 33.22709,263.58647 33.137013,263.73445 32.99289,263.58647 A 0.0900769,0.0900769 0 0 0 32.938845,263.56073 Z M 23.35595,263.75761 23.150059,263.78077 V 263.95449 L 23.35595,263.92876 Z M 37.893072,263.75761 H 38.060359 L 38.086094,263.87986 38.824726,263.95063 38.860758,263.95578 C 39.149003,264.12564 39.004881,264.34569 38.908369,264.3933 A 0.73348327,0.73348327 0 0 1 38.643287,264.44477 L 38.591814,264.54257 37.966423,264.59018 37.91495,264.83467 C 37.602254,264.78578 37.482579,265.13064 37.554643,265.3005 37.62799,265.47165 37.554643,265.61963 37.554643,265.61963 L 37.821012,265.74188 38.159445,265.64537 C 38.208344,265.40087 38.424528,265.3494 38.61755,265.2027 38.810572,265.05472 39.124553,265.47036 39.02933,265.66596 A 1.7500653,1.7500653 0 0 0 38.999734,265.72772 8.9896742,8.9896742 0 0 1 37.837739,266.40587 8.9690849,8.9690849 0 0 1 35.817446,267.10847 L 35.791711,267.09046 35.525338,267.01582 35.502175,266.65037 C 35.453276,266.40587 34.993885,266.40587 35.017047,266.57573 35.042783,266.74688 34.154883,266.65037 34.149736,266.65037 V 265.97736 L 34.390369,265.72 34.9437,265.59647 C 34.992599,265.35197 35.233231,265.64794 35.233231,265.64794 35.475152,265.6222 35.52405,265.79335 35.52405,265.79335 L 35.838035,265.84225 C 36.104404,265.91688 35.940978,265.94133 35.958992,266.03784 35.982159,266.18454 36.104404,266.13564 36.104404,266.13564 L 36.150728,265.8178 36.296139,265.84354 36.149441,265.6711 35.883072,265.54757 35.590967,265.42532 C 35.397943,265.15509 35.642438,265.20656 35.835461,265.2323 H 36.148154 C 36.148154,265.2323 36.511036,265.72129 36.511036,265.84354 36.511036,265.96578 36.678322,265.99023 36.678322,265.99023 L 36.89708,265.9645 36.969142,266.13564 H 37.1879 L 37.258676,266.28234 H 37.692332 L 37.718068,266.06358 37.306287,265.98895 37.280552,265.74188 36.992303,265.66853 C 36.894507,265.25418 37.064367,265.13193 37.185325,265.32752 L 37.329449,265.35069 37.281839,264.98394 37.449124,264.93247 37.40151,264.42032 37.259963,264.36885 V 264.19899 L 37.862192,264.22473 C 37.814578,263.9056 37.887927,263.7589 37.887927,263.7589 Z M 55.367991,264.87714 55.239311,264.94148 A 0.27923837,0.27923837 0 0 1 55.262473,265.04185 C 55.266334,265.0856 55.270192,265.1345 55.313945,265.16539 55.337108,265.18597 55.370565,265.19112 55.409168,265.18469 L 55.380858,265.04314 C 55.393728,265.04314 55.406595,265.05343 55.409168,265.06373 L 55.40531,265.03027 A 0.3937647,0.3937647 0 0 0 55.366705,264.87585 Z M 55.229016,265.14737 55.087465,265.18597 C 55.123497,265.33396 55.177543,265.48194 55.180117,265.48709 L 55.316519,265.43562 C 55.316519,265.43304 55.261186,265.28892 55.226442,265.14866 Z M 43.892195,265.28892 V 265.75732 H 44.062055 V 265.29021 Z M 38.675457,265.41117 38.482435,265.5347 38.559642,265.65952 38.752666,265.53599 Z M 54.415751,265.7496 C 54.402881,265.86541 54.432478,266.00696 54.544431,266.0327 L 54.574028,265.88729 H 54.579175 C 54.566306,265.87699 54.553439,265.81909 54.561161,265.76375 Z M 54.334681,266.02369 C 54.290928,266.02626 54.231738,266.07259 54.180265,266.10476 54.034854,266.19484 54.090187,266.56415 54.180265,266.4715 54.270339,266.38142 54.379719,266.4715 54.399021,266.19484 54.406742,266.05715 54.378432,266.01854 54.334681,266.0224 Z M 39.322722,266.21285 39.894067,266.50496 C 39.966128,266.60147 40.280112,266.57702 40.280112,266.57702 L 40.377909,266.70055 C 40.377909,266.70055 40.570931,266.67482 40.691893,266.8228 40.811565,266.9695 41.438243,266.84854 41.438243,266.84854 L 41.609389,266.99395 41.874472,267.09303 42.320998,267.1059 42.600236,267.38642 C 42.16272,267.58588 41.278678,267.51511 41.223345,267.45849 41.148711,267.38771 40.644278,267.16638 40.644278,267.16638 40.644278,267.16638 40.258237,266.84854 40.184887,266.94762 40.111539,267.04542 39.773106,266.82409 39.773106,266.89872 39.773106,266.97078 39.459126,266.72629 39.459126,266.72629 L 38.977858,266.55514 39.338163,266.48308 39.280256,266.24373 39.321436,266.218 Z M 13.091044,267.65408 V 267.90115 H 13.284066 V 268.21899 H 13.429476 L 13.40374,267.85225 13.210718,267.7789 V 267.65537 Z M 48.366443,267.7789 48.347143,267.99766 48.582628,268.01568 48.600642,267.81493 Z M 48.170848,268.29749 48.124524,268.43646 A 0.27023068,0.27023068 0 0 1 48.169561,268.4622 L 48.200445,268.59088 C 48.187578,268.60375 48.174708,268.62048 48.166986,268.62949 L 48.272505,268.73243 C 48.349716,268.64235 48.37931,268.56128 48.358721,268.48022 48.326551,268.35539 48.186291,268.30392 48.169561,268.30006 Z M 43.950102,268.73243 45.011722,269.80049 C 44.964112,269.97807 44.796825,270.08358 44.702886,270.01024 44.60509,269.9356 44.822561,270.1312 44.870172,270.22899 44.921644,270.32808 45.063195,270.32808 45.114666,270.22899 45.145551,270.16465 45.145551,270.04498 45.157134,269.94332 L 45.646122,270.43488 C 45.584354,270.56099 45.520012,270.68967 45.547035,270.76946 L 45.765793,270.86854 45.788959,271.28418 C 45.951097,271.44889 46.316551,271.44246 46.607372,271.39356 L 46.706455,271.49264 A 18.4915,18.4915 0 0 1 43.782816,273.7999 V 273.56441 C 44.217759,273.24528 44.242207,272.68166 43.831714,272.63147 43.519021,272.59544 43.664431,272.26473 43.952675,272.21455 L 44.119962,272.14248 V 271.92115 L 44.675863,271.40643 V 271.01524 L 43.468835,270.01152 C 43.221767,269.92145 43.206323,269.61904 43.29254,269.32436 43.515159,269.1352 43.735204,268.93832 43.948815,268.73243 Z M 14.298074,268.7839 14.467934,269.22528 14.565732,269.44661 14.758753,269.71427 15.023837,269.95876 15.121635,269.7889 14.951775,269.42216 14.78449,269.29863 14.660956,268.95505 Z M 9.5754725,269.14421 C 11.042439,272.07428 10.411901,275.85365 12.31381,278.61773 12.908317,279.48246 13.742171,280.31117 14.510399,281.00605 L 14.471794,281.04466 C 13.776915,280.71909 13.150237,280.23396 12.515839,279.70637 9.1868545,276.93972 4.1798655,276.58585 2.1865925,272.07557 2.7270545,275.38654 5.3585865,278.32047 8.1960085,280.17992 10.895743,281.948 14.355981,281.74983 17.354255,282.74067 14.583747,280.50548 14.162959,277.14947 12.927619,274.20911 12.16068,272.38183 10.909898,270.73728 9.5780455,269.14292 Z M 58.144934,269.14421 C 56.811795,270.73728 55.5623,272.38183 54.794073,274.20911 53.558732,277.14947 53.139234,280.50548 50.367436,282.74067 53.36571,281.74983 56.827236,281.948 59.526969,280.17992 62.366966,278.32047 64.995922,275.38654 65.536388,272.073 63.5444,276.58585 58.536126,276.93715 55.20714,279.70766 54.574028,280.23268 53.946064,280.71781 53.251186,281.04208 L 53.215154,281.00348 C 53.983383,280.3086 54.814661,279.48118 55.409168,278.61644 57.313651,275.85237 56.679254,272.073 58.14622,269.14164 Z M 20.263739,270.20326 C 20.476063,270.20712 20.760448,270.44775 20.791332,270.54812 A 0.48255477,0.48255477 0 0 0 20.956044,270.73342 L 20.59831,271.08987 C 20.373118,270.85825 20.156933,270.62147 19.944609,270.37955 H 20.046267 C 20.084872,270.25087 20.167228,270.20326 20.265026,270.20583 Z M 34.437981,271.55441 A 1.0873568,1.0873568 0 0 1 34.562803,271.55441 0.79782392,0.79782392 0 0 1 34.966862,271.67537 C 35.233231,271.87225 35.594827,271.75001 35.594827,271.75001 L 35.861196,272.07428 C 35.300147,272.15535 34.728803,272.20296 34.149736,272.21583 V 271.63677 A 0.56877124,0.56877124 0 0 1 34.439268,271.5557 Z M 47.118236,271.907 50.161547,274.9516 A 23.467604,23.467604 0 0 1 44.370891,279.08741 23.214102,23.214102 0 0 1 34.145876,281.5967 V 277.27944 A 19.012658,19.012658 0 0 0 39.273825,276.49835 L 39.698472,276.62703 39.81686,277.0195 40.009882,276.99377 40.155289,276.87281 40.734356,276.84707 41.026461,276.57684 41.339159,276.52923 43.616816,274.59129 A 19.070565,19.070565 0 0 0 47.116949,271.90571 Z M 36.146871,272.61732 36.198342,272.72927 36.610124,272.85152 36.89708,272.92487 36.994877,273.33922 37.211061,273.36496 37.285699,273.63519 C 37.550781,273.83078 37.212348,274.24771 37.212348,274.24771 V 274.78817 L 37.405371,274.8834 37.382209,275.08156 37.697479,275.39941 38.057784,275.42514 38.658727,276.06469 A 18.324213,18.324213 0 0 1 34.148449,276.69909 V 272.79104 C 34.822738,272.77817 35.490595,272.71769 36.148154,272.61474 Z M 30.3086,273.01623 30.16319,273.13719 30.091128,273.19896 30.168337,273.25429 30.335623,273.37525 30.421839,273.25686 30.326615,273.18866 30.403824,273.1269 Z M 32.029069,274.77016 31.964728,274.9027 32.115284,274.97991 32.067673,275.02881 32.170618,275.13175 32.290292,275.0095 32.362353,274.93744 32.272276,274.89112 Z M 19.800486,276.01193 19.997368,276.3079 20.020531,276.52666 20.262452,276.60129 20.36025,276.74799 20.527535,276.65019 20.407862,276.33106 20.095166,276.06083 Z M 14.364989,276.28731 C 16.176821,278.72453 16.691546,282.26584 20.001229,283.51276 20.588016,283.73152 21.262305,283.77013 21.768023,284.09183 21.128477,284.18963 20.571287,283.99146 19.976779,283.86535 15.712282,282.95943 10.500691,284.12786 7.3055345,280.4939 8.5189985,282.86936 11.016703,284.74424 13.417894,285.53563 17.13421,286.76325 21.01009,285.39408 24.5025,284.52806 25.00693,284.40324 25.618166,284.44313 26.08528,284.2707 24.139619,283.87693 22.263446,283.28757 20.757875,281.90939 18.596029,279.93156 16.678678,277.82505 14.364989,276.2886 Z M 53.352843,276.28731 C 51.040442,277.82376 49.124376,279.92899 46.959958,281.90811 45.454387,283.285 43.579501,283.87693 41.632551,284.2707 42.100951,284.44184 42.713473,284.40195 43.215332,284.52806 46.710317,285.39408 50.583623,286.76196 54.302511,285.53435 56.702416,284.74296 59.200119,282.86807 60.414873,280.49004 57.217141,284.12657 52.006836,282.95815 47.739766,283.86535 47.147833,283.99403 46.589355,284.19091 45.951097,284.09312 46.4581,283.77141 47.131102,283.73281 47.716604,283.51405 51.027571,282.26584 51.543583,278.72711 53.352843,276.2886 Z M 30.344631,284.17804 C 27.070978,284.17804 24.147339,285.76082 21.2726,286.95113 18.673238,288.02948 15.227153,287.81586 12.925045,286.22794 14.063875,287.6563 15.588748,288.53777 17.16252,289.13613 20.087445,290.3007 23.500073,289.40637 25.990055,287.81586 27.781299,286.6706 29.319041,285.04536 31.452576,285.04536 31.830899,285.04536 32.209222,285.08782 32.590119,285.1676 33.007046,285.00032 33.430407,284.84976 33.858915,284.71979 A 12.157807,12.157807 0 0 0 30.345917,284.17547 Z M 33.860203,284.72237 C 34.288712,284.85105 34.709498,285.00289 35.129001,285.17018 35.509897,285.0904 35.888219,285.04664 36.266542,285.04664 38.400079,285.04664 39.937818,286.66803 41.73035,287.81586 44.219046,289.40637 47.63296,290.29941 50.557884,289.13485 52.130372,288.53777 53.653957,287.65759 54.791499,286.22665 52.491964,287.81586 49.043307,288.02819 46.443946,286.94984 43.571779,285.75696 40.64814,284.17547 37.371917,284.17547 36.182899,284.17547 35.004177,284.37364 33.858915,284.71979 Z M 35.129001,285.17018 C 34.708212,285.26025 34.283565,285.3928 33.860203,285.56652 36.539346,286.66031 39.228784,289.31629 41.599093,291.76638 42.07779,291.38291 42.584793,290.9647 42.975986,290.51817 40.850171,288.48501 38.124701,286.37206 35.129001,285.17146 Z M 33.860203,285.56652 C 33.435555,285.3928 33.010905,285.25768 32.590119,285.17018 29.591845,286.37077 26.867662,288.48501 24.743134,290.5156 25.133038,290.96212 25.640042,291.38034 26.11745,291.76381 28.489046,289.315 31.178485,286.66031 33.858915,285.56523 Z" />
  </g>
</svg>
